Asar-Regular?.ufo
<glyph name="exclam" format="1">
  <advance width="333"/>
  <unicode hex="0021"/>
  <outline>
    <contour>
      <point x="131" y="202" type="line" name="hr00"/>
      <point x="142" y="194"/>
      <point x="158" y="190"/>
      <point x="171" y="190" type="curve" smooth="yes"/>
      <point x="180" y="190"/>
      <point x="189" y="192"/>
      <point x="193" y="196" type="curve"/>
      <point x="206" y="734" type="line"/>
      <point x="197" y="738"/>
      <point x="172" y="747"/>
      <point x="147" y="747" type="curve" smooth="yes"/>
      <point x="132" y="747"/>
      <point x="117" y="743"/>
      <point x="105" y="734" type="curve"/>
    </contour>
    <contour>
      <point x="96" y="25" type="curve" smooth="yes"/>
      <point x="96" y="16"/>
      <point x="112" y="-16"/>
      <point x="173" y="-16" type="curve" smooth="yes"/>
      <point x="202" y="-16"/>
      <point x="233" y="18"/>
      <point x="233" y="42" type="curve" smooth="yes"/>
      <point x="233" y="61"/>
      <point x="217" y="89"/>
      <point x="152" y="89" type="curve" smooth="yes"/>
      <point x="124" y="89"/>
      <point x="96" y="48"/>
    </contour>
  </outline>
</glyph>
<glyph name="percent" format="1">
  <advance width="948"/>
  <unicode hex="0025"/>
  <outline>
    <contour>
      <point x="288" y="-86" type="curve" name="hr01" smooth="yes"/>
      <point x="288" y="-98"/>
      <point x="296" y="-102"/>
      <point x="307" y="-102" type="curve" smooth="yes"/>
      <point x="324" y="-102"/>
      <point x="347" y="-91"/>
      <point x="356" y="-77" type="curve"/>
      <point x="658" y="737" type="line"/>
      <point x="659" y="744"/>
      <point x="660" y="750"/>
      <point x="660" y="754" type="curve" smooth="yes"/>
      <point x="660" y="764"/>
      <point x="656" y="768"/>
      <point x="645" y="768" type="curve" smooth="yes"/>
      <point x="625" y="768"/>
      <point x="595" y="752"/>
      <point x="585" y="736" type="curve"/>
      <point x="293" y="-68" type="line" smooth="yes"/>
      <point x="290" y="-76"/>
      <point x="288" y="-82"/>
    </contour>
    <contour>
      <point x="223" y="273" type="curve" name="hr02" smooth="yes"/>
      <point x="364" y="273"/>
      <point x="422" y="384"/>
      <point x="422" y="485" type="curve" smooth="yes"/>
      <point x="422" y="575"/>
      <point x="378" y="672"/>
      <point x="255" y="672" type="curve" smooth="yes"/>
      <point x="131" y="672"/>
      <point x="62" y="568"/>
      <point x="62" y="458" type="curve" smooth="yes"/>
      <point x="62" y="332"/>
      <point x="132" y="273"/>
    </contour>
    <contour>
      <point x="258" y="320" type="curve" smooth="yes"/>
      <point x="169" y="320"/>
      <point x="143" y="410"/>
      <point x="143" y="485" type="curve" smooth="yes"/>
      <point x="143" y="547"/>
      <point x="160" y="625"/>
      <point x="225" y="625" type="curve" smooth="yes"/>
      <point x="314" y="625"/>
      <point x="339" y="535"/>
      <point x="339" y="458" type="curve" smooth="yes"/>
      <point x="339" y="387"/>
      <point x="319" y="320"/>
    </contour>
    <contour>
      <point x="524" y="168" type="curve" name="hr03" smooth="yes"/>
      <point x="524" y="42"/>
      <point x="597" y="-17"/>
      <point x="688" y="-17" type="curve" smooth="yes"/>
      <point x="825" y="-17"/>
      <point x="887" y="93"/>
      <point x="887" y="195" type="curve" smooth="yes"/>
      <point x="887" y="285"/>
      <point x="840" y="382"/>
      <point x="720" y="382" type="curve" smooth="yes"/>
      <point x="596" y="382"/>
      <point x="524" y="278"/>
    </contour>
    <contour>
      <point x="608" y="195" type="curve" smooth="yes"/>
      <point x="608" y="258"/>
      <point x="622" y="335"/>
      <point x="690" y="335" type="curve" smooth="yes"/>
      <point x="779" y="335"/>
      <point x="804" y="245"/>
      <point x="804" y="168" type="curve" smooth="yes"/>
      <point x="804" y="97"/>
      <point x="784" y="30"/>
      <point x="722" y="30" type="curve" smooth="yes"/>
      <point x="631" y="30"/>
      <point x="608" y="120"/>
    </contour>
  </outline>
</glyph>
<glyph name="ampersand" format="1">
  <advance width="708"/>
  <unicode hex="0026"/>
  <outline>
    <contour>
      <point x="60" y="127" type="curve" name="hr01"/>
      <point x="63" y="29"/>
      <point x="162" y="-23"/>
      <point x="264" y="-23" type="curve" name="hr02" smooth="yes"/>
      <point x="343" y="-23"/>
      <point x="417" y="12"/>
      <point x="476" y="63" type="curve"/>
      <point x="521" y="26"/>
      <point x="569" y="-4"/>
      <point x="611" y="-4" type="curve" name="hr03" smooth="yes"/>
      <point x="616" y="-4"/>
      <point x="620" y="-4"/>
      <point x="625" y="-3" type="curve" smooth="yes"/>
      <point x="634" y="-1"/>
      <point x="692" y="23"/>
      <point x="692" y="33" type="curve" smooth="yes"/>
      <point x="692" y="35"/>
      <point x="684" y="54"/>
      <point x="677" y="54" type="curve" smooth="yes"/>
      <point x="672" y="54" type="line"/>
      <point x="669" y="53"/>
      <point x="666" y="53"/>
      <point x="663" y="53" type="curve" smooth="yes"/>
      <point x="618" y="53"/>
      <point x="568" y="92"/>
      <point x="533" y="124" type="curve"/>
      <point x="587" y="192"/>
      <point x="608" y="263"/>
      <point x="608" y="327" type="curve" smooth="yes"/>
      <point x="608" y="347"/>
      <point x="606" y="373"/>
      <point x="594" y="373" type="curve" smooth="yes"/>
      <point x="571" y="373"/>
      <point x="532" y="345"/>
      <point x="525" y="331" type="curve"/>
      <point x="532" y="318"/>
      <point x="535" y="302"/>
      <point x="535" y="284" type="curve" smooth="yes"/>
      <point x="535" y="240"/>
      <point x="518" y="189"/>
      <point x="499" y="157" type="curve"/>
      <point x="443" y="208"/>
      <point x="373" y="267"/>
      <point x="315" y="329" type="curve"/>
      <point x="393" y="374"/>
      <point x="468" y="431"/>
      <point x="468" y="541" type="curve" smooth="yes"/>
      <point x="468" y="615"/>
      <point x="410" y="672"/>
      <point x="334" y="672" type="curve" smooth="yes"/>
      <point x="222" y="672"/>
      <point x="126" y="577"/>
      <point x="126" y="499" type="curve" smooth="yes"/>
      <point x="126" y="441"/>
      <point x="162" y="378"/>
      <point x="212" y="319" type="curve"/>
      <point x="138" y="274"/>
      <point x="60" y="216"/>
    </contour>
    <contour>
      <point x="286" y="363" type="line" name="hr05"/>
      <point x="240" y="418"/>
      <point x="208" y="476"/>
      <point x="208" y="533" type="curve" smooth="yes"/>
      <point x="208" y="567"/>
      <point x="231" y="617"/>
      <point x="282" y="617" type="curve" smooth="yes"/>
      <point x="357" y="617"/>
      <point x="394" y="571"/>
      <point x="394" y="503" type="curve" smooth="yes"/>
      <point x="394" y="443"/>
      <point x="359" y="407"/>
      <point x="316" y="381" type="curve" smooth="yes"/>
    </contour>
    <contour>
      <point x="147" y="172" type="curve" name="hr06" smooth="yes"/>
      <point x="147" y="223"/>
      <point x="188" y="256"/>
      <point x="240" y="287" type="curve"/>
      <point x="306" y="216"/>
      <point x="353" y="173"/>
      <point x="440" y="94" type="curve"/>
      <point x="402" y="64"/>
      <point x="355" y="42"/>
      <point x="309" y="42" type="curve" smooth="yes"/>
      <point x="223" y="42"/>
      <point x="147" y="84"/>
    </contour>
  </outline>
</glyph>
<glyph name="quotesingle" format="1">
  <advance width="319"/>
  <unicode hex="0027"/>
  <outline>
    <contour>
      <point x="161" y="367" type="curve" name="hr00" smooth="yes"/>
      <point x="171" y="367"/>
      <point x="179" y="369"/>
      <point x="183" y="373" type="curve"/>
      <point x="205" y="697" type="line"/>
      <point x="195" y="702"/>
      <point x="181" y="710"/>
      <point x="156" y="710" type="curve" smooth="yes"/>
      <point x="141" y="710"/>
      <point x="126" y="707"/>
      <point x="114" y="697" type="curve"/>
      <point x="131" y="379" type="line"/>
      <point x="142" y="371"/>
      <point x="148" y="367"/>
    </contour>
  </outline>
</glyph>
<glyph name="plus" format="1">
  <advance width="582"/>
  <unicode hex="002B"/>
  <outline>
    <contour>
      <point x="265" y="174" type="line" name="hr00"/>
      <point x="271" y="161"/>
      <point x="278" y="156"/>
      <point x="286" y="156" type="curve" smooth="yes"/>
      <point x="305" y="156"/>
      <point x="327" y="189"/>
      <point x="330" y="201" type="curve"/>
      <point x="330" y="320" type="line"/>
      <point x="428" y="320" type="line"/>
      <point x="448" y="322"/>
      <point x="490" y="348"/>
      <point x="490" y="363" type="curve" smooth="yes"/>
      <point x="490" y="369"/>
      <point x="484" y="373"/>
      <point x="469" y="374" type="curve"/>
      <point x="330" y="374" type="line"/>
      <point x="330" y="508" type="line"/>
      <point x="329" y="526"/>
      <point x="321" y="533"/>
      <point x="312" y="533" type="curve" smooth="yes"/>
      <point x="293" y="533"/>
      <point x="267" y="507"/>
      <point x="265" y="488" type="curve"/>
      <point x="265" y="374" type="line"/>
      <point x="156" y="374" type="line"/>
      <point x="143" y="371"/>
      <point x="111" y="354"/>
      <point x="111" y="338" type="curve" smooth="yes"/>
      <point x="111" y="331"/>
      <point x="115" y="325"/>
      <point x="128" y="320" type="curve"/>
      <point x="265" y="320" type="line"/>
    </contour>
  </outline>
</glyph>
<glyph name="period" format="1">
  <advance width="246"/>
  <unicode hex="002E"/>
  <outline>
    <contour>
      <point x="61" y="25" type="curve" name="hr00" smooth="yes"/>
      <point x="61" y="16"/>
      <point x="77" y="-16"/>
      <point x="138" y="-16" type="curve" smooth="yes"/>
      <point x="167" y="-16"/>
      <point x="198" y="18"/>
      <point x="198" y="42" type="curve" smooth="yes"/>
      <point x="198" y="61"/>
      <point x="182" y="89"/>
      <point x="117" y="89" type="curve" smooth="yes"/>
      <point x="89" y="89"/>
      <point x="61" y="48"/>
    </contour>
  </outline>
</glyph>
<glyph name="slash" format="1">
  <advance width="429"/>
  <unicode hex="002F"/>
  <outline>
    <contour>
      <point x="32" y="-116" type="line" name="hr00" smooth="yes"/>
      <point x="29" y="-124"/>
      <point x="27" y="-130"/>
      <point x="27" y="-134" type="curve" smooth="yes"/>
      <point x="27" y="-146"/>
      <point x="35" y="-150"/>
      <point x="46" y="-150" type="curve" smooth="yes"/>
      <point x="66" y="-150"/>
      <point x="89" y="-139"/>
      <point x="98" y="-125" type="curve"/>
      <point x="400" y="689" type="line"/>
      <point x="401" y="695"/>
      <point x="401" y="701"/>
      <point x="401" y="705" type="curve" smooth="yes"/>
      <point x="401" y="715"/>
      <point x="398" y="719"/>
      <point x="387" y="719" type="curve" smooth="yes"/>
      <point x="367" y="719"/>
      <point x="334" y="704"/>
      <point x="324" y="688" type="curve"/>
    </contour>
  </outline>
</glyph>
<glyph name="zero" format="1">
  <advance width="612"/>
  <unicode hex="0030"/>
  <outline>
    <contour>
      <point x="83" y="124" type="curve" name="hr00"/>
      <point x="124" y="28"/>
      <point x="199" y="-17"/>
      <point x="281" y="-17" type="curve" smooth="yes"/>
      <point x="343" y="-17"/>
      <point x="414" y="4"/>
      <point x="468" y="59" type="curve" smooth="yes"/>
      <point x="535" y="128"/>
      <point x="555" y="246"/>
      <point x="555" y="342" type="curve" smooth="yes"/>
      <point x="555" y="492"/>
      <point x="497" y="673"/>
      <point x="335" y="673" type="curve" smooth="yes"/>
      <point x="264" y="673"/>
      <point x="194" y="636"/>
      <point x="138" y="583" type="curve"/>
      <point x="74" y="509"/>
      <point x="61" y="405"/>
      <point x="57" y="301" type="curve"/>
      <point x="58" y="236"/>
      <point x="62" y="184"/>
    </contour>
    <contour>
      <point x="328" y="42" type="curve" smooth="yes"/>
      <point x="165" y="42"/>
      <point x="148" y="233"/>
      <point x="148" y="357" type="curve" smooth="yes"/>
      <point x="148" y="463"/>
      <point x="160" y="612"/>
      <point x="281" y="612" type="curve" smooth="yes"/>
      <point x="434" y="612"/>
      <point x="466" y="436"/>
      <point x="466" y="302" type="curve" smooth="yes"/>
      <point x="466" y="203"/>
      <point x="457" y="42"/>
    </contour>
  </outline>
</glyph>
<glyph name="two" format="1">
  <advance width="562"/>
  <unicode hex="0032"/>
  <outline>
    <contour>
      <point x="35" y="12" type="curve" name="hr00" smooth="yes"/>
      <point x="35" y="7"/>
      <point x="38" y="2"/>
      <point x="46" y="0" type="curve"/>
      <point x="431" y="0" type="line" smooth="yes"/>
      <point x="477" y="0"/>
      <point x="488" y="20"/>
      <point x="492" y="39" type="curve"/>
      <point x="492" y="39"/>
      <point x="500" y="101"/>
      <point x="500" y="125" type="curve" smooth="yes"/>
      <point x="500" y="138"/>
      <point x="488" y="145"/>
      <point x="480" y="145" type="curve" smooth="yes"/>
      <point x="457" y="145"/>
      <point x="452" y="141"/>
      <point x="419" y="69" type="curve"/>
      <point x="150" y="54" type="line"/>
      <point x="302" y="180"/>
      <point x="451" y="321"/>
      <point x="451" y="489" type="curve" smooth="yes"/>
      <point x="451" y="567"/>
      <point x="416" y="675"/>
      <point x="257" y="675" type="curve" smooth="yes"/>
      <point x="152" y="675"/>
      <point x="31" y="609"/>
      <point x="31" y="522" type="curve" smooth="yes"/>
      <point x="31" y="510"/>
      <point x="34" y="485"/>
      <point x="64" y="485" type="curve" smooth="yes"/>
      <point x="90" y="485"/>
      <point x="133" y="511"/>
      <point x="133" y="533" type="curve" smooth="yes"/>
      <point x="133" y="539"/>
      <point x="126" y="540"/>
      <point x="126" y="559" type="curve" smooth="yes"/>
      <point x="126" y="603"/>
      <point x="160" y="618"/>
      <point x="217" y="618" type="curve" smooth="yes"/>
      <point x="324" y="618"/>
      <point x="353" y="531"/>
      <point x="353" y="479" type="curve" smooth="yes"/>
      <point x="353" y="304"/>
      <point x="241" y="200"/>
      <point x="57" y="43" type="curve" smooth="yes"/>
      <point x="49" y="37"/>
      <point x="35" y="23"/>
    </contour>
  </outline>
</glyph>
<glyph name="four" format="1">
  <advance width="558"/>
  <unicode hex="0034"/>
  <outline>
    <contour>
      <point x="44" y="172" type="curve" name="hr00"/>
      <point x="338" y="172" type="line"/>
      <point x="338" y="-3" type="line" smooth="yes"/>
      <point x="338" y="-12"/>
      <point x="351" y="-16"/>
      <point x="360" y="-16" type="curve" smooth="yes"/>
      <point x="385" y="-16"/>
      <point x="419" y="12"/>
      <point x="425" y="30" type="curve"/>
      <point x="425" y="172" type="line"/>
      <point x="476" y="172" type="line" smooth="yes"/>
      <point x="504" y="172"/>
      <point x="527" y="191"/>
      <point x="527" y="214" type="curve" smooth="yes"/>
      <point x="527" y="222"/>
      <point x="521" y="223"/>
      <point x="501" y="223" type="curve" smooth="yes"/>
      <point x="425" y="223" type="line"/>
      <point x="425" y="381" type="line" smooth="yes"/>
      <point x="425" y="391"/>
      <point x="414" y="397"/>
      <point x="404" y="397" type="curve" smooth="yes"/>
      <point x="379" y="397"/>
      <point x="339" y="369"/>
      <point x="338" y="346" type="curve"/>
      <point x="338" y="223" type="line"/>
      <point x="95" y="223" type="line"/>
      <point x="148" y="293"/>
      <point x="269" y="487"/>
      <point x="337" y="633" type="curve" smooth="yes"/>
      <point x="338" y="636"/>
      <point x="338" y="639"/>
      <point x="338" y="642" type="curve" smooth="yes"/>
      <point x="338" y="666"/>
      <point x="307" y="675"/>
      <point x="286" y="675" type="curve" smooth="yes"/>
      <point x="256" y="675"/>
      <point x="245" y="667"/>
      <point x="239" y="653" type="curve" smooth="yes"/>
      <point x="173" y="491"/>
      <point x="70" y="295"/>
      <point x="14" y="224" type="curve" smooth="yes"/>
      <point x="12" y="222"/>
      <point x="12" y="219"/>
      <point x="12" y="216" type="curve" smooth="yes"/>
      <point x="12" y="200"/>
      <point x="31" y="172"/>
    </contour>
  </outline>
</glyph>
<glyph name="eight" format="1">
  <advance width="590"/>
  <unicode hex="0038"/>
  <outline>
    <contour>
      <point x="59" y="150" type="curve" name="hr01" smooth="yes"/>
      <point x="59" y="54"/>
      <point x="147" y="-16"/>
      <point x="270" y="-16" type="curve" smooth="yes"/>
      <point x="395" y="-16"/>
      <point x="521" y="61"/>
      <point x="521" y="172" type="curve" smooth="yes"/>
      <point x="521" y="247"/>
      <point x="470" y="292"/>
      <point x="363" y="337" type="curve"/>
      <point x="432" y="375"/>
      <point x="497" y="442"/>
      <point x="497" y="521" type="curve" name="hr02" smooth="yes"/>
      <point x="497" y="606"/>
      <point x="400" y="672"/>
      <point x="312" y="672" type="curve" smooth="yes"/>
      <point x="210" y="672"/>
      <point x="79" y="586"/>
      <point x="79" y="490" type="curve" smooth="yes"/>
      <point x="79" y="403"/>
      <point x="139" y="359"/>
      <point x="210" y="325" type="curve"/>
      <point x="132" y="283"/>
      <point x="59" y="234"/>
    </contour>
    <contour>
      <point x="324" y="355" type="curve" name="hr04"/>
      <point x="248" y="391"/>
      <point x="161" y="440"/>
      <point x="161" y="513" type="curve" smooth="yes"/>
      <point x="161" y="578"/>
      <point x="204" y="611"/>
      <point x="265" y="611" type="curve" smooth="yes"/>
      <point x="353" y="611"/>
      <point x="416" y="556"/>
      <point x="416" y="490" type="curve" smooth="yes"/>
      <point x="416" y="422"/>
      <point x="372" y="388"/>
    </contour>
    <contour>
      <point x="144" y="180" type="curve" name="hr05" smooth="yes"/>
      <point x="144" y="251"/>
      <point x="189" y="278"/>
      <point x="250" y="306" type="curve"/>
      <point x="341" y="267"/>
      <point x="435" y="233"/>
      <point x="435" y="143" type="curve" smooth="yes"/>
      <point x="435" y="62"/>
      <point x="373" y="39"/>
      <point x="310" y="39" type="curve" smooth="yes"/>
      <point x="232" y="39"/>
      <point x="144" y="88"/>
    </contour>
  </outline>
</glyph>
<glyph name="nine" format="1">
  <advance width="586"/>
  <unicode hex="0039"/>
  <outline>
    <contour>
      <point x="131" y="-6" type="curve" name="hr00" smooth="yes"/>
      <point x="131" y="-12"/>
      <point x="137" y="-16"/>
      <point x="151" y="-16" type="curve" smooth="yes"/>
      <point x="162" y="-16" type="line"/>
      <point x="348" y="7"/>
      <point x="526" y="173"/>
      <point x="526" y="400" type="curve" smooth="yes"/>
      <point x="526" y="506"/>
      <point x="447" y="672"/>
      <point x="298" y="672" type="curve" smooth="yes"/>
      <point x="131" y="672"/>
      <point x="48" y="535"/>
      <point x="48" y="423" type="curve" smooth="yes"/>
      <point x="48" y="315"/>
      <point x="116" y="226"/>
      <point x="244" y="226" type="curve" smooth="yes"/>
      <point x="279" y="226"/>
      <point x="356" y="251"/>
      <point x="400" y="294" type="curve"/>
      <point x="402" y="298"/>
      <point x="403" y="300"/>
      <point x="403" y="303" type="curve" smooth="yes"/>
      <point x="403" y="302"/>
      <point x="402" y="325"/>
      <point x="383" y="325" type="curve" smooth="yes"/>
      <point x="382" y="325"/>
      <point x="380" y="324"/>
      <point x="378" y="323" type="curve" smooth="yes"/>
      <point x="356" y="307"/>
      <point x="322" y="288"/>
      <point x="273" y="288" type="curve" smooth="yes"/>
      <point x="193" y="288"/>
      <point x="141" y="344"/>
      <point x="141" y="461" type="curve" smooth="yes"/>
      <point x="141" y="553"/>
      <point x="173" y="616"/>
      <point x="254" y="616" type="curve" smooth="yes"/>
      <point x="386" y="616"/>
      <point x="432" y="451"/>
      <point x="432" y="363" type="curve" smooth="yes"/>
      <point x="432" y="224"/>
      <point x="413" y="159"/>
      <point x="318" y="92" type="curve"/>
      <point x="277" y="68"/>
      <point x="229" y="68"/>
      <point x="180" y="58" type="curve"/>
      <point x="160" y="50"/>
      <point x="131" y="18"/>
    </contour>
  </outline>
</glyph>
<glyph name="less" format="1">
  <advance width="566"/>
  <unicode hex="003C"/>
  <outline>
    <contour>
      <point x="95" y="224" type="curve" name="hr00"/>
      <point x="451" y="37" type="line"/>
      <point x="459" y="37"/>
      <point x="482" y="49"/>
      <point x="482" y="70" type="curve" smooth="yes"/>
      <point x="482" y="106"/>
      <point x="251" y="219"/>
      <point x="153" y="283" type="curve"/>
      <point x="248" y="345"/>
      <point x="482" y="475"/>
      <point x="482" y="496" type="curve" smooth="yes"/>
      <point x="482" y="515"/>
      <point x="457" y="528"/>
      <point x="451" y="528" type="curve"/>
      <point x="95" y="325" type="line"/>
      <point x="75" y="317"/>
      <point x="63" y="304"/>
      <point x="63" y="276" type="curve" smooth="yes"/>
      <point x="63" y="249"/>
      <point x="72" y="236"/>
    </contour>
  </outline>
</glyph>
<glyph name="greater" format="1">
  <advance width="566"/>
  <unicode hex="003E"/>
  <outline>
    <contour>
      <point x="63" y="70" type="curve" name="hr00" smooth="yes"/>
      <point x="63" y="50"/>
      <point x="85" y="37"/>
      <point x="91" y="37" type="curve"/>
      <point x="447" y="240" type="line"/>
      <point x="470" y="248"/>
      <point x="482" y="262"/>
      <point x="482" y="290" type="curve" smooth="yes"/>
      <point x="482" y="316"/>
      <point x="473" y="329"/>
      <point x="447" y="341" type="curve"/>
      <point x="91" y="528" type="line"/>
      <point x="84" y="528"/>
      <point x="63" y="516"/>
      <point x="63" y="496" type="curve" smooth="yes"/>
      <point x="63" y="458"/>
      <point x="289" y="346"/>
      <point x="389" y="283" type="curve"/>
      <point x="294" y="220"/>
      <point x="63" y="91"/>
    </contour>
  </outline>
</glyph>
<glyph name="question" format="1">
  <advance width="533"/>
  <unicode hex="003F"/>
  <outline>
    <contour>
      <point x="269" y="165" type="curve" name="hr00" smooth="yes"/>
      <point x="290" y="165"/>
      <point x="317" y="183"/>
      <point x="321" y="198" type="curve"/>
      <point x="319" y="217"/>
      <point x="309" y="254"/>
      <point x="309" y="282" type="curve" smooth="yes"/>
      <point x="309" y="294"/>
      <point x="311" y="304"/>
      <point x="316" y="311" type="curve"/>
      <point x="340" y="326" type="line"/>
      <point x="405" y="373"/>
      <point x="471" y="423"/>
      <point x="471" y="509" type="curve" smooth="yes"/>
      <point x="471" y="632"/>
      <point x="374" y="672"/>
      <point x="288" y="672" type="curve" smooth="yes"/>
      <point x="210" y="672"/>
      <point x="72" y="606"/>
      <point x="72" y="519" type="curve" smooth="yes"/>
      <point x="72" y="507"/>
      <point x="75" y="482"/>
      <point x="105" y="482" type="curve" smooth="yes"/>
      <point x="131" y="482"/>
      <point x="174" y="508"/>
      <point x="174" y="530" type="curve" smooth="yes"/>
      <point x="174" y="536"/>
      <point x="167" y="537"/>
      <point x="167" y="556" type="curve" smooth="yes"/>
      <point x="167" y="600"/>
      <point x="197" y="615"/>
      <point x="248" y="615" type="curve" smooth="yes"/>
      <point x="315" y="615"/>
      <point x="379" y="585"/>
      <point x="379" y="488" type="curve" smooth="yes"/>
      <point x="379" y="370"/>
      <point x="233" y="376"/>
      <point x="233" y="215" type="curve" smooth="yes"/>
      <point x="233" y="188"/>
      <point x="246" y="165"/>
    </contour>
    <contour>
      <point x="219" y="25" type="curve" smooth="yes"/>
      <point x="219" y="16"/>
      <point x="235" y="-16"/>
      <point x="296" y="-16" type="curve" smooth="yes"/>
      <point x="325" y="-16"/>
      <point x="356" y="18"/>
      <point x="356" y="42" type="curve" smooth="yes"/>
      <point x="356" y="61"/>
      <point x="340" y="89"/>
      <point x="275" y="89" type="curve" smooth="yes"/>
      <point x="247" y="89"/>
      <point x="219" y="48"/>
    </contour>
  </outline>
</glyph>
<glyph name="at" format="1">
  <advance width="1005"/>
  <unicode hex="0040"/>
  <outline>
    <contour>
      <point x="70" y="125" type="curve" name="hr00" smooth="yes"/>
      <point x="70" y="-121"/>
      <point x="260" y="-223"/>
      <point x="450" y="-223" type="curve" smooth="yes"/>
      <point x="599" y="-223"/>
      <point x="706" y="-182"/>
      <point x="771" y="-111" type="curve" smooth="yes"/>
      <point x="780" y="-101"/>
      <point x="782" y="-93"/>
      <point x="782" y="-88" type="curve" smooth="yes"/>
      <point x="782" y="-81"/>
      <point x="777" y="-76"/>
      <point x="769" y="-76" type="curve" smooth="yes"/>
      <point x="758" y="-76"/>
      <point x="738" y="-82"/>
      <point x="727" y="-93" type="curve" smooth="yes"/>
      <point x="678" y="-140"/>
      <point x="589" y="-173"/>
      <point x="461" y="-173" type="curve" smooth="yes"/>
      <point x="242" y="-173"/>
      <point x="147" y="-22"/>
      <point x="147" y="144" type="curve" smooth="yes"/>
      <point x="147" y="388"/>
      <point x="353" y="619"/>
      <point x="596" y="619" type="curve" smooth="yes"/>
      <point x="756" y="619"/>
      <point x="887" y="537"/>
      <point x="887" y="357" type="curve" smooth="yes"/>
      <point x="887" y="219"/>
      <point x="762" y="43"/>
      <point x="689" y="43" type="curve" smooth="yes"/>
      <point x="655" y="43"/>
      <point x="642" y="56"/>
      <point x="642" y="82" type="curve" smooth="yes"/>
      <point x="642" y="134"/>
      <point x="709" y="311"/>
      <point x="758" y="433" type="curve" smooth="yes"/>
      <point x="759" y="437"/>
      <point x="759" y="440"/>
      <point x="759" y="444" type="curve" smooth="yes"/>
      <point x="759" y="452"/>
      <point x="756" y="458"/>
      <point x="746" y="458" type="curve" smooth="yes"/>
      <point x="731" y="458"/>
      <point x="701" y="448"/>
      <point x="679" y="435" type="curve"/>
      <point x="656" y="451"/>
      <point x="626" y="458"/>
      <point x="596" y="458" type="curve" smooth="yes"/>
      <point x="456" y="458"/>
      <point x="279" y="319"/>
      <point x="279" y="133" type="curve" smooth="yes"/>
      <point x="279" y="38"/>
      <point x="339" y="-16"/>
      <point x="400" y="-16" type="curve" smooth="yes"/>
      <point x="460" y="-16"/>
      <point x="509" y="14"/>
      <point x="550" y="57" type="curve"/>
      <point x="554" y="7"/>
      <point x="580" y="-16"/>
      <point x="620" y="-16" type="curve" smooth="yes"/>
      <point x="657" y="-16"/>
      <point x="723" y="8"/>
      <point x="754" y="29" type="curve" smooth="yes"/>
      <point x="872" y="111"/>
      <point x="958" y="188"/>
      <point x="958" y="384" type="curve" smooth="yes"/>
      <point x="958" y="541"/>
      <point x="838" y="675"/>
      <point x="651" y="675" type="curve" smooth="yes"/>
      <point x="364" y="675"/>
      <point x="70" y="423"/>
    </contour>
    <contour>
      <point x="378" y="160" type="curve" smooth="yes"/>
      <point x="378" y="254"/>
      <point x="465" y="409"/>
      <point x="557" y="409" type="curve" smooth="yes"/>
      <point x="589" y="409"/>
      <point x="620" y="395"/>
      <point x="637" y="363" type="curve"/>
      <point x="604" y="276"/>
      <point x="566" y="185"/>
      <point x="555" y="114" type="curve"/>
      <point x="523" y="75"/>
      <point x="486" y="43"/>
      <point x="443" y="43" type="curve" smooth="yes"/>
      <point x="398" y="43"/>
      <point x="378" y="93"/>
    </contour>
  </outline>
</glyph>
<glyph name="E" format="1">
  <advance width="536"/>
  <unicode hex="0045"/>
  <outline>
    <contour>
      <point x="48" y="24" type="curve" name="hr00" smooth="yes"/>
      <point x="48" y="16"/>
      <point x="51" y="0"/>
      <point x="67" y="0" type="curve" smooth="yes"/>
      <point x="498" y="0" type="line" smooth="yes"/>
      <point x="503" y="0"/>
      <point x="510" y="71"/>
      <point x="510" y="119" type="curve" smooth="yes"/>
      <point x="510" y="173"/>
      <point x="502" y="186"/>
      <point x="468" y="186" type="curve" smooth="yes"/>
      <point x="461" y="186"/>
      <point x="437" y="80"/>
      <point x="409" y="63" type="curve" smooth="yes"/>
      <point x="392" y="53"/>
      <point x="343" y="49"/>
      <point x="289" y="49" type="curve" smooth="yes"/>
      <point x="259" y="49"/>
      <point x="221" y="50"/>
      <point x="201" y="50" type="curve"/>
      <point x="201" y="319" type="line"/>
      <point x="355" y="305" type="line"/>
      <point x="376" y="307"/>
      <point x="393" y="350"/>
      <point x="393" y="367" type="curve" smooth="yes"/>
      <point x="393" y="372"/>
      <point x="389" y="377"/>
      <point x="376" y="378" type="curve"/>
      <point x="201" y="374" type="line"/>
      <point x="201" y="613" type="line"/>
      <point x="354" y="613" type="line" smooth="yes"/>
      <point x="421" y="613"/>
      <point x="401" y="528"/>
      <point x="440" y="528" type="curve" smooth="yes"/>
      <point x="460" y="528"/>
      <point x="476" y="596"/>
      <point x="476" y="628" type="curve" smooth="yes"/>
      <point x="476" y="656"/>
      <point x="456" y="658"/>
      <point x="412" y="658" type="curve" smooth="yes"/>
      <point x="67" y="658" type="line" smooth="yes"/>
      <point x="51" y="658"/>
      <point x="48" y="642"/>
      <point x="48" y="634" type="curve" smooth="yes"/>
      <point x="48" y="618"/>
      <point x="98" y="610"/>
      <point x="112" y="603" type="curve"/>
      <point x="112" y="55" type="line"/>
      <point x="98" y="48"/>
      <point x="48" y="39"/>
    </contour>
  </outline>
</glyph>
<glyph name="F" format="1">
  <advance width="500"/>
  <unicode hex="0046"/>
  <outline>
    <contour>
      <point x="48" y="24" type="curve" name="hr00" smooth="yes"/>
      <point x="48" y="16"/>
      <point x="51" y="0"/>
      <point x="67" y="0" type="curve" smooth="yes"/>
      <point x="299" y="0" type="line" smooth="yes"/>
      <point x="314" y="0"/>
      <point x="319" y="18"/>
      <point x="319" y="24" type="curve" smooth="yes"/>
      <point x="319" y="50"/>
      <point x="232" y="50"/>
      <point x="201" y="57" type="curve"/>
      <point x="201" y="303" type="line"/>
      <point x="374" y="294" type="line"/>
      <point x="392" y="296"/>
      <point x="409" y="336"/>
      <point x="409" y="352" type="curve" smooth="yes"/>
      <point x="409" y="358"/>
      <point x="405" y="363"/>
      <point x="392" y="364" type="curve"/>
      <point x="201" y="357" type="line"/>
      <point x="201" y="613" type="line"/>
      <point x="354" y="613" type="line" smooth="yes"/>
      <point x="413" y="613"/>
      <point x="403" y="488"/>
      <point x="440" y="488" type="curve" smooth="yes"/>
      <point x="460" y="488"/>
      <point x="476" y="596"/>
      <point x="476" y="628" type="curve" smooth="yes"/>
      <point x="476" y="656"/>
      <point x="433" y="658"/>
      <point x="389" y="658" type="curve" smooth="yes"/>
      <point x="67" y="658" type="line" smooth="yes"/>
      <point x="51" y="658"/>
      <point x="48" y="642"/>
      <point x="48" y="634" type="curve" smooth="yes"/>
      <point x="48" y="618"/>
      <point x="98" y="610"/>
      <point x="112" y="603" type="curve"/>
      <point x="112" y="55" type="line"/>
      <point x="98" y="48"/>
      <point x="48" y="39"/>
    </contour>
  </outline>
</glyph>
<glyph name="G" format="1">
  <advance width="646"/>
  <unicode hex="0047"/>
  <outline>
    <contour>
      <point x="35" y="314" type="curve" name="hr01" smooth="yes"/>
      <point x="35" y="97"/>
      <point x="187" y="-16"/>
      <point x="327" y="-16" type="curve" smooth="yes"/>
      <point x="406" y="-16"/>
      <point x="536" y="7"/>
      <point x="590" y="71" type="curve"/>
      <point x="601" y="80"/>
      <point x="601" y="91"/>
      <point x="601" y="97" type="curve" smooth="yes"/>
      <point x="601" y="311" type="line"/>
      <point x="437" y="311" type="line" smooth="yes"/>
      <point x="393" y="311"/>
      <point x="365" y="300"/>
      <point x="365" y="265" type="curve" smooth="yes"/>
      <point x="365" y="258"/>
      <point x="372" y="252"/>
      <point x="409" y="252" type="curve" smooth="yes"/>
      <point x="512" y="252" type="line"/>
      <point x="512" y="103" type="line" smooth="yes"/>
      <point x="512" y="37"/>
      <point x="403" y="41"/>
      <point x="377" y="41" type="curve" smooth="yes"/>
      <point x="233" y="41"/>
      <point x="130" y="160"/>
      <point x="130" y="341" type="curve" smooth="yes"/>
      <point x="130" y="483"/>
      <point x="188" y="616"/>
      <point x="352" y="616" type="curve" smooth="yes"/>
      <point x="417" y="616"/>
      <point x="493" y="592"/>
      <point x="504" y="561" type="curve" name="hr02"/>
      <point x="504" y="561"/>
      <point x="533" y="487"/>
      <point x="545" y="487" type="curve" smooth="yes"/>
      <point x="553" y="487"/>
      <point x="580" y="492"/>
      <point x="580" y="504" type="curve" smooth="yes"/>
      <point x="580" y="596" type="line"/>
      <point x="576" y="627"/>
      <point x="486" y="672"/>
      <point x="398" y="672" type="curve" smooth="yes"/>
      <point x="191" y="672"/>
      <point x="35" y="534"/>
    </contour>
  </outline>
</glyph>
<glyph name="H" format="1">
  <advance width="718"/>
  <unicode hex="0048"/>
  <outline>
    <contour>
      <point x="48" y="24" type="curve" name="hr00" smooth="yes"/>
      <point x="48" y="16"/>
      <point x="51" y="0"/>
      <point x="67" y="0" type="curve" smooth="yes"/>
      <point x="239" y="0" type="line" smooth="yes"/>
      <point x="263" y="0"/>
      <point x="273" y="16"/>
      <point x="273" y="22" type="curve" smooth="yes"/>
      <point x="273" y="56"/>
      <point x="202" y="33"/>
      <point x="202" y="74" type="curve" smooth="yes"/>
      <point x="202" y="311" type="line"/>
      <point x="507" y="311" type="line" smooth="yes"/>
      <point x="509" y="311"/>
      <point x="513" y="312"/>
      <point x="516" y="313" type="curve"/>
      <point x="516" y="55" type="line"/>
      <point x="502" y="48"/>
      <point x="452" y="39"/>
      <point x="452" y="24" type="curve" smooth="yes"/>
      <point x="452" y="16"/>
      <point x="455" y="0"/>
      <point x="471" y="0" type="curve" smooth="yes"/>
      <point x="643" y="0" type="line" smooth="yes"/>
      <point x="667" y="0"/>
      <point x="677" y="16"/>
      <point x="677" y="22" type="curve" smooth="yes"/>
      <point x="677" y="56"/>
      <point x="606" y="33"/>
      <point x="606" y="74" type="curve" smooth="yes"/>
      <point x="606" y="584" type="line" smooth="yes"/>
      <point x="606" y="625"/>
      <point x="677" y="602"/>
      <point x="677" y="636" type="curve" smooth="yes"/>
      <point x="677" y="642"/>
      <point x="667" y="658"/>
      <point x="643" y="658" type="curve" smooth="yes"/>
      <point x="471" y="658" type="line" smooth="yes"/>
      <point x="455" y="658"/>
      <point x="452" y="642"/>
      <point x="452" y="634" type="curve" smooth="yes"/>
      <point x="452" y="618"/>
      <point x="502" y="610"/>
      <point x="516" y="603" type="curve"/>
      <point x="516" y="365" type="line"/>
      <point x="202" y="365" type="line"/>
      <point x="202" y="588" type="line"/>
      <point x="205" y="621"/>
      <point x="273" y="604"/>
      <point x="273" y="636" type="curve" smooth="yes"/>
      <point x="273" y="642"/>
      <point x="263" y="658"/>
      <point x="239" y="658" type="curve" smooth="yes"/>
      <point x="67" y="658" type="line" smooth="yes"/>
      <point x="51" y="658"/>
      <point x="48" y="642"/>
      <point x="48" y="634" type="curve" smooth="yes"/>
      <point x="48" y="618"/>
      <point x="98" y="610"/>
      <point x="112" y="603" type="curve"/>
      <point x="112" y="55" type="line"/>
      <point x="98" y="48"/>
      <point x="48" y="39"/>
    </contour>
  </outline>
</glyph>
<glyph name="I" format="1">
  <advance width="314"/>
  <unicode hex="0049"/>
  <outline>
    <contour>
      <point x="48" y="24" type="curve" name="hr00" smooth="yes"/>
      <point x="48" y="16"/>
      <point x="51" y="0"/>
      <point x="67" y="0" type="curve" smooth="yes"/>
      <point x="239" y="0" type="line" smooth="yes"/>
      <point x="263" y="0"/>
      <point x="273" y="16"/>
      <point x="273" y="22" type="curve" smooth="yes"/>
      <point x="273" y="54"/>
      <point x="205" y="35"/>
      <point x="202" y="70" type="curve"/>
      <point x="202" y="588" type="line"/>
      <point x="205" y="621"/>
      <point x="273" y="604"/>
      <point x="273" y="636" type="curve" smooth="yes"/>
      <point x="273" y="642"/>
      <point x="263" y="658"/>
      <point x="239" y="658" type="curve" smooth="yes"/>
      <point x="67" y="658" type="line" smooth="yes"/>
      <point x="51" y="658"/>
      <point x="48" y="642"/>
      <point x="48" y="634" type="curve" smooth="yes"/>
      <point x="48" y="618"/>
      <point x="98" y="610"/>
      <point x="112" y="603" type="curve"/>
      <point x="112" y="55" type="line"/>
      <point x="98" y="48"/>
      <point x="48" y="39"/>
    </contour>
  </outline>
</glyph>
<glyph name="K" format="1">
  <advance width="653"/>
  <unicode hex="004B"/>
  <outline>
    <contour>
      <point x="48" y="24" type="curve" name="hr01" smooth="yes"/>
      <point x="48" y="16"/>
      <point x="51" y="0"/>
      <point x="67" y="0" type="curve" smooth="yes"/>
      <point x="234" y="0" type="line" smooth="yes"/>
      <point x="258" y="0"/>
      <point x="268" y="16"/>
      <point x="268" y="22" type="curve" smooth="yes"/>
      <point x="268" y="56"/>
      <point x="197" y="33"/>
      <point x="197" y="74" type="curve" smooth="yes"/>
      <point x="197" y="222" type="line"/>
      <point x="299" y="341" type="line"/>
      <point x="468" y="55" type="line"/>
      <point x="454" y="48"/>
      <point x="404" y="39"/>
      <point x="404" y="24" type="curve" smooth="yes"/>
      <point x="404" y="16"/>
      <point x="407" y="0"/>
      <point x="423" y="0" type="curve" smooth="yes"/>
      <point x="611" y="0" type="line" smooth="yes"/>
      <point x="635" y="0"/>
      <point x="645" y="16"/>
      <point x="645" y="22" type="curve" smooth="yes"/>
      <point x="645" y="35"/>
      <point x="638" y="38"/>
      <point x="626" y="41" type="curve" smooth="yes"/>
      <point x="596" y="49"/>
      <point x="572" y="57"/>
      <point x="565" y="67" type="curve" smooth="yes"/>
      <point x="354" y="405" type="line"/>
      <point x="516" y="593" type="line" name="hr02" smooth="yes"/>
      <point x="527" y="606"/>
      <point x="600" y="613"/>
      <point x="600" y="636" type="curve" smooth="yes"/>
      <point x="600" y="642"/>
      <point x="590" y="658"/>
      <point x="566" y="658" type="curve" smooth="yes"/>
      <point x="391" y="658" type="line" smooth="yes"/>
      <point x="375" y="658"/>
      <point x="372" y="642"/>
      <point x="372" y="634" type="curve" smooth="yes"/>
      <point x="372" y="619"/>
      <point x="424" y="607"/>
      <point x="436" y="603" type="curve"/>
      <point x="197" y="293" type="line"/>
      <point x="197" y="588" type="line" name="hr03"/>
      <point x="200" y="621"/>
      <point x="268" y="604"/>
      <point x="268" y="636" type="curve" smooth="yes"/>
      <point x="268" y="642"/>
      <point x="258" y="658"/>
      <point x="234" y="658" type="curve" smooth="yes"/>
      <point x="67" y="658" type="line" smooth="yes"/>
      <point x="51" y="658"/>
      <point x="48" y="642"/>
      <point x="48" y="634" type="curve" smooth="yes"/>
      <point x="48" y="618"/>
      <point x="98" y="610"/>
      <point x="112" y="603" type="curve"/>
      <point x="112" y="55" type="line"/>
      <point x="98" y="48"/>
      <point x="48" y="39"/>
    </contour>
  </outline>
</glyph>
<glyph name="P" format="1">
  <advance width="550"/>
  <unicode hex="0050"/>
  <outline>
    <contour>
      <point x="48" y="24" type="curve" name="hr00" smooth="yes"/>
      <point x="48" y="16"/>
      <point x="51" y="0"/>
      <point x="67" y="0" type="curve" smooth="yes"/>
      <point x="249" y="0" type="line" smooth="yes"/>
      <point x="273" y="0"/>
      <point x="283" y="16"/>
      <point x="283" y="22" type="curve" smooth="yes"/>
      <point x="283" y="57"/>
      <point x="200" y="33"/>
      <point x="200" y="74" type="curve" smooth="yes"/>
      <point x="200" y="229" type="line"/>
      <point x="218" y="228"/>
      <point x="236" y="228"/>
      <point x="243" y="228" type="curve" smooth="yes"/>
      <point x="415" y="228"/>
      <point x="530" y="304"/>
      <point x="530" y="480" type="curve" smooth="yes"/>
      <point x="530" y="613"/>
      <point x="431" y="668"/>
      <point x="336" y="668" type="curve" smooth="yes"/>
      <point x="262" y="668"/>
      <point x="234" y="658"/>
      <point x="156" y="658" type="curve" smooth="yes"/>
      <point x="67" y="658" type="line" smooth="yes"/>
      <point x="51" y="658"/>
      <point x="48" y="642"/>
      <point x="48" y="634" type="curve" smooth="yes"/>
      <point x="48" y="618"/>
      <point x="98" y="610"/>
      <point x="112" y="603" type="curve"/>
      <point x="112" y="55" type="line"/>
      <point x="98" y="48"/>
      <point x="48" y="39"/>
    </contour>
    <contour>
      <point x="200" y="279" type="curve"/>
      <point x="200" y="609" type="line"/>
      <point x="220" y="611"/>
      <point x="241" y="612"/>
      <point x="260" y="612" type="curve" smooth="yes"/>
      <point x="377" y="612"/>
      <point x="440" y="580"/>
      <point x="440" y="471" type="curve" smooth="yes"/>
      <point x="440" y="336"/>
      <point x="370" y="274"/>
      <point x="257" y="274" type="curve" smooth="yes"/>
      <point x="235" y="274"/>
      <point x="217" y="277"/>
    </contour>
  </outline>
</glyph>
<glyph name="Q" format="1">
  <advance width="661"/>
  <unicode hex="0051"/>
  <outline>
    <contour>
      <point x="40" y="306" type="curve" name="hr01" smooth="yes"/>
      <point x="40" y="132"/>
      <point x="119" y="-16"/>
      <point x="314" y="-16" type="curve" name="hr02" smooth="yes"/>
      <point x="332" y="-16"/>
      <point x="349" y="-14"/>
      <point x="366" y="-12" type="curve" name="hr03"/>
      <point x="430" y="-94"/>
      <point x="508" y="-184"/>
      <point x="606" y="-184" type="curve" smooth="yes"/>
      <point x="631" y="-184"/>
      <point x="685" y="-131"/>
      <point x="685" y="-120" type="curve" smooth="yes"/>
      <point x="685" y="-108"/>
      <point x="680" y="-103"/>
      <point x="659" y="-103" type="curve" smooth="yes"/>
      <point x="583" y="-103"/>
      <point x="502" y="-61"/>
      <point x="416" y="0" type="curve" name="hr04"/>
      <point x="560" y="47"/>
      <point x="631" y="195"/>
      <point x="631" y="346" type="curve" smooth="yes"/>
      <point x="631" y="520"/>
      <point x="555" y="672"/>
      <point x="361" y="672" type="curve" smooth="yes"/>
      <point x="149" y="672"/>
      <point x="40" y="490"/>
    </contour>
    <contour>
      <point x="344" y="42" type="curve" name="hr06" smooth="yes"/>
      <point x="195" y="42"/>
      <point x="126" y="196"/>
      <point x="126" y="345" type="curve" smooth="yes"/>
      <point x="126" y="460"/>
      <point x="172" y="613"/>
      <point x="331" y="613" type="curve" smooth="yes"/>
      <point x="483" y="613"/>
      <point x="545" y="457"/>
      <point x="545" y="307" type="curve" smooth="yes"/>
      <point x="545" y="193"/>
      <point x="505" y="42"/>
    </contour>
    <contour>
      <point x="376" y="808" type="move" name="top"/>
    </contour>
  </outline>
</glyph>
<glyph name="S" format="1">
  <advance width="501"/>
  <unicode hex="0053"/>
  <outline>
    <contour>
      <point x="58" y="33" type="curve" name="hr01" smooth="yes"/>
      <point x="87" y="8"/>
      <point x="181" y="-16"/>
      <point x="237" y="-16" type="curve" smooth="yes"/>
      <point x="357" y="-16"/>
      <point x="472" y="69"/>
      <point x="472" y="179" type="curve" smooth="yes"/>
      <point x="472" y="424"/>
      <point x="131" y="340"/>
      <point x="131" y="520" type="curve" smooth="yes"/>
      <point x="131" y="581"/>
      <point x="186" y="614"/>
      <point x="244" y="614" type="curve" smooth="yes"/>
      <point x="318" y="614"/>
      <point x="365" y="590"/>
      <point x="387" y="553" type="curve" name="hr02"/>
      <point x="387" y="553"/>
      <point x="401" y="483"/>
      <point x="417" y="483" type="curve" smooth="yes"/>
      <point x="444" y="483"/>
      <point x="440" y="563"/>
      <point x="440" y="593" type="curve" smooth="yes"/>
      <point x="440" y="633"/>
      <point x="357" y="672"/>
      <point x="290" y="672" type="curve" smooth="yes"/>
      <point x="169" y="672"/>
      <point x="60" y="600"/>
      <point x="60" y="490" type="curve" smooth="yes"/>
      <point x="60" y="240"/>
      <point x="397" y="347"/>
      <point x="397" y="142" type="curve" name="hr03" smooth="yes"/>
      <point x="397" y="91"/>
      <point x="338" y="45"/>
      <point x="280" y="45" type="curve" smooth="yes"/>
      <point x="177" y="45"/>
      <point x="120" y="76"/>
      <point x="109" y="112" type="curve"/>
      <point x="109" y="112"/>
      <point x="94" y="188"/>
      <point x="78" y="188" type="curve" smooth="yes"/>
      <point x="69" y="188"/>
      <point x="59" y="183"/>
      <point x="59" y="171" type="curve" smooth="yes"/>
      <point x="58" y="136"/>
      <point x="54" y="52"/>
      <point x="54" y="48" type="curve" smooth="yes"/>
      <point x="54" y="39"/>
      <point x="56" y="34"/>
    </contour>
  </outline>
</glyph>
<glyph name="U" format="1">
  <advance width="628"/>
  <unicode hex="0055"/>
  <outline>
    <contour>
      <point x="76" y="254" type="line" name="hr01" smooth="yes"/>
      <point x="76" y="73"/>
      <point x="153" y="-16"/>
      <point x="308" y="-16" type="curve" smooth="yes"/>
      <point x="506" y="-16"/>
      <point x="555" y="134"/>
      <point x="555" y="287" type="curve" smooth="yes"/>
      <point x="555" y="584" type="line" name="hr02" smooth="yes"/>
      <point x="555" y="625"/>
      <point x="616" y="604"/>
      <point x="616" y="636" type="curve" smooth="yes"/>
      <point x="616" y="642"/>
      <point x="606" y="658"/>
      <point x="582" y="658" type="curve" smooth="yes"/>
      <point x="440" y="658" type="line" smooth="yes"/>
      <point x="423" y="658"/>
      <point x="421" y="642"/>
      <point x="421" y="634" type="curve" smooth="yes"/>
      <point x="421" y="618"/>
      <point x="471" y="610"/>
      <point x="485" y="603" type="curve"/>
      <point x="485" y="315" type="line" smooth="yes"/>
      <point x="485" y="68"/>
      <point x="435" y="42"/>
      <point x="335" y="42" type="curve" smooth="yes"/>
      <point x="199" y="42"/>
      <point x="169" y="113"/>
      <point x="169" y="305" type="curve" smooth="yes"/>
      <point x="169" y="584" type="line" name="hr03" smooth="yes"/>
      <point x="169" y="625"/>
      <point x="246" y="601"/>
      <point x="246" y="636" type="curve" smooth="yes"/>
      <point x="246" y="642"/>
      <point x="236" y="658"/>
      <point x="212" y="658" type="curve" smooth="yes"/>
      <point x="51" y="658" type="line" smooth="yes"/>
      <point x="35" y="658"/>
      <point x="32" y="642"/>
      <point x="32" y="634" type="curve" smooth="yes"/>
      <point x="32" y="622"/>
      <point x="67" y="611"/>
      <point x="76" y="603" type="curve"/>
    </contour>
  </outline>
</glyph>
<glyph name="V" format="1">
  <advance width="594"/>
  <unicode hex="0056"/>
  <outline>
    <contour>
      <point x="275" y="-10" type="line" name="hr00"/>
      <point x="316" y="-10" type="line"/>
      <point x="552" y="593" type="line"/>
      <point x="562" y="611"/>
      <point x="571" y="610"/>
      <point x="598" y="617" type="curve" smooth="yes"/>
      <point x="610" y="620"/>
      <point x="617" y="623"/>
      <point x="617" y="636" type="curve" smooth="yes"/>
      <point x="617" y="642"/>
      <point x="611" y="658"/>
      <point x="587" y="658" type="curve" smooth="yes"/>
      <point x="431" y="658" type="line" smooth="yes"/>
      <point x="415" y="658"/>
      <point x="412" y="642"/>
      <point x="412" y="634" type="curve" smooth="yes"/>
      <point x="412" y="616"/>
      <point x="467" y="611"/>
      <point x="485" y="603" type="curve"/>
      <point x="312" y="114" type="line"/>
      <point x="125" y="604" type="line"/>
      <point x="140" y="613"/>
      <point x="195" y="610"/>
      <point x="195" y="636" type="curve" smooth="yes"/>
      <point x="195" y="642"/>
      <point x="185" y="658"/>
      <point x="161" y="658" type="curve" smooth="yes"/>
      <point x="-5" y="658" type="line" smooth="yes"/>
      <point x="-21" y="658"/>
      <point x="-24" y="642"/>
      <point x="-24" y="634" type="curve" smooth="yes"/>
      <point x="-24" y="621"/>
      <point x="18" y="610"/>
      <point x="29" y="604" type="curve"/>
    </contour>
  </outline>
</glyph>
<glyph name="X" format="1">
  <advance width="609"/>
  <unicode hex="0058"/>
  <outline>
    <contour>
      <point x="13" y="24" type="curve" name="hr00" smooth="yes"/>
      <point x="13" y="16"/>
      <point x="16" y="0"/>
      <point x="32" y="0" type="curve" smooth="yes"/>
      <point x="197" y="0" type="line" smooth="yes"/>
      <point x="221" y="0"/>
      <point x="231" y="16"/>
      <point x="231" y="22" type="curve" smooth="yes"/>
      <point x="231" y="54"/>
      <point x="162" y="34"/>
      <point x="161" y="71" type="curve"/>
      <point x="294" y="288" type="line"/>
      <point x="442" y="54" type="line"/>
      <point x="426" y="47"/>
      <point x="376" y="41"/>
      <point x="376" y="24" type="curve" smooth="yes"/>
      <point x="376" y="16"/>
      <point x="379" y="0"/>
      <point x="395" y="0" type="curve" smooth="yes"/>
      <point x="577" y="0" type="line" smooth="yes"/>
      <point x="601" y="0"/>
      <point x="611" y="16"/>
      <point x="611" y="22" type="curve" smooth="yes"/>
      <point x="611" y="45"/>
      <point x="558" y="46"/>
      <point x="541" y="63" type="curve"/>
      <point x="348" y="340" type="line"/>
      <point x="525" y="586" type="line" smooth="yes"/>
      <point x="545" y="614"/>
      <point x="551" y="609"/>
      <point x="581" y="617" type="curve" smooth="yes"/>
      <point x="593" y="620"/>
      <point x="600" y="623"/>
      <point x="600" y="636" type="curve" smooth="yes"/>
      <point x="600" y="642"/>
      <point x="594" y="658"/>
      <point x="570" y="658" type="curve" smooth="yes"/>
      <point x="414" y="658" type="line" smooth="yes"/>
      <point x="398" y="658"/>
      <point x="395" y="642"/>
      <point x="395" y="634" type="curve" smooth="yes"/>
      <point x="395" y="616"/>
      <point x="446" y="613"/>
      <point x="460" y="606" type="curve"/>
      <point x="316" y="382" type="line"/>
      <point x="176" y="607" type="line"/>
      <point x="195" y="613"/>
      <point x="242" y="612"/>
      <point x="242" y="636" type="curve" smooth="yes"/>
      <point x="242" y="642"/>
      <point x="232" y="658"/>
      <point x="208" y="658" type="curve" smooth="yes"/>
      <point x="32" y="658" type="line" smooth="yes"/>
      <point x="16" y="658"/>
      <point x="13" y="642"/>
      <point x="13" y="634" type="curve" smooth="yes"/>
      <point x="13" y="619"/>
      <point x="61" y="609"/>
      <point x="74" y="603" type="curve"/>
      <point x="263" y="328" type="line"/>
      <point x="75" y="55" type="line"/>
      <point x="62" y="48"/>
      <point x="13" y="39"/>
    </contour>
  </outline>
</glyph>
<glyph name="Z" format="1">
  <advance width="564"/>
  <unicode hex="005A"/>
  <outline>
    <contour>
      <point x="35" y="46" type="curve" name="hr00" smooth="yes"/>
      <point x="35" y="38"/>
      <point x="50" y="0"/>
      <point x="72" y="0" type="curve" smooth="yes"/>
      <point x="509" y="0" type="line"/>
      <point x="520" y="3"/>
      <point x="535" y="145"/>
      <point x="535" y="173" type="curve" smooth="yes"/>
      <point x="535" y="185"/>
      <point x="514" y="190"/>
      <point x="506" y="190" type="curve" smooth="yes"/>
      <point x="489" y="190"/>
      <point x="468" y="104"/>
      <point x="436" y="70" type="curve" smooth="yes"/>
      <point x="410" y="43"/>
      <point x="238" y="46"/>
      <point x="122" y="46" type="curve"/>
      <point x="189" y="130" type="line"/>
      <point x="504" y="589" type="line" smooth="yes"/>
      <point x="508" y="594"/>
      <point x="509" y="601"/>
      <point x="509" y="608" type="curve" smooth="yes"/>
      <point x="509" y="631"/>
      <point x="489" y="658"/>
      <point x="481" y="658" type="curve" smooth="yes"/>
      <point x="101" y="658" type="line"/>
      <point x="93" y="654"/>
      <point x="94" y="642"/>
      <point x="94" y="628" type="curve" smooth="yes"/>
      <point x="94" y="580"/>
      <point x="78" y="526"/>
      <point x="78" y="500" type="curve" smooth="yes"/>
      <point x="78" y="492"/>
      <point x="93" y="483"/>
      <point x="107" y="483" type="curve" smooth="yes"/>
      <point x="131" y="483"/>
      <point x="152" y="562"/>
      <point x="155" y="577" type="curve"/>
      <point x="169" y="600"/>
      <point x="245" y="614"/>
      <point x="420" y="614" type="curve"/>
      <point x="378" y="564" type="line"/>
      <point x="64" y="110" type="line"/>
      <point x="41" y="79"/>
      <point x="35" y="64"/>
    </contour>
  </outline>
</glyph>
<glyph name="bracketleft" format="1">
  <advance width="416"/>
  <unicode hex="005B"/>
  <outline>
    <contour>
      <point x="94" y="-161" type="line" name="hr00"/>
      <point x="272" y="-161" type="line" smooth="yes"/>
      <point x="290" y="-161"/>
      <point x="292" y="-156"/>
      <point x="292" y="-148" type="curve" smooth="yes"/>
      <point x="292" y="-135"/>
      <point x="279" y="-126"/>
      <point x="184" y="-117" type="curve"/>
      <point x="184" y="615" type="line"/>
      <point x="265" y="615"/>
      <point x="280" y="620"/>
      <point x="280" y="645" type="curve" smooth="yes"/>
      <point x="280" y="653"/>
      <point x="276" y="658"/>
      <point x="217" y="658" type="curve" smooth="yes"/>
      <point x="94" y="658" type="line"/>
    </contour>
  </outline>
</glyph>
<glyph name="backslash" format="1">
  <advance width="429"/>
  <unicode hex="005C"/>
  <outline>
    <contour>
      <point x="324" y="-119" type="line" name="hr00"/>
      <point x="334" y="-135"/>
      <point x="367" y="-150"/>
      <point x="387" y="-150" type="curve" smooth="yes"/>
      <point x="398" y="-150"/>
      <point x="401" y="-147"/>
      <point x="401" y="-136" type="curve" smooth="yes"/>
      <point x="401" y="-132"/>
      <point x="401" y="-127"/>
      <point x="400" y="-120" type="curve"/>
      <point x="98" y="694" type="line"/>
      <point x="89" y="708"/>
      <point x="66" y="719"/>
      <point x="46" y="719" type="curve" smooth="yes"/>
      <point x="35" y="719"/>
      <point x="27" y="715"/>
      <point x="27" y="703" type="curve" smooth="yes"/>
      <point x="27" y="698"/>
      <point x="29" y="692"/>
      <point x="32" y="685" type="curve" smooth="yes"/>
    </contour>
  </outline>
</glyph>
<glyph name="bracketright" format="1">
  <advance width="416"/>
  <unicode hex="005D"/>
  <outline>
    <contour>
      <point x="124" y="-148" type="curve" name="hr00" smooth="yes"/>
      <point x="124" y="-156"/>
      <point x="126" y="-161"/>
      <point x="142" y="-161" type="curve" smooth="yes"/>
      <point x="322" y="-161" type="line"/>
      <point x="322" y="658" type="line"/>
      <point x="199" y="658" type="line" smooth="yes"/>
      <point x="130" y="658"/>
      <point x="134" y="652"/>
      <point x="134" y="641" type="curve" smooth="yes"/>
      <point x="134" y="620"/>
      <point x="158" y="615"/>
      <point x="232" y="615" type="curve"/>
      <point x="232" y="-117" type="line"/>
      <point x="135" y="-126"/>
      <point x="124" y="-135"/>
    </contour>
  </outline>
</glyph>
<glyph name="asciicircum" format="1">
  <advance width="569"/>
  <unicode hex="005E"/>
  <outline>
    <contour>
      <point x="108" y="265" type="curve" name="hr00" smooth="yes"/>
      <point x="113" y="265"/>
      <point x="118" y="266"/>
      <point x="122" y="269" type="curve"/>
      <point x="151" y="302"/>
      <point x="242" y="478"/>
      <point x="285" y="577" type="curve"/>
      <point x="335" y="451"/>
      <point x="442" y="265"/>
      <point x="460" y="265" type="curve" smooth="yes"/>
      <point x="482" y="265"/>
      <point x="494" y="287"/>
      <point x="494" y="293" type="curve"/>
      <point x="342" y="635" type="line" smooth="yes"/>
      <point x="340" y="641"/>
      <point x="318" y="644"/>
      <point x="286" y="644" type="curve" smooth="yes"/>
      <point x="253" y="644"/>
      <point x="229" y="641"/>
      <point x="224" y="635" type="curve"/>
      <point x="76" y="293" type="line"/>
      <point x="76" y="287"/>
      <point x="88" y="265"/>
    </contour>
  </outline>
</glyph>
<glyph name="underscore" format="1">
  <advance width="660"/>
  <unicode hex="005F"/>
  <outline>
    <contour>
      <point x="0" y="-82" type="line" name="hr00" smooth="yes"/>
      <point x="-10" y="-82"/>
      <point x="-40" y="-100"/>
      <point x="-40" y="-119" type="curve" smooth="yes"/>
      <point x="-40" y="-134"/>
      <point x="-28" y="-142"/>
      <point x="-21" y="-142" type="curve" smooth="yes"/>
      <point x="631" y="-142" type="line" smooth="yes"/>
      <point x="650" y="-142"/>
      <point x="684" y="-132"/>
      <point x="684" y="-96" type="curve" smooth="yes"/>
      <point x="684" y="-89"/>
      <point x="672" y="-82"/>
      <point x="660" y="-82" type="curve" smooth="yes"/>
    </contour>
  </outline>
</glyph>
<glyph name="grave" format="1">
  <advance width="239"/>
  <unicode hex="0060"/>
  <outline>
    <contour>
      <point x="154" y="552" type="curve" name="hr00"/>
      <point x="158" y="550"/>
      <point x="162" y="549"/>
      <point x="166" y="549" type="curve" smooth="yes"/>
      <point x="184" y="549"/>
      <point x="201" y="566"/>
      <point x="201" y="572" type="curve" smooth="yes"/>
      <point x="201" y="572"/>
      <point x="201" y="573"/>
      <point x="201" y="573" type="curve"/>
      <point x="88" y="768" type="line" smooth="yes"/>
      <point x="86" y="772"/>
      <point x="82" y="773"/>
      <point x="78" y="773" type="curve" smooth="yes"/>
      <point x="57" y="773"/>
      <point x="18" y="725"/>
      <point x="18" y="712" type="curve" smooth="yes"/>
      <point x="18" y="711"/>
      <point x="18" y="710"/>
      <point x="18" y="710" type="curve"/>
      <point x="39" y="662"/>
      <point x="127" y="573"/>
    </contour>
  </outline>
</glyph>
<glyph name="a" format="1">
  <advance width="476"/>
  <unicode hex="0061"/>
  <outline>
    <contour>
      <point x="39" y="101" type="curve" name="hr01" smooth="yes"/>
      <point x="39" y="50"/>
      <point x="77" y="-16"/>
      <point x="177" y="-16" type="curve" smooth="yes"/>
      <point x="235" y="-16"/>
      <point x="274" y="15"/>
      <point x="309" y="57" type="curve"/>
      <point x="309" y="19" type="line" smooth="yes"/>
      <point x="309" y="-6"/>
      <point x="331" y="-16"/>
      <point x="356" y="-16" type="curve" smooth="yes"/>
      <point x="416" y="-16"/>
      <point x="462" y="27"/>
      <point x="462" y="37" type="curve" smooth="yes"/>
      <point x="462" y="46"/>
      <point x="459" y="52"/>
      <point x="444" y="52" type="curve" smooth="yes"/>
      <point x="428" y="52"/>
      <point x="412" y="43"/>
      <point x="397" y="43" type="curve"/>
      <point x="397" y="329" type="line" smooth="yes"/>
      <point x="397" y="401"/>
      <point x="377" y="477"/>
      <point x="264" y="477" type="curve" smooth="yes"/>
      <point x="197" y="477"/>
      <point x="53" y="409"/>
      <point x="53" y="346" type="curve" name="hr02" smooth="yes"/>
      <point x="53" y="333"/>
      <point x="56" y="309"/>
      <point x="86" y="309" type="curve" smooth="yes"/>
      <point x="112" y="309"/>
      <point x="151" y="333"/>
      <point x="151" y="355" type="curve" smooth="yes"/>
      <point x="151" y="361"/>
      <point x="144" y="362"/>
      <point x="144" y="381" type="curve" smooth="yes"/>
      <point x="144" y="415"/>
      <point x="148" y="420"/>
      <point x="219" y="420" type="curve" smooth="yes"/>
      <point x="245" y="420"/>
      <point x="276" y="416"/>
      <point x="292" y="389" type="curve" smooth="yes"/>
      <point x="307" y="362"/>
      <point x="309" y="329"/>
      <point x="309" y="297" type="curve" smooth="yes"/>
      <point x="309" y="275" type="line"/>
      <point x="174" y="265"/>
      <point x="39" y="220"/>
    </contour>
    <contour>
      <point x="133" y="134" type="curve" smooth="yes"/>
      <point x="133" y="211"/>
      <point x="234" y="225"/>
      <point x="309" y="229" type="curve"/>
      <point x="309" y="94" type="line"/>
      <point x="287" y="62"/>
      <point x="254" y="40"/>
      <point x="227" y="40" type="curve" smooth="yes"/>
      <point x="155" y="40"/>
      <point x="133" y="81"/>
    </contour>
  </outline>
</glyph>
<glyph name="c" format="1">
  <advance width="419"/>
  <unicode hex="0063"/>
  <outline>
    <contour>
      <point x="32" y="202" type="curve" name="hr00" smooth="yes"/>
      <point x="32" y="88"/>
      <point x="99" y="-16"/>
      <point x="241" y="-16" type="curve" smooth="yes"/>
      <point x="302" y="-16"/>
      <point x="396" y="29"/>
      <point x="396" y="68" type="curve" smooth="yes"/>
      <point x="396" y="74"/>
      <point x="390" y="82"/>
      <point x="373" y="82" type="curve" smooth="yes"/>
      <point x="324" y="82"/>
      <point x="319" y="42"/>
      <point x="266" y="42" type="curve" smooth="yes"/>
      <point x="164" y="42"/>
      <point x="124" y="144"/>
      <point x="124" y="240" type="curve" smooth="yes"/>
      <point x="124" y="343"/>
      <point x="154" y="426"/>
      <point x="234" y="426" type="curve" smooth="yes"/>
      <point x="274" y="426"/>
      <point x="290" y="412"/>
      <point x="297" y="351" type="curve" smooth="yes"/>
      <point x="299" y="327"/>
      <point x="308" y="322"/>
      <point x="320" y="322" type="curve"/>
      <point x="351" y="327"/>
      <point x="389" y="344"/>
      <point x="389" y="387" type="curve" smooth="yes"/>
      <point x="389" y="458"/>
      <point x="314" y="477"/>
      <point x="265" y="477" type="curve" smooth="yes"/>
      <point x="122" y="477"/>
      <point x="32" y="366"/>
    </contour>
  </outline>
</glyph>
<glyph name="d" format="1">
  <advance width="522"/>
  <unicode hex="0064"/>
  <outline>
    <contour>
      <point x="29" y="195" type="curve" name="hr01" smooth="yes"/>
      <point x="29" y="62"/>
      <point x="121" y="-16"/>
      <point x="220" y="-16" type="curve" smooth="yes"/>
      <point x="282" y="-16"/>
      <point x="324" y="7"/>
      <point x="361" y="45" type="curve"/>
      <point x="361" y="19" type="line" name="hr02" smooth="yes"/>
      <point x="361" y="-6"/>
      <point x="375" y="-16"/>
      <point x="401" y="-16" type="curve" smooth="yes"/>
      <point x="461" y="-16"/>
      <point x="499" y="25"/>
      <point x="499" y="35" type="curve" smooth="yes"/>
      <point x="499" y="44"/>
      <point x="496" y="50"/>
      <point x="484" y="50" type="curve" smooth="yes"/>
      <point x="468" y="50"/>
      <point x="453" y="43"/>
      <point x="440" y="43" type="curve"/>
      <point x="440" y="714" type="line"/>
      <point x="437" y="723"/>
      <point x="426" y="723"/>
      <point x="417" y="723" type="curve" smooth="yes"/>
      <point x="350" y="723"/>
      <point x="276" y="707"/>
      <point x="276" y="673" type="curve" smooth="yes"/>
      <point x="276" y="665"/>
      <point x="327" y="656"/>
      <point x="356" y="652" type="curve"/>
      <point x="356" y="558" type="line"/>
      <point x="361" y="466" type="line"/>
      <point x="338" y="473"/>
      <point x="311" y="477"/>
      <point x="283" y="477" type="curve" smooth="yes"/>
      <point x="110" y="477"/>
      <point x="29" y="326"/>
    </contour>
    <contour>
      <point x="264" y="39" type="curve" smooth="yes"/>
      <point x="172" y="39"/>
      <point x="126" y="120"/>
      <point x="126" y="237" type="curve" smooth="yes"/>
      <point x="126" y="353"/>
      <point x="159" y="419"/>
      <point x="248" y="419" type="curve" smooth="yes"/>
      <point x="275" y="419"/>
      <point x="332" y="415"/>
      <point x="356" y="381" type="curve"/>
      <point x="357" y="77" type="line"/>
      <point x="329" y="52"/>
      <point x="293" y="39"/>
    </contour>
  </outline>
</glyph>
<glyph name="e" format="1">
  <advance width="481"/>
  <unicode hex="0065"/>
  <outline>
    <contour>
      <point x="37" y="202" type="curve" name="hr00" smooth="yes"/>
      <point x="37" y="88"/>
      <point x="99" y="-16"/>
      <point x="241" y="-16" type="curve" smooth="yes"/>
      <point x="340" y="-16"/>
      <point x="426" y="30"/>
      <point x="426" y="66" type="curve" smooth="yes"/>
      <point x="426" y="72"/>
      <point x="422" y="77"/>
      <point x="412" y="77" type="curve" smooth="yes"/>
      <point x="380" y="77"/>
      <point x="365" y="42"/>
      <point x="266" y="42" type="curve" smooth="yes"/>
      <point x="174" y="42"/>
      <point x="134" y="131"/>
      <point x="129" y="221" type="curve"/>
      <point x="400" y="221" type="line" smooth="yes"/>
      <point x="418" y="221"/>
      <point x="440" y="220"/>
      <point x="440" y="240" type="curve" smooth="yes"/>
      <point x="437" y="343"/>
      <point x="417" y="477"/>
      <point x="265" y="477" type="curve" smooth="yes"/>
      <point x="125" y="477"/>
      <point x="37" y="356"/>
    </contour>
    <contour>
      <point x="129" y="266" type="line"/>
      <point x="134" y="356"/>
      <point x="167" y="423"/>
      <point x="234" y="423" type="curve" smooth="yes"/>
      <point x="325" y="423"/>
      <point x="339" y="356"/>
      <point x="341" y="273" type="curve"/>
    </contour>
  </outline>
</glyph>
<glyph name="f" format="1">
  <advance width="323"/>
  <unicode hex="0066"/>
  <outline>
    <contour>
      <point x="35" y="20" type="curve" name="hr00" smooth="yes"/>
      <point x="35" y="12"/>
      <point x="38" y="0"/>
      <point x="54" y="0" type="curve" smooth="yes"/>
      <point x="245" y="0" type="line" smooth="yes"/>
      <point x="269" y="0"/>
      <point x="279" y="6"/>
      <point x="279" y="22" type="curve" smooth="yes"/>
      <point x="279" y="58"/>
      <point x="186" y="35"/>
      <point x="183" y="72" type="curve"/>
      <point x="183" y="401" type="line"/>
      <point x="261" y="401" type="line"/>
      <point x="280" y="403"/>
      <point x="297" y="430"/>
      <point x="297" y="446" type="curve" smooth="yes"/>
      <point x="297" y="451"/>
      <point x="293" y="457"/>
      <point x="280" y="458" type="curve"/>
      <point x="183" y="458" type="line"/>
      <point x="183" y="526" type="line" smooth="yes"/>
      <point x="183" y="575"/>
      <point x="188" y="679"/>
      <point x="246" y="679" type="curve" smooth="yes"/>
      <point x="298" y="679"/>
      <point x="268" y="614"/>
      <point x="300" y="614" type="curve" smooth="yes"/>
      <point x="327" y="614"/>
      <point x="370" y="643"/>
      <point x="370" y="664" type="curve" smooth="yes"/>
      <point x="370" y="711"/>
      <point x="314" y="733"/>
      <point x="287" y="733" type="curve" smooth="yes"/>
      <point x="171" y="733"/>
      <point x="98" y="620"/>
      <point x="98" y="500" type="curve" smooth="yes"/>
      <point x="98" y="458" type="line"/>
      <point x="86" y="456"/>
      <point x="22" y="430"/>
      <point x="22" y="413" type="curve" smooth="yes"/>
      <point x="22" y="409"/>
      <point x="26" y="401"/>
      <point x="35" y="401" type="curve" smooth="yes"/>
      <point x="98" y="401" type="line"/>
      <point x="98" y="51" type="line"/>
      <point x="85" y="44"/>
      <point x="35" y="35"/>
    </contour>
  </outline>
</glyph>
<glyph name="l" format="1">
  <advance width="255"/>
  <unicode hex="006C"/>
  <outline>
    <contour>
      <point x="31" y="20" type="curve" name="hr00" smooth="yes"/>
      <point x="31" y="12"/>
      <point x="34" y="0"/>
      <point x="50" y="0" type="curve" smooth="yes"/>
      <point x="205" y="0" type="line" smooth="yes"/>
      <point x="229" y="0"/>
      <point x="239" y="6"/>
      <point x="239" y="22" type="curve" smooth="yes"/>
      <point x="239" y="56"/>
      <point x="168" y="33"/>
      <point x="168" y="74" type="curve" smooth="yes"/>
      <point x="168" y="714" type="line"/>
      <point x="165" y="720"/>
      <point x="156" y="723"/>
      <point x="145" y="723" type="curve" smooth="yes"/>
      <point x="103" y="723"/>
      <point x="31" y="716"/>
      <point x="31" y="680" type="curve" smooth="yes"/>
      <point x="31" y="672"/>
      <point x="55" y="663"/>
      <point x="84" y="659" type="curve"/>
      <point x="84" y="51" type="line"/>
      <point x="73" y="46"/>
      <point x="31" y="32"/>
    </contour>
  </outline>
</glyph>
<glyph name="p" format="1">
  <advance width="524"/>
  <unicode hex="0070"/>
  <outline>
    <contour>
      <point x="168" y="-5" type="line" name="hr01"/>
      <point x="189" y="-12"/>
      <point x="213" y="-16"/>
      <point x="238" y="-16" type="curve" name="hr02" smooth="yes"/>
      <point x="412" y="-16"/>
      <point x="495" y="131"/>
      <point x="495" y="266" type="curve" smooth="yes"/>
      <point x="495" y="400"/>
      <point x="403" y="477"/>
      <point x="305" y="477" type="curve" smooth="yes"/>
      <point x="239" y="477"/>
      <point x="199" y="452"/>
      <point x="164" y="412" type="curve"/>
      <point x="164" y="453" type="line"/>
      <point x="161" y="464"/>
      <point x="152" y="467"/>
      <point x="138" y="467" type="curve" smooth="yes"/>
      <point x="98" y="467"/>
      <point x="23" y="429"/>
      <point x="23" y="402" type="curve" smooth="yes"/>
      <point x="23" y="392"/>
      <point x="55" y="375"/>
      <point x="84" y="370" type="curve"/>
      <point x="84" y="-166" type="line"/>
      <point x="73" y="-171"/>
      <point x="31" y="-185"/>
      <point x="31" y="-197" type="curve" smooth="yes"/>
      <point x="31" y="-205"/>
      <point x="34" y="-217"/>
      <point x="50" y="-217" type="curve" smooth="yes"/>
      <point x="212" y="-217" type="line" smooth="yes"/>
      <point x="236" y="-217"/>
      <point x="246" y="-211"/>
      <point x="246" y="-195" type="curve" smooth="yes"/>
      <point x="246" y="-160"/>
      <point x="168" y="-184"/>
      <point x="168" y="-143" type="curve" smooth="yes"/>
    </contour>
    <contour>
      <point x="168" y="88" type="curve"/>
      <point x="168" y="374" type="line"/>
      <point x="194" y="406"/>
      <point x="225" y="421"/>
      <point x="261" y="421" type="curve" smooth="yes"/>
      <point x="349" y="421"/>
      <point x="398" y="341"/>
      <point x="398" y="222" type="curve" smooth="yes"/>
      <point x="398" y="124"/>
      <point x="369" y="41"/>
      <point x="277" y="41" type="curve" smooth="yes"/>
      <point x="247" y="41"/>
      <point x="186" y="49"/>
    </contour>
  </outline>
</glyph>
<glyph name="t" format="1">
  <advance width="321"/>
  <unicode hex="0074"/>
  <outline>
    <contour>
      <point x="82" y="57" type="line" name="hr00" smooth="yes"/>
      <point x="82" y="12"/>
      <point x="113" y="-13"/>
      <point x="146" y="-13" type="curve" smooth="yes"/>
      <point x="208" y="-13"/>
      <point x="298" y="7"/>
      <point x="298" y="40" type="curve" smooth="yes"/>
      <point x="298" y="42"/>
      <point x="299" y="57"/>
      <point x="279" y="57" type="curve" smooth="yes"/>
      <point x="256" y="57"/>
      <point x="235" y="46"/>
      <point x="217" y="46" type="curve" smooth="yes"/>
      <point x="170" y="46"/>
      <point x="169" y="52"/>
      <point x="169" y="147" type="curve" smooth="yes"/>
      <point x="169" y="402" type="line"/>
      <point x="253" y="402" type="line"/>
      <point x="272" y="403"/>
      <point x="284" y="424"/>
      <point x="284" y="440" type="curve" smooth="yes"/>
      <point x="284" y="450"/>
      <point x="281" y="458"/>
      <point x="264" y="458" type="curve" smooth="yes"/>
      <point x="169" y="458" type="line"/>
      <point x="169" y="582" type="line"/>
      <point x="164" y="585"/>
      <point x="148" y="586"/>
      <point x="138" y="586" type="curve" smooth="yes"/>
      <point x="109" y="586"/>
      <point x="108" y="512"/>
      <point x="90" y="478" type="curve"/>
      <point x="60" y="430"/>
      <point x="32" y="444"/>
      <point x="32" y="418" type="curve" smooth="yes"/>
      <point x="32" y="413"/>
      <point x="34" y="404"/>
      <point x="40" y="402" type="curve"/>
      <point x="82" y="402" type="line"/>
    </contour>
  </outline>
</glyph>
<glyph name="u" format="1">
  <advance width="502"/>
  <unicode hex="0075"/>
  <outline>
    <contour>
      <point x="89" y="29" type="curve" name="hr01" smooth="yes"/>
      <point x="112" y="-5"/>
      <point x="160" y="-16"/>
      <point x="200" y="-16" type="curve" smooth="yes"/>
      <point x="261" y="-16"/>
      <point x="302" y="10"/>
      <point x="342" y="44" type="curve"/>
      <point x="342" y="19" type="line" name="hr02" smooth="yes"/>
      <point x="342" y="-6"/>
      <point x="363" y="-16"/>
      <point x="387" y="-16" type="curve" smooth="yes"/>
      <point x="449" y="-16"/>
      <point x="480" y="25"/>
      <point x="480" y="35" type="curve" smooth="yes"/>
      <point x="480" y="44"/>
      <point x="473" y="50"/>
      <point x="459" y="50" type="curve" smooth="yes"/>
      <point x="437" y="50"/>
      <point x="438" y="43"/>
      <point x="426" y="43" type="curve"/>
      <point x="426" y="451" type="line"/>
      <point x="423" y="462"/>
      <point x="414" y="463"/>
      <point x="404" y="463" type="curve" smooth="yes"/>
      <point x="323" y="463"/>
      <point x="279" y="453"/>
      <point x="279" y="433" type="curve" smooth="yes"/>
      <point x="279" y="418"/>
      <point x="312" y="408"/>
      <point x="342" y="404" type="curve"/>
      <point x="342" y="81" type="line" name="hr03"/>
      <point x="310" y="56"/>
      <point x="269" y="39"/>
      <point x="232" y="39" type="curve" smooth="yes"/>
      <point x="181" y="39"/>
      <point x="149" y="48"/>
      <point x="149" y="180" type="curve" smooth="yes"/>
      <point x="149" y="454" type="line"/>
      <point x="147" y="463"/>
      <point x="139" y="464"/>
      <point x="125" y="464" type="curve" smooth="yes"/>
      <point x="55" y="464"/>
      <point x="16" y="454"/>
      <point x="16" y="434" type="curve" smooth="yes"/>
      <point x="16" y="425"/>
      <point x="36" y="409"/>
      <point x="61" y="405" type="curve"/>
      <point x="63" y="132" type="line" smooth="yes"/>
      <point x="63" y="99"/>
      <point x="65" y="65"/>
    </contour>
  </outline>
</glyph>
<glyph name="w" format="1">
  <advance width="679"/>
  <unicode hex="0077"/>
  <outline>
    <contour>
      <point x="201" y="-10" type="line" name="hr00"/>
      <point x="242" y="-10" type="line"/>
      <point x="344" y="258" type="line"/>
      <point x="443" y="-10" type="line"/>
      <point x="487" y="-10" type="line"/>
      <point x="646" y="412" type="line"/>
      <point x="673" y="414"/>
      <point x="697" y="422"/>
      <point x="697" y="446" type="curve" smooth="yes"/>
      <point x="697" y="451"/>
      <point x="688" y="458"/>
      <point x="669" y="458" type="curve" smooth="yes"/>
      <point x="528" y="458" type="line" smooth="yes"/>
      <point x="513" y="458"/>
      <point x="507" y="444"/>
      <point x="507" y="435" type="curve" smooth="yes"/>
      <point x="507" y="421"/>
      <point x="561" y="416"/>
      <point x="587" y="412" type="curve"/>
      <point x="477" y="106" type="line"/>
      <point x="377" y="412" type="line"/>
      <point x="410" y="416"/>
      <point x="438" y="421"/>
      <point x="438" y="435" type="curve" smooth="yes"/>
      <point x="438" y="444"/>
      <point x="431" y="458"/>
      <point x="416" y="458" type="curve" smooth="yes"/>
      <point x="277" y="458" type="line" smooth="yes"/>
      <point x="258" y="458"/>
      <point x="246" y="451"/>
      <point x="246" y="446" type="curve" smooth="yes"/>
      <point x="246" y="422"/>
      <point x="260" y="414"/>
      <point x="285" y="412" type="curve"/>
      <point x="293" y="395" type="line"/>
      <point x="316" y="333" type="line"/>
      <point x="235" y="104" type="line"/>
      <point x="125" y="412" type="line"/>
      <point x="151" y="416"/>
      <point x="174" y="421"/>
      <point x="174" y="435" type="curve" smooth="yes"/>
      <point x="174" y="444"/>
      <point x="167" y="458"/>
      <point x="151" y="458" type="curve" smooth="yes"/>
      <point x="11" y="458" type="line" smooth="yes"/>
      <point x="-8" y="458"/>
      <point x="-16" y="451"/>
      <point x="-16" y="446" type="curve" smooth="yes"/>
      <point x="-16" y="422"/>
      <point x="5" y="414"/>
      <point x="30" y="412" type="curve"/>
      <point x="38" y="395" type="line"/>
    </contour>
  </outline>
</glyph>
<glyph name="x" format="1">
  <advance width="497"/>
  <unicode hex="0078"/>
  <outline>
    <contour>
      <point x="12" y="20" type="curve" name="hr01" smooth="yes"/>
      <point x="12" y="12"/>
      <point x="15" y="0"/>
      <point x="31" y="0" type="curve" smooth="yes"/>
      <point x="171" y="0" type="line" smooth="yes"/>
      <point x="195" y="0"/>
      <point x="205" y="6"/>
      <point x="205" y="22" type="curve" smooth="yes"/>
      <point x="205" y="52"/>
      <point x="152" y="33"/>
      <point x="151" y="70" type="curve"/>
      <point x="237" y="189" type="line"/>
      <point x="335" y="51" type="line"/>
      <point x="327" y="47"/>
      <point x="289" y="30"/>
      <point x="289" y="20" type="curve" smooth="yes"/>
      <point x="289" y="12"/>
      <point x="292" y="0"/>
      <point x="308" y="0" type="curve" smooth="yes"/>
      <point x="464" y="0" type="line" smooth="yes"/>
      <point x="488" y="0"/>
      <point x="498" y="6"/>
      <point x="498" y="22" type="curve" smooth="yes"/>
      <point x="498" y="55"/>
      <point x="470" y="21"/>
      <point x="428" y="69" type="curve" smooth="yes"/>
      <point x="290" y="226" type="line"/>
      <point x="438" y="407" type="line" name="hr02"/>
      <point x="448" y="412"/>
      <point x="491" y="426"/>
      <point x="491" y="438" type="curve" smooth="yes"/>
      <point x="491" y="446"/>
      <point x="488" y="458"/>
      <point x="472" y="458" type="curve" smooth="yes"/>
      <point x="332" y="458" type="line" smooth="yes"/>
      <point x="308" y="458"/>
      <point x="298" y="452"/>
      <point x="298" y="436" type="curve" smooth="yes"/>
      <point x="298" y="408"/>
      <point x="347" y="421"/>
      <point x="352" y="390" type="curve"/>
      <point x="259" y="272" type="line"/>
      <point x="165" y="407" type="line" name="hr03"/>
      <point x="175" y="412"/>
      <point x="216" y="426"/>
      <point x="216" y="438" type="curve" smooth="yes"/>
      <point x="216" y="446"/>
      <point x="213" y="458"/>
      <point x="197" y="458" type="curve" smooth="yes"/>
      <point x="40" y="458" type="line" smooth="yes"/>
      <point x="16" y="458"/>
      <point x="6" y="452"/>
      <point x="6" y="436" type="curve" smooth="yes"/>
      <point x="6" y="407"/>
      <point x="25" y="433"/>
      <point x="64" y="396" type="curve"/>
      <point x="208" y="226" type="line"/>
      <point x="65" y="51" type="line"/>
      <point x="54" y="46"/>
      <point x="12" y="32"/>
    </contour>
  </outline>
</glyph>
<glyph name="z" format="1">
  <advance width="436"/>
  <unicode hex="007A"/>
  <outline>
    <contour>
      <point x="31" y="44" type="curve" name="hr01" smooth="yes"/>
      <point x="31" y="36"/>
      <point x="46" y="0"/>
      <point x="68" y="0" type="curve" smooth="yes"/>
      <point x="392" y="0" type="line"/>
      <point x="400" y="2"/>
      <point x="401" y="64"/>
      <point x="401" y="105" type="curve" smooth="yes"/>
      <point x="401" y="135" type="line" smooth="yes"/>
      <point x="401" y="147"/>
      <point x="381" y="153"/>
      <point x="370" y="153" type="curve" smooth="yes"/>
      <point x="353" y="153"/>
      <point x="349" y="101"/>
      <point x="321" y="67" type="curve" smooth="yes"/>
      <point x="301" y="44"/>
      <point x="200" y="45"/>
      <point x="143" y="45" type="curve" smooth="yes"/>
      <point x="136" y="45"/>
      <point x="133" y="46"/>
      <point x="133" y="50" type="curve" smooth="yes"/>
      <point x="133" y="53"/>
      <point x="136" y="60"/>
      <point x="143" y="70" type="curve" smooth="yes"/>
      <point x="201" y="149"/>
      <point x="295" y="253"/>
      <point x="396" y="389" type="curve" smooth="yes"/>
      <point x="400" y="395"/>
      <point x="402" y="402"/>
      <point x="402" y="409" type="curve" smooth="yes"/>
      <point x="402" y="432"/>
      <point x="383" y="458"/>
      <point x="374" y="458" type="curve" smooth="yes"/>
      <point x="61" y="458" type="line"/>
      <point x="53" y="456"/>
      <point x="53" y="445"/>
      <point x="53" y="433" type="curve" smooth="yes"/>
      <point x="53" y="428"/>
      <point x="53" y="423"/>
      <point x="53" y="418" type="curve" smooth="yes"/>
      <point x="53" y="379"/>
      <point x="44" y="355"/>
      <point x="44" y="329" type="curve" smooth="yes"/>
      <point x="44" y="320"/>
      <point x="55" y="310"/>
      <point x="68" y="310" type="curve" smooth="yes"/>
      <point x="91" y="310"/>
      <point x="108" y="367"/>
      <point x="110" y="377" type="curve"/>
      <point x="125" y="400"/>
      <point x="101" y="419"/>
      <point x="281" y="419" type="curve" smooth="yes"/>
      <point x="289" y="419"/>
      <point x="294" y="417"/>
      <point x="294" y="411" type="curve" smooth="yes"/>
      <point x="294" y="380"/>
      <point x="122" y="186"/>
      <point x="61" y="108" type="curve" smooth="yes"/>
      <point x="37" y="77"/>
      <point x="31" y="62"/>
    </contour>
  </outline>
</glyph>
<glyph name="bar" format="1">
  <advance width="196"/>
  <unicode hex="007C"/>
  <outline>
    <contour>
      <point x="137" y="-244" type="curve" name="hr00"/>
      <point x="137" y="111"/>
      <point x="139" y="467"/>
      <point x="139" y="821" type="curve"/>
      <point x="137" y="833"/>
      <point x="129" y="838"/>
      <point x="119" y="838" type="curve" smooth="yes"/>
      <point x="95" y="838"/>
      <point x="58" y="810"/>
      <point x="57" y="787" type="curve"/>
      <point x="57" y="431"/>
      <point x="55" y="76"/>
      <point x="55" y="-279" type="curve"/>
      <point x="60" y="-288"/>
      <point x="67" y="-291"/>
      <point x="76" y="-291" type="curve" smooth="yes"/>
      <point x="99" y="-291"/>
      <point x="131" y="-263"/>
    </contour>
  </outline>
</glyph>
<glyph name="asciitilde" format="1">
  <advance width="666"/>
  <unicode hex="007E"/>
  <outline>
    <contour>
      <point x="128" y="215" type="curve" name="hr01" smooth="yes"/>
      <point x="131" y="215"/>
      <point x="133" y="216"/>
      <point x="134" y="217" type="curve" smooth="yes"/>
      <point x="156" y="238"/>
      <point x="169" y="281"/>
      <point x="203" y="281" type="curve" smooth="yes"/>
      <point x="293" y="281"/>
      <point x="318" y="195"/>
      <point x="436" y="195" type="curve" smooth="yes"/>
      <point x="513" y="195"/>
      <point x="550" y="266"/>
      <point x="575" y="304" type="curve" name="hr02" smooth="yes"/>
      <point x="576" y="306"/>
      <point x="577" y="308"/>
      <point x="577" y="310" type="curve" smooth="yes"/>
      <point x="577" y="323"/>
      <point x="550" y="329"/>
      <point x="537" y="329" type="curve" smooth="yes"/>
      <point x="534" y="329"/>
      <point x="531" y="329"/>
      <point x="531" y="328" type="curve" smooth="yes"/>
      <point x="510" y="307"/>
      <point x="489" y="254"/>
      <point x="452" y="254" type="curve" smooth="yes"/>
      <point x="363" y="254"/>
      <point x="310" y="340"/>
      <point x="219" y="340" type="curve" name="hr03" smooth="yes"/>
      <point x="142" y="340"/>
      <point x="115" y="280"/>
      <point x="93" y="241" type="curve"/>
      <point x="91" y="239"/>
      <point x="91" y="236"/>
      <point x="91" y="234" type="curve" smooth="yes"/>
      <point x="91" y="222"/>
      <point x="116" y="215"/>
    </contour>
  </outline>
</glyph>
<glyph name="dv_CandrabinduInverted" format="1">
  <advance width="0"/>
  <unicode hex="0090"/>
  <outline>
    <contour>
      <point x="65" y="818" type="curve" name="hr01" smooth="yes"/>
      <point x="69" y="818"/>
      <point x="72" y="820"/>
      <point x="75" y="825" type="curve"/>
      <point x="101" y="904"/>
      <point x="155" y="938"/>
      <point x="233" y="938" type="curve" smooth="yes"/>
      <point x="311" y="938"/>
      <point x="365" y="904"/>
      <point x="391" y="825" type="curve" smooth="yes"/>
      <point x="393" y="820"/>
      <point x="397" y="818"/>
      <point x="400" y="818" type="curve" smooth="yes"/>
      <point x="417" y="818"/>
      <point x="440" y="858"/>
      <point x="440" y="880" type="curve" smooth="yes"/>
      <point x="440" y="881"/>
      <point x="440" y="883"/>
      <point x="440" y="884" type="curve" smooth="yes"/>
      <point x="412" y="967"/>
      <point x="316" y="1027"/>
      <point x="233" y="1027" type="curve" smooth="yes"/>
      <point x="150" y="1027"/>
      <point x="54" y="967"/>
      <point x="26" y="884" type="curve"/>
      <point x="26" y="883"/>
      <point x="26" y="881"/>
      <point x="26" y="880" type="curve" smooth="yes"/>
      <point x="26" y="858"/>
      <point x="49" y="818"/>
    </contour>
    <contour>
      <point x="233" y="739" type="curve" name="hr02" smooth="yes"/>
      <point x="235" y="739"/>
      <point x="236" y="739"/>
      <point x="237" y="739" type="curve"/>
      <point x="252" y="755"/>
      <point x="300" y="801"/>
      <point x="300" y="813" type="curve" smooth="yes"/>
      <point x="300" y="836"/>
      <point x="254" y="883"/>
      <point x="230" y="883" type="curve" smooth="yes"/>
      <point x="226" y="883"/>
      <point x="161" y="825"/>
      <point x="161" y="810" type="curve" smooth="yes"/>
      <point x="161" y="787"/>
      <point x="207" y="739"/>
    </contour>
  </outline>
</glyph>
<glyph name="cent" format="1">
  <advance width="443"/>
  <unicode hex="00A2"/>
  <outline>
    <contour>
      <point x="158" y="-4" type="line" name="hr00"/>
      <point x="166" y="-8"/>
      <point x="182" y="-16"/>
      <point x="201" y="-16" type="curve" smooth="yes"/>
      <point x="212" y="-16"/>
      <point x="224" y="-13"/>
      <point x="236" y="-4" type="curve"/>
      <point x="242" y="71" type="line"/>
      <point x="256" y="71" type="line" smooth="yes"/>
      <point x="317" y="71"/>
      <point x="411" y="116"/>
      <point x="411" y="155" type="curve" smooth="yes"/>
      <point x="411" y="161"/>
      <point x="405" y="169"/>
      <point x="388" y="169" type="curve" smooth="yes"/>
      <point x="339" y="169"/>
      <point x="334" y="129"/>
      <point x="281" y="129" type="curve" smooth="yes"/>
      <point x="179" y="129"/>
      <point x="139" y="231"/>
      <point x="139" y="327" type="curve" smooth="yes"/>
      <point x="139" y="430"/>
      <point x="179" y="510"/>
      <point x="259" y="510" type="curve" smooth="yes"/>
      <point x="300" y="510"/>
      <point x="336" y="494"/>
      <point x="342" y="450" type="curve" smooth="yes"/>
      <point x="344" y="432"/>
      <point x="352" y="429"/>
      <point x="363" y="429" type="curve"/>
      <point x="388" y="432"/>
      <point x="424" y="454"/>
      <point x="424" y="478" type="curve" smooth="yes"/>
      <point x="424" y="539"/>
      <point x="343" y="561"/>
      <point x="295" y="561" type="curve"/>
      <point x="318" y="663" type="line"/>
      <point x="309" y="667"/>
      <point x="301" y="675"/>
      <point x="282" y="675" type="curve" smooth="yes"/>
      <point x="270" y="675"/>
      <point x="258" y="672"/>
      <point x="245" y="663" type="curve"/>
      <point x="229" y="554" type="line"/>
      <point x="117" y="529"/>
      <point x="47" y="430"/>
      <point x="47" y="289" type="curve" smooth="yes"/>
      <point x="47" y="199"/>
      <point x="94" y="114"/>
      <point x="180" y="83" type="curve"/>
    </contour>
  </outline>
</glyph>
<glyph name="sterling" format="1">
  <advance width="646"/>
  <unicode hex="00A3"/>
  <outline>
    <contour>
      <point x="43" y="19" type="curve" name="hr01" smooth="yes"/>
      <point x="43" y="-5"/>
      <point x="74" y="-11"/>
      <point x="100" y="-11" type="curve" smooth="yes"/>
      <point x="163" y="-11"/>
      <point x="199" y="14"/>
      <point x="217" y="61" type="curve"/>
      <point x="323" y="61"/>
      <point x="360" y="-16"/>
      <point x="476" y="-16" type="curve" smooth="yes"/>
      <point x="568" y="-16"/>
      <point x="609" y="62"/>
      <point x="609" y="95" type="curve" name="hr02" smooth="yes"/>
      <point x="609" y="174"/>
      <point x="575" y="217"/>
      <point x="542" y="217" type="curve" smooth="yes"/>
      <point x="512" y="217"/>
      <point x="477" y="185"/>
      <point x="477" y="163" type="curve"/>
      <point x="501" y="151"/>
      <point x="515" y="127"/>
      <point x="515" y="104" type="curve" smooth="yes"/>
      <point x="515" y="76"/>
      <point x="496" y="47"/>
      <point x="454" y="47" type="curve" smooth="yes"/>
      <point x="376" y="47"/>
      <point x="330" y="113"/>
      <point x="241" y="113" type="curve" name="hr03" smooth="yes"/>
      <point x="231" y="113" type="line"/>
      <point x="236" y="146"/>
      <point x="238" y="178"/>
      <point x="238" y="212" type="curve" smooth="yes"/>
      <point x="238" y="219"/>
      <point x="238" y="226"/>
      <point x="238" y="233" type="curve" smooth="yes"/>
      <point x="236" y="336" type="line"/>
      <point x="325" y="336" type="line"/>
      <point x="345" y="338"/>
      <point x="388" y="373"/>
      <point x="388" y="393" type="curve" smooth="yes"/>
      <point x="388" y="400"/>
      <point x="382" y="406"/>
      <point x="368" y="407" type="curve"/>
      <point x="234" y="407" type="line" name="hr04"/>
      <point x="234" y="431" type="line" smooth="yes"/>
      <point x="234" y="439"/>
      <point x="234" y="446"/>
      <point x="234" y="454" type="curve" smooth="yes"/>
      <point x="234" y="564"/>
      <point x="250" y="638"/>
      <point x="352" y="638" type="curve" smooth="yes"/>
      <point x="394" y="638"/>
      <point x="443" y="606"/>
      <point x="448" y="544" type="curve"/>
      <point x="450" y="542"/>
      <point x="453" y="541"/>
      <point x="459" y="541" type="curve" smooth="yes"/>
      <point x="487" y="541"/>
      <point x="531" y="567"/>
      <point x="531" y="605" type="curve" smooth="yes"/>
      <point x="531" y="607"/>
      <point x="530" y="608"/>
      <point x="530" y="610" type="curve" smooth="yes"/>
      <point x="508" y="684"/>
      <point x="433" y="702"/>
      <point x="385" y="702" type="curve" smooth="yes"/>
      <point x="308" y="702"/>
      <point x="247" y="667"/>
      <point x="206" y="593" type="curve" name="hr05" smooth="yes"/>
      <point x="178" y="544"/>
      <point x="153" y="509"/>
      <point x="151" y="407" type="curve"/>
      <point x="115" y="407" type="line"/>
      <point x="102" y="404"/>
      <point x="71" y="379"/>
      <point x="71" y="358" type="curve" smooth="yes"/>
      <point x="71" y="349"/>
      <point x="75" y="341"/>
      <point x="88" y="336" type="curve"/>
      <point x="151" y="336" type="line"/>
      <point x="151" y="260"/>
      <point x="153" y="143"/>
      <point x="153" y="121" type="curve" smooth="yes"/>
      <point x="153" y="102" type="line"/>
      <point x="110" y="91"/>
      <point x="43" y="65"/>
    </contour>
  </outline>
</glyph>
<glyph name="currency" format="1">
  <advance width="670"/>
  <unicode hex="00A4"/>
  <outline>
    <contour>
      <point x="89" y="110" type="curve" name="hr00" smooth="yes"/>
      <point x="89" y="96"/>
      <point x="126" y="49"/>
      <point x="147" y="49" type="curve" smooth="yes"/>
      <point x="152" y="49"/>
      <point x="155" y="51"/>
      <point x="158" y="55" type="curve" smooth="yes"/>
      <point x="248" y="168" type="line"/>
      <point x="270" y="160"/>
      <point x="296" y="157"/>
      <point x="323" y="157" type="curve" smooth="yes"/>
      <point x="363" y="157"/>
      <point x="402" y="166"/>
      <point x="435" y="186" type="curve"/>
      <point x="525" y="52" type="line" smooth="yes"/>
      <point x="527" y="48"/>
      <point x="531" y="46"/>
      <point x="535" y="46" type="curve" smooth="yes"/>
      <point x="556" y="46"/>
      <point x="595" y="94"/>
      <point x="595" y="107" type="curve" smooth="yes"/>
      <point x="595" y="108"/>
      <point x="595" y="108"/>
      <point x="595" y="109" type="curve" smooth="yes"/>
      <point x="574" y="158"/>
      <point x="502" y="195"/>
      <point x="476" y="215" type="curve"/>
      <point x="475" y="215" type="line"/>
      <point x="522" y="251"/>
      <point x="537" y="305"/>
      <point x="537" y="348" type="curve" smooth="yes"/>
      <point x="537" y="380"/>
      <point x="529" y="414"/>
      <point x="511" y="442" type="curve"/>
      <point x="548" y="464"/>
      <point x="609" y="497"/>
      <point x="626" y="536" type="curve"/>
      <point x="626" y="536"/>
      <point x="626" y="537"/>
      <point x="626" y="538" type="curve" smooth="yes"/>
      <point x="626" y="551"/>
      <point x="589" y="599"/>
      <point x="566" y="599" type="curve" smooth="yes"/>
      <point x="562" y="599"/>
      <point x="559" y="598"/>
      <point x="556" y="594" type="curve" smooth="yes"/>
      <point x="470" y="484" type="line"/>
      <point x="442" y="503"/>
      <point x="405" y="515"/>
      <point x="355" y="515" type="curve" smooth="yes"/>
      <point x="303" y="515"/>
      <point x="259" y="500"/>
      <point x="225" y="477" type="curve"/>
      <point x="134" y="594" type="line"/>
      <point x="132" y="598"/>
      <point x="129" y="599"/>
      <point x="125" y="599" type="curve" smooth="yes"/>
      <point x="104" y="599"/>
      <point x="67" y="551"/>
      <point x="67" y="538" type="curve" smooth="yes"/>
      <point x="67" y="537"/>
      <point x="67" y="536"/>
      <point x="67" y="536" type="curve"/>
      <point x="84" y="495"/>
      <point x="149" y="461"/>
      <point x="186" y="440" type="curve"/>
      <point x="159" y="406"/>
      <point x="144" y="364"/>
      <point x="144" y="321" type="curve" smooth="yes"/>
      <point x="144" y="267"/>
      <point x="163" y="226"/>
      <point x="193" y="199" type="curve"/>
      <point x="156" y="178"/>
      <point x="104" y="148"/>
      <point x="89" y="112" type="curve"/>
      <point x="89" y="111"/>
      <point x="89" y="111"/>
    </contour>
    <contour>
      <point x="358" y="204" type="curve" smooth="yes"/>
      <point x="254" y="204"/>
      <point x="228" y="284"/>
      <point x="228" y="348" type="curve" smooth="yes"/>
      <point x="228" y="403"/>
      <point x="245" y="469"/>
      <point x="325" y="469" type="curve" smooth="yes"/>
      <point x="426" y="469"/>
      <point x="454" y="389"/>
      <point x="454" y="321" type="curve" smooth="yes"/>
      <point x="454" y="261"/>
      <point x="431" y="204"/>
    </contour>
  </outline>
</glyph>
<glyph name="section" format="1">
  <advance width="601"/>
  <unicode hex="00A7"/>
  <outline>
    <contour>
      <point x="101" y="33" type="curve" name="hr01" smooth="yes"/>
      <point x="129" y="8"/>
      <point x="229" y="-16"/>
      <point x="285" y="-16" type="curve" smooth="yes"/>
      <point x="406" y="-16"/>
      <point x="513" y="57"/>
      <point x="513" y="148" type="curve" name="hr02" smooth="yes"/>
      <point x="513" y="200"/>
      <point x="486" y="230"/>
      <point x="447" y="251" type="curve"/>
      <point x="471" y="277"/>
      <point x="486" y="307"/>
      <point x="486" y="339" type="curve" name="hr03" smooth="yes"/>
      <point x="486" y="527"/>
      <point x="172" y="454"/>
      <point x="172" y="590" type="curve" smooth="yes"/>
      <point x="172" y="631"/>
      <point x="227" y="653"/>
      <point x="286" y="653" type="curve" smooth="yes"/>
      <point x="362" y="653"/>
      <point x="410" y="629"/>
      <point x="433" y="593" type="curve" name="hr04"/>
      <point x="433" y="593"/>
      <point x="447" y="522"/>
      <point x="463" y="522" type="curve" smooth="yes"/>
      <point x="490" y="522"/>
      <point x="487" y="602"/>
      <point x="487" y="632" type="curve" smooth="yes"/>
      <point x="487" y="673"/>
      <point x="400" y="711"/>
      <point x="331" y="711" type="curve" smooth="yes"/>
      <point x="210" y="711"/>
      <point x="101" y="651"/>
      <point x="101" y="560" type="curve" smooth="yes"/>
      <point x="101" y="511"/>
      <point x="124" y="478"/>
      <point x="159" y="454" type="curve"/>
      <point x="122" y="427"/>
      <point x="101" y="407"/>
      <point x="101" y="357" type="curve" smooth="yes"/>
      <point x="101" y="261"/>
      <point x="181" y="233"/>
      <point x="289" y="210" type="curve" smooth="yes"/>
      <point x="365" y="194"/>
      <point x="438" y="183"/>
      <point x="438" y="112" type="curve" name="hr05" smooth="yes"/>
      <point x="438" y="76"/>
      <point x="388" y="45"/>
      <point x="326" y="45" type="curve" smooth="yes"/>
      <point x="226" y="45"/>
      <point x="163" y="76"/>
      <point x="152" y="112" type="curve"/>
      <point x="152" y="112"/>
      <point x="137" y="188"/>
      <point x="121" y="188" type="curve" smooth="yes"/>
      <point x="112" y="188"/>
      <point x="102" y="183"/>
      <point x="102" y="171" type="curve" smooth="yes"/>
      <point x="101" y="136"/>
      <point x="97" y="52"/>
      <point x="97" y="48" type="curve" smooth="yes"/>
      <point x="97" y="39"/>
      <point x="99" y="34"/>
    </contour>
    <contour>
      <point x="172" y="387" type="curve" smooth="yes"/>
      <point x="172" y="406"/>
      <point x="178" y="423"/>
      <point x="188" y="438" type="curve"/>
      <point x="314" y="375"/>
      <point x="413" y="409"/>
      <point x="413" y="303" type="curve" smooth="yes"/>
      <point x="413" y="291"/>
      <point x="411" y="279"/>
      <point x="408" y="268" type="curve"/>
      <point x="379" y="279"/>
      <point x="346" y="286"/>
      <point x="315" y="294" type="curve"/>
      <point x="221" y="310"/>
      <point x="172" y="330"/>
    </contour>
  </outline>
</glyph>
<glyph name="copyright" format="1">
  <advance width="951"/>
  <unicode hex="00A9"/>
  <outline>
    <contour>
      <point x="84" y="447" type="curve" name="hr00" smooth="yes"/>
      <point x="84" y="269"/>
      <point x="227" y="89"/>
      <point x="462" y="89" type="curve" smooth="yes"/>
      <point x="678" y="89"/>
      <point x="847" y="248"/>
      <point x="847" y="480" type="curve" smooth="yes"/>
      <point x="847" y="659"/>
      <point x="704" y="838"/>
      <point x="472" y="838" type="curve" smooth="yes"/>
      <point x="256" y="838"/>
      <point x="84" y="679"/>
    </contour>
    <contour>
      <point x="488" y="132" type="curve"/>
      <point x="253" y="138"/>
      <point x="137" y="298"/>
      <point x="137" y="487" type="curve" smooth="yes"/>
      <point x="137" y="672"/>
      <point x="316" y="789"/>
      <point x="442" y="789" type="curve" smooth="yes"/>
      <point x="680" y="789"/>
      <point x="794" y="629"/>
      <point x="794" y="440" type="curve" smooth="yes"/>
      <point x="794" y="256"/>
      <point x="615" y="132"/>
    </contour>
    <contour>
      <point x="298" y="436" type="curve" smooth="yes"/>
      <point x="298" y="346"/>
      <point x="362" y="264"/>
      <point x="474" y="264" type="curve" smooth="yes"/>
      <point x="524" y="264"/>
      <point x="604" y="303"/>
      <point x="604" y="333" type="curve" smooth="yes"/>
      <point x="604" y="341"/>
      <point x="597" y="350"/>
      <point x="573" y="350" type="curve" smooth="yes"/>
      <point x="525" y="350"/>
      <point x="524" y="320"/>
      <point x="490" y="320" type="curve" smooth="yes"/>
      <point x="422" y="320"/>
      <point x="392" y="395"/>
      <point x="392" y="466" type="curve" smooth="yes"/>
      <point x="392" y="541"/>
      <point x="416" y="599"/>
      <point x="468" y="599" type="curve" smooth="yes"/>
      <point x="488" y="599"/>
      <point x="505" y="588"/>
      <point x="508" y="559" type="curve" smooth="yes"/>
      <point x="510" y="543"/>
      <point x="521" y="537"/>
      <point x="536" y="537" type="curve" smooth="yes"/>
      <point x="567" y="537"/>
      <point x="599" y="562"/>
      <point x="599" y="583" type="curve"/>
      <point x="594" y="632"/>
      <point x="536" y="650"/>
      <point x="490" y="650" type="curve" smooth="yes"/>
      <point x="374" y="650"/>
      <point x="298" y="565"/>
    </contour>
  </outline>
</glyph>
<glyph name="ordfeminine" format="1">
  <advance width="485"/>
  <unicode hex="00AA"/>
  <outline>
    <contour>
      <point x="207" y="273" type="curve" name="hr01" smooth="yes"/>
      <point x="247" y="273"/>
      <point x="281" y="291"/>
      <point x="310" y="315" type="curve"/>
      <point x="310" y="303" type="line" name="hr02" smooth="yes"/>
      <point x="310" y="280"/>
      <point x="329" y="271"/>
      <point x="350" y="271" type="curve" smooth="yes"/>
      <point x="402" y="271"/>
      <point x="433" y="306"/>
      <point x="433" y="315" type="curve" smooth="yes"/>
      <point x="433" y="324"/>
      <point x="427" y="331"/>
      <point x="412" y="331" type="curve" smooth="yes"/>
      <point x="410" y="331"/>
      <point x="408" y="330"/>
      <point x="406" y="330" type="curve" smooth="yes"/>
      <point x="400" y="330" type="line"/>
      <point x="389" y="326" type="line"/>
      <point x="389" y="549" type="line"/>
      <point x="387" y="609"/>
      <point x="369" y="673"/>
      <point x="274" y="673" type="curve" smooth="yes"/>
      <point x="201" y="673"/>
      <point x="102" y="625"/>
      <point x="102" y="564" type="curve" smooth="yes"/>
      <point x="102" y="551"/>
      <point x="104" y="529"/>
      <point x="131" y="529" type="curve" smooth="yes"/>
      <point x="154" y="529"/>
      <point x="190" y="552"/>
      <point x="190" y="572" type="curve" smooth="yes"/>
      <point x="190" y="574"/>
      <point x="190" y="576"/>
      <point x="188" y="578" type="curve" smooth="yes"/>
      <point x="187" y="579" type="line" smooth="yes"/>
      <point x="186" y="583"/>
      <point x="184" y="589"/>
      <point x="184" y="592" type="curve" smooth="yes"/>
      <point x="184" y="616"/>
      <point x="199" y="619"/>
      <point x="238" y="619" type="curve" smooth="yes"/>
      <point x="297" y="619"/>
      <point x="310" y="579"/>
      <point x="310" y="521" type="curve" smooth="yes"/>
      <point x="310" y="508" type="line"/>
      <point x="209" y="497"/>
      <point x="92" y="464"/>
      <point x="92" y="368" type="curve" name="hr03" smooth="yes"/>
      <point x="92" y="325"/>
      <point x="124" y="273"/>
    </contour>
    <contour>
      <point x="248" y="326" type="curve" smooth="yes"/>
      <point x="194" y="326"/>
      <point x="175" y="353"/>
      <point x="175" y="394" type="curve" smooth="yes"/>
      <point x="175" y="450"/>
      <point x="251" y="462"/>
      <point x="310" y="466" type="curve"/>
      <point x="310" y="352" type="line"/>
      <point x="294" y="335"/>
      <point x="271" y="326"/>
    </contour>
  </outline>
</glyph>
<glyph name="logicalnot" format="1">
  <advance width="582"/>
  <unicode hex="00AC"/>
  <outline>
    <contour>
      <point x="118" y="320" type="curve" name="hr00"/>
      <point x="420" y="320" type="line"/>
      <point x="420" y="156" type="line" smooth="yes"/>
      <point x="420" y="145"/>
      <point x="426" y="141"/>
      <point x="435" y="141" type="curve" smooth="yes"/>
      <point x="455" y="141"/>
      <point x="486" y="161"/>
      <point x="486" y="173" type="curve" smooth="yes"/>
      <point x="486" y="348" type="line" smooth="yes"/>
      <point x="486" y="368"/>
      <point x="477" y="371"/>
      <point x="459" y="374" type="curve"/>
      <point x="125" y="374" type="line" smooth="yes"/>
      <point x="109" y="374"/>
      <point x="91" y="354"/>
      <point x="91" y="338" type="curve" smooth="yes"/>
      <point x="91" y="328"/>
      <point x="99" y="320"/>
    </contour>
  </outline>
</glyph>
<glyph name="registered" format="1">
  <advance width="951"/>
  <unicode hex="00AE"/>
  <outline>
    <contour>
      <point x="84" y="447" type="curve" name="hr01" smooth="yes"/>
      <point x="84" y="269"/>
      <point x="227" y="89"/>
      <point x="462" y="89" type="curve" smooth="yes"/>
      <point x="678" y="89"/>
      <point x="847" y="248"/>
      <point x="847" y="480" type="curve" smooth="yes"/>
      <point x="847" y="659"/>
      <point x="704" y="838"/>
      <point x="472" y="838" type="curve" smooth="yes"/>
      <point x="256" y="838"/>
      <point x="84" y="679"/>
    </contour>
    <contour>
      <point x="488" y="132" type="curve"/>
      <point x="253" y="138"/>
      <point x="137" y="298"/>
      <point x="137" y="487" type="curve" smooth="yes"/>
      <point x="137" y="672"/>
      <point x="316" y="789"/>
      <point x="442" y="789" type="curve" smooth="yes"/>
      <point x="680" y="789"/>
      <point x="794" y="629"/>
      <point x="794" y="440" type="curve" smooth="yes"/>
      <point x="794" y="256"/>
      <point x="615" y="132"/>
    </contour>
    <contour>
      <point x="297" y="287" type="curve" smooth="yes"/>
      <point x="297" y="281"/>
      <point x="298" y="276"/>
      <point x="312" y="276" type="curve" smooth="yes"/>
      <point x="438" y="276" type="line" smooth="yes"/>
      <point x="458" y="276"/>
      <point x="465" y="281"/>
      <point x="465" y="287" type="curve" smooth="yes"/>
      <point x="465" y="303"/>
      <point x="436" y="309"/>
      <point x="407" y="310" type="curve"/>
      <point x="407" y="438" type="line"/>
      <point x="430" y="438" type="line" smooth="yes"/>
      <point x="552" y="438"/>
      <point x="524" y="276"/>
      <point x="598" y="276" type="curve" name="hr02" smooth="yes"/>
      <point x="641" y="276" type="line" smooth="yes"/>
      <point x="671" y="276"/>
      <point x="673" y="288"/>
      <point x="673" y="292" type="curve" smooth="yes"/>
      <point x="674" y="324"/>
      <point x="638" y="286"/>
      <point x="612" y="336" type="curve" smooth="yes"/>
      <point x="603" y="353" type="line"/>
      <point x="604" y="353" type="line"/>
      <point x="583" y="403"/>
      <point x="540" y="443"/>
      <point x="520" y="451" type="curve"/>
      <point x="583" y="465"/>
      <point x="617" y="511"/>
      <point x="617" y="563" type="curve" smooth="yes"/>
      <point x="617" y="630"/>
      <point x="550" y="666"/>
      <point x="486" y="666" type="curve" smooth="yes"/>
      <point x="440" y="666"/>
      <point x="417" y="661"/>
      <point x="377" y="661" type="curve" smooth="yes"/>
      <point x="349" y="661" type="line" smooth="yes"/>
      <point x="300" y="661"/>
      <point x="296" y="656"/>
      <point x="296" y="647" type="curve" smooth="yes"/>
      <point x="296" y="631"/>
      <point x="308" y="626"/>
      <point x="339" y="626" type="curve"/>
      <point x="339" y="309" type="line" name="hr03"/>
      <point x="302" y="301"/>
      <point x="297" y="296"/>
    </contour>
    <contour>
      <point x="407" y="471" type="line"/>
      <point x="407" y="625" type="line"/>
      <point x="417" y="626"/>
      <point x="429" y="626"/>
      <point x="441" y="626" type="curve" smooth="yes"/>
      <point x="510" y="626"/>
      <point x="550" y="611"/>
      <point x="550" y="549" type="curve" smooth="yes"/>
      <point x="550" y="497"/>
      <point x="504" y="471"/>
      <point x="453" y="471" type="curve" smooth="yes"/>
    </contour>
  </outline>
</glyph>
<glyph name="macron" format="1">
  <advance width="357"/>
  <unicode hex="00AF"/>
  <outline>
    <contour>
      <point x="47" y="610" type="curve" name="hr00"/>
      <point x="277" y="610" type="line" smooth="yes"/>
      <point x="307" y="610"/>
      <point x="330" y="626"/>
      <point x="330" y="657" type="curve" smooth="yes"/>
      <point x="330" y="668"/>
      <point x="327" y="676"/>
      <point x="308" y="676" type="curve" smooth="yes"/>
      <point x="68" y="676" type="line" smooth="yes"/>
      <point x="46" y="676"/>
      <point x="28" y="652"/>
      <point x="28" y="633" type="curve" smooth="yes"/>
      <point x="28" y="618"/>
      <point x="40" y="610"/>
    </contour>
  </outline>
</glyph>
<glyph name="degree" format="1">
  <advance width="346"/>
  <unicode hex="00B0"/>
  <outline>
    <contour>
      <point x="164" y="527" type="curve" name="hr00" smooth="yes"/>
      <point x="260" y="527"/>
      <point x="319" y="596"/>
      <point x="319" y="674" type="curve" smooth="yes"/>
      <point x="319" y="765"/>
      <point x="243" y="802"/>
      <point x="186" y="802" type="curve" smooth="yes"/>
      <point x="90" y="802"/>
      <point x="27" y="736"/>
      <point x="27" y="660" type="curve" smooth="yes"/>
      <point x="27" y="567"/>
      <point x="104" y="527"/>
    </contour>
    <contour>
      <point x="171" y="579" type="curve" smooth="yes"/>
      <point x="140" y="579"/>
      <point x="96" y="604"/>
      <point x="96" y="667" type="curve" smooth="yes"/>
      <point x="96" y="712"/>
      <point x="122" y="752"/>
      <point x="174" y="752" type="curve" smooth="yes"/>
      <point x="203" y="752"/>
      <point x="250" y="728"/>
      <point x="250" y="660" type="curve" smooth="yes"/>
      <point x="250" y="617"/>
      <point x="233" y="582"/>
      <point x="175" y="579" type="curve"/>
      <point x="174" y="579"/>
      <point x="172" y="579"/>
    </contour>
  </outline>
</glyph>
<glyph name="plusminus" format="1">
  <advance width="582"/>
  <unicode hex="00B1"/>
  <outline>
    <contour>
      <point x="254" y="174" type="line" name="hr00"/>
      <point x="260" y="161"/>
      <point x="268" y="156"/>
      <point x="275" y="156" type="curve" smooth="yes"/>
      <point x="295" y="156"/>
      <point x="317" y="189"/>
      <point x="320" y="201" type="curve"/>
      <point x="320" y="320" type="line"/>
      <point x="418" y="320" type="line"/>
      <point x="438" y="322"/>
      <point x="480" y="348"/>
      <point x="480" y="363" type="curve" smooth="yes"/>
      <point x="480" y="369"/>
      <point x="474" y="373"/>
      <point x="459" y="374" type="curve"/>
      <point x="320" y="374" type="line"/>
      <point x="320" y="508" type="line"/>
      <point x="319" y="526"/>
      <point x="311" y="533"/>
      <point x="302" y="533" type="curve" smooth="yes"/>
      <point x="283" y="533"/>
      <point x="257" y="507"/>
      <point x="254" y="488" type="curve"/>
      <point x="254" y="374" type="line"/>
      <point x="145" y="374" type="line"/>
      <point x="133" y="371"/>
      <point x="101" y="354"/>
      <point x="101" y="338" type="curve" smooth="yes"/>
      <point x="101" y="331"/>
      <point x="105" y="325"/>
      <point x="118" y="320" type="curve"/>
      <point x="254" y="320" type="line"/>
    </contour>
    <contour>
      <point x="101" y="18" type="curve" smooth="yes"/>
      <point x="101" y="11"/>
      <point x="105" y="5"/>
      <point x="118" y="0" type="curve"/>
      <point x="418" y="0" type="line" smooth="yes"/>
      <point x="448" y="0"/>
      <point x="483" y="23"/>
      <point x="483" y="39" type="curve" smooth="yes"/>
      <point x="483" y="47"/>
      <point x="476" y="52"/>
      <point x="459" y="54" type="curve"/>
      <point x="145" y="54" type="line"/>
      <point x="133" y="50"/>
      <point x="101" y="34"/>
    </contour>
  </outline>
</glyph>
<glyph name="two.sups" format="1">
  <advance width="401"/>
  <unicode hex="00B2"/>
  <outline>
    <contour>
      <point x="49" y="270" type="curve" name="hr00"/>
      <point x="321" y="270" type="line" smooth="yes"/>
      <point x="362" y="270"/>
      <point x="373" y="286"/>
      <point x="375" y="301" type="curve"/>
      <point x="375" y="301"/>
      <point x="381" y="345"/>
      <point x="381" y="362" type="curve" smooth="yes"/>
      <point x="381" y="376"/>
      <point x="366" y="381"/>
      <point x="355" y="381" type="curve" smooth="yes"/>
      <point x="331" y="381"/>
      <point x="325" y="371"/>
      <point x="302" y="327" type="curve"/>
      <point x="125" y="317" type="line"/>
      <point x="245" y="417"/>
      <point x="347" y="522"/>
      <point x="347" y="613" type="curve" smooth="yes"/>
      <point x="347" y="676"/>
      <point x="320" y="748"/>
      <point x="199" y="748" type="curve" smooth="yes"/>
      <point x="119" y="748"/>
      <point x="29" y="700"/>
      <point x="29" y="636" type="curve" smooth="yes"/>
      <point x="29" y="626"/>
      <point x="32" y="605"/>
      <point x="64" y="605" type="curve" smooth="yes"/>
      <point x="86" y="605"/>
      <point x="124" y="627"/>
      <point x="124" y="644" type="curve" smooth="yes"/>
      <point x="124" y="645"/>
      <point x="124" y="647"/>
      <point x="119" y="652" type="curve" smooth="yes"/>
      <point x="122" y="650" type="line" smooth="yes"/>
      <point x="121" y="651"/>
      <point x="119" y="654"/>
      <point x="119" y="662" type="curve" smooth="yes"/>
      <point x="119" y="689"/>
      <point x="138" y="699"/>
      <point x="171" y="699" type="curve" smooth="yes"/>
      <point x="237" y="699"/>
      <point x="254" y="658"/>
      <point x="254" y="606" type="curve" smooth="yes"/>
      <point x="254" y="512"/>
      <point x="182" y="411"/>
      <point x="51" y="309" type="curve" smooth="yes"/>
      <point x="44" y="304"/>
      <point x="31" y="292"/>
      <point x="31" y="283" type="curve" smooth="yes"/>
      <point x="31" y="278"/>
      <point x="35" y="270"/>
    </contour>
  </outline>
</glyph>
<glyph name="three.sups" format="1">
  <advance width="378"/>
  <unicode hex="00B3"/>
  <outline>
    <contour>
      <point x="148" y="253" type="curve" name="hr01" smooth="yes"/>
      <point x="246" y="253"/>
      <point x="354" y="312"/>
      <point x="354" y="409" type="curve" smooth="yes"/>
      <point x="354" y="472"/>
      <point x="319" y="509"/>
      <point x="255" y="523" type="curve"/>
      <point x="297" y="544"/>
      <point x="330" y="597"/>
      <point x="330" y="640" type="curve" name="hr02" smooth="yes"/>
      <point x="330" y="699"/>
      <point x="283" y="747"/>
      <point x="183" y="747" type="curve" smooth="yes"/>
      <point x="124" y="747"/>
      <point x="24" y="705"/>
      <point x="24" y="649" type="curve" smooth="yes"/>
      <point x="24" y="638"/>
      <point x="27" y="618"/>
      <point x="59" y="618" type="curve" smooth="yes"/>
      <point x="81" y="618"/>
      <point x="120" y="640"/>
      <point x="120" y="657" type="curve" smooth="yes"/>
      <point x="120" y="664"/>
      <point x="115" y="664"/>
      <point x="115" y="675" type="curve" smooth="yes"/>
      <point x="115" y="695"/>
      <point x="126" y="705"/>
      <point x="154" y="705" type="curve" smooth="yes"/>
      <point x="211" y="705"/>
      <point x="243" y="675"/>
      <point x="243" y="611" type="curve" smooth="yes"/>
      <point x="243" y="556"/>
      <point x="215" y="530"/>
      <point x="151" y="530" type="curve" smooth="yes"/>
      <point x="112" y="530"/>
      <point x="99" y="515"/>
      <point x="99" y="498" type="curve" smooth="yes"/>
      <point x="99" y="489"/>
      <point x="116" y="487"/>
      <point x="131" y="487" type="curve" smooth="yes"/>
      <point x="142" y="487"/>
      <point x="152" y="488"/>
      <point x="156" y="488" type="curve" smooth="yes"/>
      <point x="224" y="488"/>
      <point x="265" y="465"/>
      <point x="265" y="388" type="curve" name="hr03" smooth="yes"/>
      <point x="265" y="322"/>
      <point x="250" y="304"/>
      <point x="182" y="304" type="curve" smooth="yes"/>
      <point x="131" y="304"/>
      <point x="96" y="351"/>
      <point x="78" y="351" type="curve" smooth="yes"/>
      <point x="54" y="351"/>
      <point x="29" y="317"/>
      <point x="29" y="299" type="curve" smooth="yes"/>
      <point x="29" y="264"/>
      <point x="127" y="253"/>
    </contour>
  </outline>
</glyph>
<glyph name="acute" format="1">
  <advance width="239"/>
  <unicode hex="00B4"/>
  <outline>
    <contour>
      <point x="73" y="549" type="curve" name="hr00" smooth="yes"/>
      <point x="77" y="549"/>
      <point x="81" y="550"/>
      <point x="84" y="552" type="curve" smooth="yes"/>
      <point x="111" y="573"/>
      <point x="199" y="662"/>
      <point x="220" y="710" type="curve"/>
      <point x="220" y="710"/>
      <point x="220" y="711"/>
      <point x="220" y="712" type="curve" smooth="yes"/>
      <point x="220" y="725"/>
      <point x="183" y="773"/>
      <point x="160" y="773" type="curve" smooth="yes"/>
      <point x="156" y="773"/>
      <point x="153" y="772"/>
      <point x="150" y="768" type="curve" smooth="yes"/>
      <point x="37" y="573" type="line"/>
      <point x="37" y="573"/>
      <point x="37" y="572"/>
      <point x="37" y="572" type="curve"/>
      <point x="37" y="567"/>
      <point x="56" y="549"/>
    </contour>
  </outline>
</glyph>
<glyph name="mu" format="1">
  <advance width="508"/>
  <unicode hex="00B5"/>
  <outline>
    <contour>
      <point x="72" y="15" type="curve" name="hr01" smooth="yes"/>
      <point x="72" y="-73"/>
      <point x="49" y="-148"/>
      <point x="19" y="-148" type="curve" smooth="yes"/>
      <point x="11" y="-148"/>
      <point x="0" y="-149"/>
      <point x="0" y="-154" type="curve" smooth="yes"/>
      <point x="0" y="-179"/>
      <point x="82" y="-188"/>
      <point x="105" y="-188" type="curve" smooth="yes"/>
      <point x="139" y="-188"/>
      <point x="149" y="-154"/>
      <point x="149" y="-85" type="curve"/>
      <point x="150" y="-69"/>
      <point x="148" y="-51"/>
      <point x="148" y="-32" type="curve" smooth="yes"/>
      <point x="148" y="27" type="line"/>
      <point x="171" y="0"/>
      <point x="212" y="-17"/>
      <point x="244" y="-17" type="curve" smooth="yes"/>
      <point x="294" y="-17"/>
      <point x="323" y="0"/>
      <point x="351" y="26" type="curve"/>
      <point x="351" y="19" type="line" smooth="yes"/>
      <point x="351" y="-6"/>
      <point x="375" y="-16"/>
      <point x="398" y="-16" type="curve" name="hr02" smooth="yes"/>
      <point x="457" y="-16"/>
      <point x="497" y="25"/>
      <point x="497" y="35" type="curve" smooth="yes"/>
      <point x="497" y="44"/>
      <point x="490" y="50"/>
      <point x="475" y="50" type="curve" smooth="yes"/>
      <point x="459" y="50"/>
      <point x="450" y="43"/>
      <point x="438" y="43" type="curve"/>
      <point x="438" y="447" type="line"/>
      <point x="435" y="458"/>
      <point x="425" y="459"/>
      <point x="416" y="459" type="curve" smooth="yes"/>
      <point x="355" y="459"/>
      <point x="291" y="432"/>
      <point x="291" y="413" type="curve" smooth="yes"/>
      <point x="291" y="405"/>
      <point x="324" y="390"/>
      <point x="351" y="386" type="curve"/>
      <point x="351" y="75" type="line" name="hr03"/>
      <point x="323" y="53"/>
      <point x="293" y="39"/>
      <point x="260" y="39" type="curve" smooth="yes"/>
      <point x="204" y="39"/>
      <point x="153" y="67"/>
      <point x="153" y="168" type="curve" smooth="yes"/>
      <point x="153" y="450" type="line"/>
      <point x="151" y="459"/>
      <point x="142" y="460"/>
      <point x="132" y="460" type="curve" smooth="yes"/>
      <point x="72" y="460"/>
      <point x="23" y="433"/>
      <point x="23" y="414" type="curve" smooth="yes"/>
      <point x="23" y="404"/>
      <point x="40" y="391"/>
      <point x="67" y="387" type="curve"/>
      <point x="67" y="187" type="line" smooth="yes"/>
      <point x="67" y="157"/>
      <point x="72" y="45"/>
    </contour>
  </outline>
</glyph>
<glyph name="paragraph" format="1">
  <advance width="633"/>
  <unicode hex="00B6"/>
  <outline>
    <contour>
      <point x="148" y="18" type="curve" name="hr01" smooth="yes"/>
      <point x="148" y="12"/>
      <point x="160" y="0"/>
      <point x="191" y="0" type="curve" smooth="yes"/>
      <point x="347" y="0" type="line"/>
      <point x="347" y="610" type="line"/>
      <point x="446" y="610" type="line"/>
      <point x="446" y="0" type="line"/>
      <point x="570" y="0" type="line" smooth="yes"/>
      <point x="593" y="0"/>
      <point x="601" y="5"/>
      <point x="601" y="11" type="curve" smooth="yes"/>
      <point x="601" y="35"/>
      <point x="581" y="41"/>
      <point x="536" y="45" type="curve" name="hr02"/>
      <point x="536" y="617" type="line"/>
      <point x="575" y="617"/>
      <point x="589" y="632"/>
      <point x="589" y="645" type="curve" smooth="yes"/>
      <point x="589" y="648"/>
      <point x="583" y="658"/>
      <point x="570" y="658" type="curve" smooth="yes"/>
      <point x="344" y="658" type="line"/>
      <point x="328" y="658" type="line" smooth="yes"/>
      <point x="320" y="658"/>
      <point x="292" y="663"/>
      <point x="244" y="663" type="curve" smooth="yes"/>
      <point x="122" y="663"/>
      <point x="47" y="602"/>
      <point x="47" y="513" type="curve" smooth="yes"/>
      <point x="47" y="388"/>
      <point x="115" y="316"/>
      <point x="208" y="316" type="curve" smooth="yes"/>
      <point x="259" y="316" type="line"/>
      <point x="259" y="57" type="line" name="hr03"/>
      <point x="177" y="57"/>
      <point x="148" y="42"/>
    </contour>
  </outline>
</glyph>
<glyph name="ordmasculine" format="1">
  <advance width="484"/>
  <unicode hex="00BA"/>
  <outline>
    <contour>
      <point x="230" y="273" type="curve" name="hr00" smooth="yes"/>
      <point x="371" y="273"/>
      <point x="429" y="384"/>
      <point x="429" y="485" type="curve" smooth="yes"/>
      <point x="429" y="575"/>
      <point x="385" y="672"/>
      <point x="263" y="672" type="curve" smooth="yes"/>
      <point x="138" y="672"/>
      <point x="69" y="568"/>
      <point x="69" y="458" type="curve" smooth="yes"/>
      <point x="69" y="332"/>
      <point x="139" y="273"/>
    </contour>
    <contour>
      <point x="265" y="320" type="curve" smooth="yes"/>
      <point x="176" y="320"/>
      <point x="150" y="410"/>
      <point x="150" y="485" type="curve" smooth="yes"/>
      <point x="150" y="547"/>
      <point x="167" y="625"/>
      <point x="232" y="625" type="curve" smooth="yes"/>
      <point x="321" y="625"/>
      <point x="346" y="535"/>
      <point x="346" y="458" type="curve" smooth="yes"/>
      <point x="346" y="387"/>
      <point x="326" y="320"/>
    </contour>
  </outline>
</glyph>
<glyph name="onequarter" format="1">
  <advance width="914"/>
  <unicode hex="00BC"/>
  <outline>
    <contour>
      <point x="58" y="270" type="curve" name="hr00"/>
      <point x="281" y="270" type="line" smooth="yes"/>
      <point x="305" y="270"/>
      <point x="316" y="275"/>
      <point x="316" y="290" type="curve" smooth="yes"/>
      <point x="316" y="301"/>
      <point x="308" y="311"/>
      <point x="290" y="311" type="curve" smooth="yes"/>
      <point x="287" y="311"/>
      <point x="283" y="311"/>
      <point x="279" y="311" type="curve" smooth="yes"/>
      <point x="258" y="311"/>
      <point x="223" y="313"/>
      <point x="223" y="333" type="curve" smooth="yes"/>
      <point x="223" y="725" type="line" smooth="yes"/>
      <point x="223" y="733"/>
      <point x="199" y="747"/>
      <point x="186" y="747" type="curve" smooth="yes"/>
      <point x="161" y="747"/>
      <point x="98" y="697"/>
      <point x="40" y="672" type="curve" smooth="yes"/>
      <point x="30" y="667"/>
      <point x="26" y="661"/>
      <point x="26" y="655" type="curve" smooth="yes"/>
      <point x="26" y="643"/>
      <point x="40" y="635"/>
      <point x="55" y="635" type="curve" smooth="yes"/>
      <point x="79" y="635"/>
      <point x="111" y="649"/>
      <point x="138" y="662" type="curve"/>
      <point x="138" y="317" type="line"/>
      <point x="69" y="307"/>
      <point x="33" y="309"/>
      <point x="33" y="289" type="curve" smooth="yes"/>
      <point x="33" y="281"/>
      <point x="37" y="270"/>
    </contour>
    <contour>
      <point x="513" y="75" type="curve" smooth="yes"/>
      <point x="513" y="61"/>
      <point x="532" y="35"/>
      <point x="544" y="35" type="curve" smooth="yes"/>
      <point x="738" y="35" type="line"/>
      <point x="738" y="-82" type="line" smooth="yes"/>
      <point x="738" y="-91"/>
      <point x="754" y="-96"/>
      <point x="765" y="-96" type="curve" smooth="yes"/>
      <point x="787" y="-96"/>
      <point x="822" y="-74"/>
      <point x="822" y="-57" type="curve" smooth="yes"/>
      <point x="822" y="35" type="line"/>
      <point x="846" y="35" type="line" smooth="yes"/>
      <point x="873" y="35"/>
      <point x="894" y="48"/>
      <point x="894" y="67" type="curve" smooth="yes"/>
      <point x="894" y="76"/>
      <point x="887" y="78"/>
      <point x="864" y="78" type="curve" smooth="yes"/>
      <point x="822" y="78" type="line"/>
      <point x="822" y="187" type="line" smooth="yes"/>
      <point x="822" y="196"/>
      <point x="809" y="203"/>
      <point x="796" y="203" type="curve" smooth="yes"/>
      <point x="775" y="203"/>
      <point x="738" y="181"/>
      <point x="738" y="162" type="curve" smooth="yes"/>
      <point x="738" y="78" type="line"/>
      <point x="580" y="78" type="line"/>
      <point x="627" y="139"/>
      <point x="718" y="270"/>
      <point x="762" y="365" type="curve" smooth="yes"/>
      <point x="763" y="367"/>
      <point x="763" y="369"/>
      <point x="763" y="371" type="curve" smooth="yes"/>
      <point x="763" y="390"/>
      <point x="733" y="397"/>
      <point x="713" y="397" type="curve" smooth="yes"/>
      <point x="684" y="397"/>
      <point x="674" y="391"/>
      <point x="669" y="379" type="curve" smooth="yes"/>
      <point x="624" y="268"/>
      <point x="553" y="132"/>
      <point x="514" y="80" type="curve" smooth="yes"/>
      <point x="513" y="78"/>
      <point x="513" y="77"/>
    </contour>
    <component base="fraction" xOffset="207"/>
  </outline>
</glyph>
<glyph name="onehalf" format="1">
  <advance width="932"/>
  <unicode hex="00BD"/>
  <outline>
    <contour>
      <point x="58" y="270" type="curve" name="hr00"/>
      <point x="281" y="270" type="line" smooth="yes"/>
      <point x="305" y="270"/>
      <point x="316" y="275"/>
      <point x="316" y="290" type="curve" smooth="yes"/>
      <point x="316" y="301"/>
      <point x="308" y="311"/>
      <point x="290" y="311" type="curve" smooth="yes"/>
      <point x="287" y="311"/>
      <point x="283" y="311"/>
      <point x="279" y="311" type="curve" smooth="yes"/>
      <point x="258" y="311"/>
      <point x="223" y="313"/>
      <point x="223" y="333" type="curve" smooth="yes"/>
      <point x="223" y="725" type="line" smooth="yes"/>
      <point x="223" y="733"/>
      <point x="199" y="747"/>
      <point x="186" y="747" type="curve" smooth="yes"/>
      <point x="161" y="747"/>
      <point x="98" y="697"/>
      <point x="40" y="672" type="curve" smooth="yes"/>
      <point x="30" y="667"/>
      <point x="26" y="661"/>
      <point x="26" y="655" type="curve" smooth="yes"/>
      <point x="26" y="643"/>
      <point x="40" y="635"/>
      <point x="55" y="635" type="curve" smooth="yes"/>
      <point x="79" y="635"/>
      <point x="111" y="649"/>
      <point x="138" y="662" type="curve"/>
      <point x="138" y="317" type="line"/>
      <point x="69" y="307"/>
      <point x="33" y="309"/>
      <point x="33" y="289" type="curve" smooth="yes"/>
      <point x="33" y="281"/>
      <point x="37" y="270"/>
    </contour>
    <contour>
      <point x="562" y="-57" type="curve" smooth="yes"/>
      <point x="562" y="-62"/>
      <point x="566" y="-70"/>
      <point x="580" y="-70" type="curve" smooth="yes"/>
      <point x="852" y="-70" type="line" smooth="yes"/>
      <point x="893" y="-70"/>
      <point x="904" y="-54"/>
      <point x="906" y="-39" type="curve"/>
      <point x="906" y="-39"/>
      <point x="912" y="5"/>
      <point x="912" y="22" type="curve" smooth="yes"/>
      <point x="912" y="36"/>
      <point x="897" y="41"/>
      <point x="886" y="41" type="curve" smooth="yes"/>
      <point x="862" y="41"/>
      <point x="856" y="31"/>
      <point x="833" y="-13" type="curve"/>
      <point x="656" y="-23" type="line"/>
      <point x="776" y="77"/>
      <point x="878" y="182"/>
      <point x="878" y="273" type="curve" smooth="yes"/>
      <point x="878" y="336"/>
      <point x="851" y="408"/>
      <point x="730" y="408" type="curve" smooth="yes"/>
      <point x="650" y="408"/>
      <point x="560" y="360"/>
      <point x="560" y="296" type="curve" smooth="yes"/>
      <point x="560" y="286"/>
      <point x="563" y="265"/>
      <point x="595" y="265" type="curve" smooth="yes"/>
      <point x="617" y="265"/>
      <point x="655" y="287"/>
      <point x="655" y="304" type="curve" smooth="yes"/>
      <point x="655" y="305"/>
      <point x="655" y="307"/>
      <point x="650" y="312" type="curve" smooth="yes"/>
      <point x="653" y="310" type="line" smooth="yes"/>
      <point x="652" y="311"/>
      <point x="650" y="314"/>
      <point x="650" y="322" type="curve" smooth="yes"/>
      <point x="650" y="349"/>
      <point x="669" y="359"/>
      <point x="702" y="359" type="curve" smooth="yes"/>
      <point x="768" y="359"/>
      <point x="785" y="318"/>
      <point x="785" y="266" type="curve" smooth="yes"/>
      <point x="785" y="172"/>
      <point x="713" y="71"/>
      <point x="582" y="-31" type="curve" smooth="yes"/>
      <point x="575" y="-36"/>
      <point x="562" y="-48"/>
    </contour>
    <component base="fraction" xOffset="207"/>
  </outline>
</glyph>
<glyph name="threequarters" format="1">
  <advance width="987"/>
  <unicode hex="00BE"/>
  <outline>
    <contour>
      <point x="163" y="253" type="curve" name="hr01" smooth="yes"/>
      <point x="261" y="253"/>
      <point x="369" y="312"/>
      <point x="369" y="409" type="curve" smooth="yes"/>
      <point x="369" y="472"/>
      <point x="334" y="509"/>
      <point x="270" y="523" type="curve"/>
      <point x="312" y="544"/>
      <point x="345" y="597"/>
      <point x="345" y="640" type="curve" name="hr02" smooth="yes"/>
      <point x="345" y="699"/>
      <point x="298" y="747"/>
      <point x="198" y="747" type="curve" smooth="yes"/>
      <point x="139" y="747"/>
      <point x="39" y="705"/>
      <point x="39" y="649" type="curve" smooth="yes"/>
      <point x="39" y="638"/>
      <point x="42" y="618"/>
      <point x="74" y="618" type="curve" smooth="yes"/>
      <point x="96" y="618"/>
      <point x="135" y="640"/>
      <point x="135" y="657" type="curve" smooth="yes"/>
      <point x="135" y="664"/>
      <point x="130" y="664"/>
      <point x="130" y="675" type="curve" smooth="yes"/>
      <point x="130" y="695"/>
      <point x="141" y="705"/>
      <point x="169" y="705" type="curve" smooth="yes"/>
      <point x="226" y="705"/>
      <point x="258" y="675"/>
      <point x="258" y="611" type="curve" smooth="yes"/>
      <point x="258" y="556"/>
      <point x="230" y="530"/>
      <point x="166" y="530" type="curve" smooth="yes"/>
      <point x="127" y="530"/>
      <point x="114" y="515"/>
      <point x="114" y="498" type="curve" smooth="yes"/>
      <point x="114" y="489"/>
      <point x="131" y="487"/>
      <point x="146" y="487" type="curve" smooth="yes"/>
      <point x="157" y="487"/>
      <point x="167" y="488"/>
      <point x="171" y="488" type="curve" smooth="yes"/>
      <point x="239" y="488"/>
      <point x="280" y="465"/>
      <point x="280" y="388" type="curve" name="hr03" smooth="yes"/>
      <point x="280" y="322"/>
      <point x="265" y="304"/>
      <point x="197" y="304" type="curve" smooth="yes"/>
      <point x="146" y="304"/>
      <point x="111" y="351"/>
      <point x="93" y="351" type="curve" smooth="yes"/>
      <point x="69" y="351"/>
      <point x="44" y="317"/>
      <point x="44" y="299" type="curve" smooth="yes"/>
      <point x="44" y="264"/>
      <point x="142" y="253"/>
    </contour>
    <contour>
      <point x="586" y="75" type="curve" smooth="yes"/>
      <point x="586" y="61"/>
      <point x="605" y="35"/>
      <point x="617" y="35" type="curve" smooth="yes"/>
      <point x="811" y="35" type="line"/>
      <point x="811" y="-82" type="line" smooth="yes"/>
      <point x="811" y="-91"/>
      <point x="827" y="-96"/>
      <point x="838" y="-96" type="curve" smooth="yes"/>
      <point x="860" y="-96"/>
      <point x="895" y="-74"/>
      <point x="895" y="-57" type="curve" smooth="yes"/>
      <point x="895" y="35" type="line"/>
      <point x="919" y="35" type="line" smooth="yes"/>
      <point x="946" y="35"/>
      <point x="967" y="48"/>
      <point x="967" y="67" type="curve" smooth="yes"/>
      <point x="967" y="76"/>
      <point x="960" y="78"/>
      <point x="937" y="78" type="curve" smooth="yes"/>
      <point x="895" y="78" type="line"/>
      <point x="895" y="187" type="line" smooth="yes"/>
      <point x="895" y="196"/>
      <point x="882" y="203"/>
      <point x="869" y="203" type="curve" smooth="yes"/>
      <point x="848" y="203"/>
      <point x="811" y="181"/>
      <point x="811" y="162" type="curve" smooth="yes"/>
      <point x="811" y="78" type="line"/>
      <point x="653" y="78" type="line"/>
      <point x="700" y="139"/>
      <point x="791" y="270"/>
      <point x="835" y="365" type="curve" smooth="yes"/>
      <point x="836" y="367"/>
      <point x="836" y="369"/>
      <point x="836" y="371" type="curve" smooth="yes"/>
      <point x="836" y="390"/>
      <point x="806" y="397"/>
      <point x="786" y="397" type="curve" smooth="yes"/>
      <point x="757" y="397"/>
      <point x="747" y="391"/>
      <point x="742" y="379" type="curve" smooth="yes"/>
      <point x="697" y="268"/>
      <point x="626" y="132"/>
      <point x="587" y="80" type="curve" smooth="yes"/>
      <point x="586" y="78"/>
      <point x="586" y="77"/>
    </contour>
    <component base="fraction" xOffset="280"/>
  </outline>
</glyph>
<glyph name="Ccedilla" format="1">
  <advance width="567"/>
  <unicode hex="00C7"/>
  <outline>
    <contour>
      <point x="257" y="-9" type="curve" name="hr01"/>
      <point x="243" y="-100" type="line"/>
      <point x="249" y="-99"/>
      <point x="256" y="-99"/>
      <point x="262" y="-99" type="curve" smooth="yes"/>
      <point x="303" y="-99"/>
      <point x="341" y="-110"/>
      <point x="341" y="-146" type="curve" smooth="yes"/>
      <point x="341" y="-201"/>
      <point x="296" y="-211"/>
      <point x="253" y="-211" type="curve" smooth="yes"/>
      <point x="242" y="-211"/>
      <point x="225" y="-205"/>
      <point x="214" y="-205" type="curve" smooth="yes"/>
      <point x="209" y="-205"/>
      <point x="199" y="-223"/>
      <point x="199" y="-236" type="curve" smooth="yes"/>
      <point x="199" y="-257"/>
      <point x="265" y="-264"/>
      <point x="284" y="-264" type="curve" smooth="yes"/>
      <point x="364" y="-264"/>
      <point x="436" y="-221"/>
      <point x="436" y="-141" type="curve" smooth="yes"/>
      <point x="436" y="-84"/>
      <point x="374" y="-64"/>
      <point x="328" y="-64" type="curve"/>
      <point x="328" y="-16" type="line" name="hr02"/>
      <point x="421" y="-13"/>
      <point x="492" y="21"/>
      <point x="541" y="82" type="curve"/>
      <point x="547" y="88"/>
      <point x="550" y="97"/>
      <point x="550" y="103" type="curve" smooth="yes"/>
      <point x="550" y="111"/>
      <point x="538" y="114"/>
      <point x="529" y="114" type="curve" smooth="yes"/>
      <point x="520" y="114"/>
      <point x="481" y="87"/>
      <point x="467" y="76" type="curve" smooth="yes"/>
      <point x="439" y="52"/>
      <point x="385" y="43"/>
      <point x="363" y="43" type="curve" smooth="yes"/>
      <point x="231" y="43"/>
      <point x="134" y="160"/>
      <point x="134" y="341" type="curve" smooth="yes"/>
      <point x="134" y="483"/>
      <point x="178" y="616"/>
      <point x="327" y="616" type="curve" smooth="yes"/>
      <point x="384" y="616"/>
      <point x="455" y="584"/>
      <point x="465" y="553" type="curve"/>
      <point x="465" y="553"/>
      <point x="488" y="465"/>
      <point x="504" y="465" type="curve" smooth="yes"/>
      <point x="551" y="465"/>
      <point x="539" y="562"/>
      <point x="539" y="600" type="curve"/>
      <point x="535" y="631"/>
      <point x="449" y="672"/>
      <point x="373" y="672" type="curve" smooth="yes"/>
      <point x="178" y="672"/>
      <point x="41" y="534"/>
      <point x="41" y="314" type="curve" smooth="yes"/>
      <point x="41" y="127"/>
      <point x="145" y="18"/>
    </contour>
  </outline>
</glyph>
<glyph name="germandbls" format="1">
  <advance width="515"/>
  <unicode hex="00DF"/>
  <outline>
    <contour>
      <point x="85" y="-4" type="line" name="hr01"/>
      <point x="91" y="-12"/>
      <point x="99" y="-16"/>
      <point x="108" y="-16" type="curve" smooth="yes"/>
      <point x="129" y="-16"/>
      <point x="164" y="2"/>
      <point x="169" y="17" type="curve"/>
      <point x="169" y="539" type="line" smooth="yes"/>
      <point x="169" y="578"/>
      <point x="177" y="672"/>
      <point x="259" y="672" type="curve" smooth="yes"/>
      <point x="328" y="672"/>
      <point x="348" y="626"/>
      <point x="348" y="567" type="curve" name="hr02" smooth="yes"/>
      <point x="348" y="470"/>
      <point x="244" y="468"/>
      <point x="244" y="383" type="curve" smooth="yes"/>
      <point x="244" y="297"/>
      <point x="408" y="265"/>
      <point x="408" y="153" type="curve" name="hr03" smooth="yes"/>
      <point x="408" y="72"/>
      <point x="394" y="61"/>
      <point x="310" y="61" type="curve" smooth="yes"/>
      <point x="266" y="61"/>
      <point x="258" y="50"/>
      <point x="258" y="12" type="curve" smooth="yes"/>
      <point x="258" y="7"/>
      <point x="262" y="3"/>
      <point x="272" y="0" type="curve"/>
      <point x="316" y="0" type="line" smooth="yes"/>
      <point x="416" y="0"/>
      <point x="488" y="79"/>
      <point x="488" y="186" type="curve" smooth="yes"/>
      <point x="488" y="318"/>
      <point x="316" y="352"/>
      <point x="315" y="416" type="curve" smooth="yes"/>
      <point x="315" y="422"/>
      <point x="315" y="427"/>
      <point x="317" y="433" type="curve"/>
      <point x="386" y="492"/>
      <point x="429" y="502"/>
      <point x="429" y="602" type="curve" name="hr04" smooth="yes"/>
      <point x="429" y="685"/>
      <point x="358" y="729"/>
      <point x="300" y="729" type="curve" smooth="yes"/>
      <point x="162" y="729"/>
      <point x="90" y="587"/>
      <point x="85" y="458" type="curve"/>
      <point x="42" y="458" type="line" smooth="yes"/>
      <point x="23" y="458"/>
      <point x="11" y="435"/>
      <point x="11" y="420" type="curve" smooth="yes"/>
      <point x="11" y="410"/>
      <point x="14" y="402"/>
      <point x="31" y="402" type="curve" smooth="yes"/>
      <point x="85" y="402" type="line"/>
    </contour>
  </outline>
</glyph>
<glyph name="ae" format="1">
  <advance width="733"/>
  <unicode hex="00E6"/>
  <outline>
    <contour>
      <point x="39" y="101" type="curve" name="hr01" smooth="yes"/>
      <point x="39" y="50"/>
      <point x="77" y="-16"/>
      <point x="177" y="-16" type="curve" smooth="yes"/>
      <point x="248" y="-16"/>
      <point x="292" y="29"/>
      <point x="333" y="82" type="curve"/>
      <point x="356" y="24"/>
      <point x="404" y="-16"/>
      <point x="493" y="-16" type="curve" smooth="yes"/>
      <point x="592" y="-16"/>
      <point x="678" y="30"/>
      <point x="678" y="66" type="curve" smooth="yes"/>
      <point x="678" y="72"/>
      <point x="674" y="77"/>
      <point x="664" y="77" type="curve" smooth="yes"/>
      <point x="632" y="77"/>
      <point x="617" y="42"/>
      <point x="518" y="42" type="curve" smooth="yes"/>
      <point x="426" y="42"/>
      <point x="401" y="131"/>
      <point x="398" y="221" type="curve" name="hr02"/>
      <point x="652" y="221" type="line" smooth="yes"/>
      <point x="670" y="221"/>
      <point x="692" y="220"/>
      <point x="692" y="240" type="curve" smooth="yes"/>
      <point x="689" y="343"/>
      <point x="669" y="477"/>
      <point x="517" y="477" type="curve" smooth="yes"/>
      <point x="458" y="477"/>
      <point x="413" y="455"/>
      <point x="381" y="420" type="curve"/>
      <point x="363" y="453"/>
      <point x="329" y="477"/>
      <point x="264" y="477" type="curve" name="hr03" smooth="yes"/>
      <point x="205" y="477"/>
      <point x="53" y="421"/>
      <point x="53" y="346" type="curve" smooth="yes"/>
      <point x="53" y="333"/>
      <point x="56" y="309"/>
      <point x="86" y="309" type="curve" smooth="yes"/>
      <point x="112" y="309"/>
      <point x="151" y="333"/>
      <point x="151" y="355" type="curve" smooth="yes"/>
      <point x="151" y="361"/>
      <point x="144" y="362"/>
      <point x="144" y="381" type="curve" smooth="yes"/>
      <point x="144" y="415"/>
      <point x="148" y="420"/>
      <point x="219" y="420" type="curve" smooth="yes"/>
      <point x="247" y="420"/>
      <point x="281" y="416"/>
      <point x="297" y="389" type="curve" smooth="yes"/>
      <point x="313" y="362"/>
      <point x="314" y="329"/>
      <point x="314" y="297" type="curve" smooth="yes"/>
      <point x="314" y="275" type="line"/>
      <point x="177" y="266"/>
      <point x="39" y="220"/>
    </contour>
    <contour>
      <point x="398" y="266" type="line" name="hr05"/>
      <point x="401" y="356"/>
      <point x="419" y="423"/>
      <point x="486" y="423" type="curve" smooth="yes"/>
      <point x="577" y="423"/>
      <point x="591" y="356"/>
      <point x="593" y="273" type="curve"/>
    </contour>
    <contour>
      <point x="133" y="134" type="curve" name="hr06" smooth="yes"/>
      <point x="133" y="211"/>
      <point x="236" y="225"/>
      <point x="314" y="229" type="curve"/>
      <point x="314" y="95" type="line"/>
      <point x="291" y="62"/>
      <point x="256" y="40"/>
      <point x="227" y="40" type="curve" smooth="yes"/>
      <point x="155" y="40"/>
      <point x="133" y="81"/>
    </contour>
  </outline>
</glyph>
<glyph name="thorn" format="1">
  <advance width="510"/>
  <unicode hex="00FE"/>
  <outline>
    <contour>
      <point x="141" y="-1" type="line" name="hr01"/>
      <point x="165" y="-10"/>
      <point x="194" y="-16"/>
      <point x="225" y="-16" type="curve" name="hr02" smooth="yes"/>
      <point x="398" y="-16"/>
      <point x="481" y="132"/>
      <point x="481" y="266" type="curve" smooth="yes"/>
      <point x="481" y="400"/>
      <point x="390" y="477"/>
      <point x="290" y="477" type="curve" smooth="yes"/>
      <point x="231" y="477"/>
      <point x="184" y="452"/>
      <point x="144" y="416" type="curve"/>
      <point x="154" y="561" type="line"/>
      <point x="154" y="704" type="line"/>
      <point x="151" y="710"/>
      <point x="142" y="713"/>
      <point x="131" y="713" type="curve" smooth="yes"/>
      <point x="91" y="713"/>
      <point x="23" y="705"/>
      <point x="23" y="670" type="curve" smooth="yes"/>
      <point x="23" y="662"/>
      <point x="41" y="653"/>
      <point x="70" y="649" type="curve"/>
      <point x="70" y="-175" type="line"/>
      <point x="49" y="-184"/>
      <point x="25" y="-194"/>
      <point x="25" y="-206" type="curve" smooth="yes"/>
      <point x="25" y="-210"/>
      <point x="32" y="-215"/>
      <point x="44" y="-218" type="curve"/>
      <point x="159" y="-218" type="line" smooth="yes"/>
      <point x="204" y="-218"/>
      <point x="213" y="-213"/>
      <point x="213" y="-207" type="curve" smooth="yes"/>
      <point x="213" y="-183"/>
      <point x="198" y="-173"/>
      <point x="151" y="-173" type="curve"/>
      <point x="151" y="-64" type="line" name="hr03"/>
    </contour>
    <contour>
      <point x="152" y="81" type="curve" name="hr04"/>
      <point x="151" y="380" type="line"/>
      <point x="178" y="409"/>
      <point x="213" y="421"/>
      <point x="244" y="421" type="curve" smooth="yes"/>
      <point x="336" y="421"/>
      <point x="390" y="341"/>
      <point x="390" y="222" type="curve" smooth="yes"/>
      <point x="390" y="124"/>
      <point x="351" y="41"/>
      <point x="261" y="41" type="curve" smooth="yes"/>
      <point x="236" y="41"/>
      <point x="177" y="48"/>
    </contour>
  </outline>
</glyph>
<glyph name="aogonek" format="1">
  <advance width="476"/>
  <unicode hex="0105"/>
  <outline>
    <contour>
      <point x="39" y="101" type="curve" name="hr01" smooth="yes"/>
      <point x="39" y="50"/>
      <point x="77" y="-16"/>
      <point x="177" y="-16" type="curve" name="hr02" smooth="yes"/>
      <point x="235" y="-16"/>
      <point x="274" y="15"/>
      <point x="309" y="57" type="curve"/>
      <point x="309" y="19" type="line" name="hr03" smooth="yes"/>
      <point x="309" y="1"/>
      <point x="320" y="-9"/>
      <point x="336" y="-13" type="curve"/>
      <point x="301" y="-37"/>
      <point x="271" y="-71"/>
      <point x="271" y="-113" type="curve" name="hr04" smooth="yes"/>
      <point x="271" y="-172"/>
      <point x="317" y="-209"/>
      <point x="377" y="-209" type="curve" smooth="yes"/>
      <point x="473" y="-209"/>
      <point x="488" y="-147"/>
      <point x="488" y="-136" type="curve" smooth="yes"/>
      <point x="488" y="-131"/>
      <point x="483" y="-118"/>
      <point x="474" y="-118" type="curve" smooth="yes"/>
      <point x="472" y="-118"/>
      <point x="471" y="-118"/>
      <point x="469" y="-119" type="curve" smooth="yes"/>
      <point x="437" y="-136"/>
      <point x="414" y="-137"/>
      <point x="399" y="-137" type="curve" smooth="yes"/>
      <point x="373" y="-137"/>
      <point x="362" y="-110"/>
      <point x="362" y="-95" type="curve" smooth="yes"/>
      <point x="362" y="-52"/>
      <point x="376" y="-28"/>
      <point x="397" y="-9" type="curve"/>
      <point x="436" y="3"/>
      <point x="462" y="29"/>
      <point x="462" y="37" type="curve" name="hr05" smooth="yes"/>
      <point x="462" y="46"/>
      <point x="459" y="52"/>
      <point x="444" y="52" type="curve" smooth="yes"/>
      <point x="428" y="52"/>
      <point x="412" y="43"/>
      <point x="397" y="43" type="curve"/>
      <point x="397" y="329" type="line" smooth="yes"/>
      <point x="397" y="401"/>
      <point x="377" y="477"/>
      <point x="264" y="477" type="curve" smooth="yes"/>
      <point x="197" y="477"/>
      <point x="53" y="409"/>
      <point x="53" y="346" type="curve" smooth="yes"/>
      <point x="53" y="333"/>
      <point x="56" y="309"/>
      <point x="86" y="309" type="curve" smooth="yes"/>
      <point x="112" y="309"/>
      <point x="151" y="333"/>
      <point x="151" y="355" type="curve" smooth="yes"/>
      <point x="151" y="361"/>
      <point x="144" y="362"/>
      <point x="144" y="381" type="curve" smooth="yes"/>
      <point x="144" y="415"/>
      <point x="148" y="420"/>
      <point x="219" y="420" type="curve" smooth="yes"/>
      <point x="245" y="420"/>
      <point x="276" y="416"/>
      <point x="292" y="389" type="curve" smooth="yes"/>
      <point x="307" y="362"/>
      <point x="309" y="329"/>
      <point x="309" y="297" type="curve" smooth="yes"/>
      <point x="309" y="275" type="line"/>
      <point x="174" y="265"/>
      <point x="39" y="220"/>
    </contour>
    <contour>
      <point x="133" y="134" type="curve" name="hr07" smooth="yes"/>
      <point x="133" y="211"/>
      <point x="234" y="225"/>
      <point x="309" y="229" type="curve"/>
      <point x="309" y="94" type="line"/>
      <point x="287" y="62"/>
      <point x="254" y="40"/>
      <point x="227" y="40" type="curve" smooth="yes"/>
      <point x="155" y="40"/>
      <point x="133" y="81"/>
    </contour>
  </outline>
</glyph>
<glyph name="dcaron" format="1">
  <advance width="587"/>
  <unicode hex="010F"/>
  <outline>
    <contour>
      <point x="537" y="526" type="line" name="hr00" smooth="yes"/>
      <point x="537" y="523"/>
      <point x="546" y="520"/>
      <point x="556" y="520" type="curve" smooth="yes"/>
      <point x="568" y="520"/>
      <point x="582" y="524"/>
      <point x="587" y="535" type="curve"/>
      <point x="596" y="561"/>
      <point x="610" y="644"/>
      <point x="610" y="703" type="curve" smooth="yes"/>
      <point x="610" y="737"/>
      <point x="608" y="763"/>
      <point x="539" y="763" type="curve" smooth="yes"/>
      <point x="524" y="763"/>
      <point x="516" y="760"/>
      <point x="516" y="749" type="curve"/>
    </contour>
    <component base="d" xOffset="-2"/>
  </outline>
</glyph>
<glyph name="eogonek" format="1">
  <advance width="481"/>
  <unicode hex="0119"/>
  <outline>
    <contour>
      <point x="37" y="202" type="curve" name="hr00" smooth="yes"/>
      <point x="37" y="88"/>
      <point x="99" y="-16"/>
      <point x="241" y="-16" type="curve" smooth="yes"/>
      <point x="250" y="-16"/>
      <point x="258" y="-15"/>
      <point x="266" y="-15" type="curve"/>
      <point x="236" y="-37"/>
      <point x="213" y="-69"/>
      <point x="213" y="-113" type="curve" smooth="yes"/>
      <point x="213" y="-172"/>
      <point x="262" y="-209"/>
      <point x="319" y="-209" type="curve" smooth="yes"/>
      <point x="419" y="-209"/>
      <point x="430" y="-146"/>
      <point x="430" y="-136" type="curve" smooth="yes"/>
      <point x="430" y="-131"/>
      <point x="425" y="-118"/>
      <point x="416" y="-118" type="curve" smooth="yes"/>
      <point x="414" y="-118"/>
      <point x="413" y="-118"/>
      <point x="411" y="-119" type="curve" smooth="yes"/>
      <point x="382" y="-136"/>
      <point x="359" y="-137"/>
      <point x="342" y="-137" type="curve" smooth="yes"/>
      <point x="315" y="-137"/>
      <point x="304" y="-110"/>
      <point x="304" y="-95" type="curve" smooth="yes"/>
      <point x="304" y="-13"/>
      <point x="367" y="4"/>
      <point x="414" y="42" type="curve" smooth="yes"/>
      <point x="424" y="50"/>
      <point x="426" y="58"/>
      <point x="426" y="66" type="curve" smooth="yes"/>
      <point x="426" y="72"/>
      <point x="422" y="77"/>
      <point x="412" y="77" type="curve" smooth="yes"/>
      <point x="380" y="77"/>
      <point x="365" y="42"/>
      <point x="266" y="42" type="curve" smooth="yes"/>
      <point x="174" y="42"/>
      <point x="134" y="131"/>
      <point x="129" y="221" type="curve"/>
      <point x="400" y="221" type="line" smooth="yes"/>
      <point x="418" y="221"/>
      <point x="440" y="220"/>
      <point x="440" y="240" type="curve" smooth="yes"/>
      <point x="437" y="343"/>
      <point x="417" y="477"/>
      <point x="265" y="477" type="curve" smooth="yes"/>
      <point x="125" y="477"/>
      <point x="37" y="356"/>
    </contour>
    <contour>
      <point x="129" y="266" type="line"/>
      <point x="134" y="356"/>
      <point x="167" y="423"/>
      <point x="234" y="423" type="curve" smooth="yes"/>
      <point x="325" y="423"/>
      <point x="339" y="356"/>
      <point x="341" y="273" type="curve"/>
    </contour>
  </outline>
</glyph>
<glyph name="hbar" format="1">
  <advance width="537"/>
  <unicode hex="0127"/>
  <outline>
    <contour>
      <point x="30" y="20" type="curve" name="hr00" smooth="yes"/>
      <point x="30" y="12"/>
      <point x="33" y="0"/>
      <point x="49" y="0" type="curve" smooth="yes"/>
      <point x="215" y="0" type="line" smooth="yes"/>
      <point x="239" y="0"/>
      <point x="249" y="6"/>
      <point x="249" y="22" type="curve" smooth="yes"/>
      <point x="249" y="55"/>
      <point x="174" y="35"/>
      <point x="171" y="70" type="curve"/>
      <point x="171" y="376" type="line"/>
      <point x="201" y="403"/>
      <point x="247" y="417"/>
      <point x="287" y="417" type="curve" smooth="yes"/>
      <point x="340" y="417"/>
      <point x="375" y="382"/>
      <point x="375" y="289" type="curve" smooth="yes"/>
      <point x="375" y="50" type="line"/>
      <point x="364" y="44"/>
      <point x="323" y="33"/>
      <point x="323" y="20" type="curve" smooth="yes"/>
      <point x="323" y="12"/>
      <point x="326" y="0"/>
      <point x="342" y="0" type="curve" smooth="yes"/>
      <point x="504" y="0" type="line" smooth="yes"/>
      <point x="528" y="0"/>
      <point x="538" y="16"/>
      <point x="538" y="22" type="curve" smooth="yes"/>
      <point x="538" y="55"/>
      <point x="464" y="35"/>
      <point x="461" y="70" type="curve"/>
      <point x="461" y="329" type="line" smooth="yes"/>
      <point x="461" y="362"/>
      <point x="460" y="399"/>
      <point x="434" y="432" type="curve"/>
      <point x="436" y="432" type="line"/>
      <point x="415" y="469"/>
      <point x="372" y="477"/>
      <point x="327" y="477" type="curve" smooth="yes"/>
      <point x="268" y="477"/>
      <point x="216" y="451"/>
      <point x="171" y="418" type="curve"/>
      <point x="171" y="538" type="line"/>
      <point x="252" y="538" type="line" smooth="yes"/>
      <point x="271" y="538"/>
      <point x="305" y="548"/>
      <point x="305" y="584" type="curve" smooth="yes"/>
      <point x="305" y="591"/>
      <point x="293" y="598"/>
      <point x="281" y="598" type="curve" smooth="yes"/>
      <point x="171" y="598" type="line"/>
      <point x="171" y="714" type="line"/>
      <point x="168" y="723"/>
      <point x="159" y="723"/>
      <point x="148" y="723" type="curve" smooth="yes"/>
      <point x="107" y="723"/>
      <point x="36" y="716"/>
      <point x="36" y="680" type="curve" smooth="yes"/>
      <point x="36" y="672"/>
      <point x="54" y="663"/>
      <point x="83" y="659" type="curve"/>
      <point x="83" y="598" type="line"/>
      <point x="43" y="598" type="line" smooth="yes"/>
      <point x="33" y="598"/>
      <point x="3" y="580"/>
      <point x="3" y="561" type="curve" smooth="yes"/>
      <point x="3" y="546"/>
      <point x="15" y="538"/>
      <point x="22" y="538" type="curve" smooth="yes"/>
      <point x="83" y="538" type="line"/>
      <point x="83" y="51" type="line"/>
      <point x="72" y="46"/>
      <point x="30" y="32"/>
    </contour>
  </outline>
</glyph>
<glyph name="iogonek" format="1">
  <advance width="280"/>
  <unicode hex="012F"/>
  <outline>
    <contour>
      <point x="156" y="554" type="curve" name="hr01" smooth="yes"/>
      <point x="182" y="554"/>
      <point x="211" y="589"/>
      <point x="211" y="612" type="curve" smooth="yes"/>
      <point x="211" y="630"/>
      <point x="195" y="658"/>
      <point x="133" y="658" type="curve" smooth="yes"/>
      <point x="107" y="658"/>
      <point x="80" y="618"/>
      <point x="80" y="596" type="curve" smooth="yes"/>
      <point x="80" y="587"/>
      <point x="95" y="554"/>
    </contour>
    <contour>
      <point x="43" y="20" type="curve" name="hr02" smooth="yes"/>
      <point x="43" y="12"/>
      <point x="46" y="0"/>
      <point x="62" y="0" type="curve" smooth="yes"/>
      <point x="106" y="0" type="line"/>
      <point x="65" y="-23"/>
      <point x="29" y="-58"/>
      <point x="29" y="-113" type="curve" smooth="yes"/>
      <point x="29" y="-172"/>
      <point x="78" y="-209"/>
      <point x="135" y="-209" type="curve" smooth="yes"/>
      <point x="235" y="-209"/>
      <point x="246" y="-146"/>
      <point x="246" y="-136" type="curve" smooth="yes"/>
      <point x="246" y="-131"/>
      <point x="241" y="-118"/>
      <point x="232" y="-118" type="curve" smooth="yes"/>
      <point x="230" y="-118"/>
      <point x="229" y="-118"/>
      <point x="227" y="-119" type="curve" smooth="yes"/>
      <point x="198" y="-136"/>
      <point x="175" y="-137"/>
      <point x="158" y="-137" type="curve" smooth="yes"/>
      <point x="131" y="-137"/>
      <point x="120" y="-110"/>
      <point x="120" y="-95" type="curve" smooth="yes"/>
      <point x="120" y="-49"/>
      <point x="140" y="-21"/>
      <point x="167" y="0" type="curve"/>
      <point x="228" y="0" type="line" name="hr03" smooth="yes"/>
      <point x="252" y="0"/>
      <point x="262" y="9"/>
      <point x="262" y="22" type="curve" smooth="yes"/>
      <point x="262" y="55"/>
      <point x="192" y="33"/>
      <point x="192" y="74" type="curve" smooth="yes"/>
      <point x="192" y="457" type="line"/>
      <point x="190" y="465"/>
      <point x="171" y="467"/>
      <point x="159" y="467" type="curve" smooth="yes"/>
      <point x="116" y="467"/>
      <point x="43" y="436"/>
      <point x="43" y="409" type="curve" smooth="yes"/>
      <point x="43" y="399"/>
      <point x="81" y="385"/>
      <point x="108" y="380" type="curve"/>
      <point x="108" y="54" type="line"/>
      <point x="93" y="47"/>
      <point x="43" y="34"/>
    </contour>
  </outline>
</glyph>
<glyph name="oe" format="1">
  <advance width="847"/>
  <unicode hex="0153"/>
  <outline>
    <contour>
      <point x="42" y="210" type="curve" name="hr01" smooth="yes"/>
      <point x="42" y="59"/>
      <point x="129" y="-16"/>
      <point x="239" y="-16" type="curve" smooth="yes"/>
      <point x="307" y="-16"/>
      <point x="386" y="13"/>
      <point x="425" y="69" type="curve"/>
      <point x="457" y="18"/>
      <point x="513" y="-16"/>
      <point x="599" y="-16" type="curve" name="hr02" smooth="yes"/>
      <point x="698" y="-16"/>
      <point x="784" y="31"/>
      <point x="784" y="68" type="curve" smooth="yes"/>
      <point x="784" y="74"/>
      <point x="778" y="82"/>
      <point x="758" y="82" type="curve" smooth="yes"/>
      <point x="712" y="82"/>
      <point x="718" y="42"/>
      <point x="621" y="42" type="curve" smooth="yes"/>
      <point x="526" y="42"/>
      <point x="485" y="131"/>
      <point x="480" y="221" type="curve"/>
      <point x="760" y="221" type="line" smooth="yes"/>
      <point x="781" y="221"/>
      <point x="803" y="220"/>
      <point x="803" y="240" type="curve" smooth="yes"/>
      <point x="800" y="343"/>
      <point x="779" y="477"/>
      <point x="620" y="477" type="curve" smooth="yes"/>
      <point x="542" y="477"/>
      <point x="480" y="440"/>
      <point x="440" y="380" type="curve"/>
      <point x="410" y="435"/>
      <point x="358" y="475"/>
      <point x="281" y="475" type="curve" name="hr03" smooth="yes"/>
      <point x="215" y="475"/>
      <point x="150" y="450"/>
      <point x="115" y="408" type="curve"/>
      <point x="116" y="408" type="line"/>
      <point x="62" y="349"/>
      <point x="42" y="289"/>
    </contour>
    <contour>
      <point x="135" y="244" type="curve" smooth="yes"/>
      <point x="135" y="345"/>
      <point x="167" y="426"/>
      <point x="242" y="426" type="curve" name="hr05" smooth="yes"/>
      <point x="355" y="426"/>
      <point x="390" y="309"/>
      <point x="390" y="210" type="curve" smooth="yes"/>
      <point x="390" y="120"/>
      <point x="363" y="33"/>
      <point x="284" y="33" type="curve" smooth="yes"/>
      <point x="168" y="33"/>
      <point x="135" y="149"/>
    </contour>
    <contour>
      <point x="480" y="255" type="line"/>
      <point x="483" y="351"/>
      <point x="516" y="423"/>
      <point x="592" y="423" type="curve" smooth="yes"/>
      <point x="690" y="423"/>
      <point x="703" y="351"/>
      <point x="705" y="263" type="curve"/>
    </contour>
  </outline>
</glyph>
<glyph name="uni015E" format="1">
  <advance width="501"/>
  <unicode hex="015E"/>
  <outline>
    <contour>
      <point x="58" y="33" type="curve" name="hr01" smooth="yes"/>
      <point x="80" y="13"/>
      <point x="142" y="-5"/>
      <point x="195" y="-13" type="curve" name="hr02"/>
      <point x="181" y="-100" type="line"/>
      <point x="187" y="-99"/>
      <point x="194" y="-99"/>
      <point x="200" y="-99" type="curve" smooth="yes"/>
      <point x="241" y="-99"/>
      <point x="279" y="-110"/>
      <point x="279" y="-146" type="curve" smooth="yes"/>
      <point x="279" y="-201"/>
      <point x="234" y="-211"/>
      <point x="191" y="-211" type="curve" smooth="yes"/>
      <point x="180" y="-211"/>
      <point x="163" y="-205"/>
      <point x="152" y="-205" type="curve" smooth="yes"/>
      <point x="147" y="-205"/>
      <point x="137" y="-223"/>
      <point x="137" y="-236" type="curve" smooth="yes"/>
      <point x="137" y="-257"/>
      <point x="203" y="-264"/>
      <point x="222" y="-264" type="curve" smooth="yes"/>
      <point x="302" y="-264"/>
      <point x="374" y="-221"/>
      <point x="374" y="-141" type="curve" smooth="yes"/>
      <point x="374" y="-84"/>
      <point x="312" y="-64"/>
      <point x="266" y="-64" type="curve" name="hr03"/>
      <point x="266" y="-14" type="line"/>
      <point x="375" y="-2"/>
      <point x="472" y="78"/>
      <point x="472" y="179" type="curve" smooth="yes"/>
      <point x="472" y="424"/>
      <point x="131" y="340"/>
      <point x="131" y="520" type="curve" name="hr04" smooth="yes"/>
      <point x="131" y="581"/>
      <point x="186" y="614"/>
      <point x="244" y="614" type="curve" smooth="yes"/>
      <point x="318" y="614"/>
      <point x="365" y="590"/>
      <point x="387" y="553" type="curve" name="hr05"/>
      <point x="387" y="553"/>
      <point x="401" y="483"/>
      <point x="417" y="483" type="curve" smooth="yes"/>
      <point x="444" y="483"/>
      <point x="440" y="563"/>
      <point x="440" y="593" type="curve" smooth="yes"/>
      <point x="440" y="633"/>
      <point x="357" y="672"/>
      <point x="290" y="672" type="curve" smooth="yes"/>
      <point x="169" y="672"/>
      <point x="60" y="600"/>
      <point x="60" y="490" type="curve" smooth="yes"/>
      <point x="60" y="240"/>
      <point x="397" y="347"/>
      <point x="397" y="142" type="curve" name="hr06" smooth="yes"/>
      <point x="397" y="91"/>
      <point x="338" y="45"/>
      <point x="280" y="45" type="curve" smooth="yes"/>
      <point x="177" y="45"/>
      <point x="120" y="76"/>
      <point x="109" y="112" type="curve" name="hr07"/>
      <point x="109" y="112"/>
      <point x="94" y="188"/>
      <point x="78" y="188" type="curve" smooth="yes"/>
      <point x="69" y="188"/>
      <point x="59" y="183"/>
      <point x="59" y="171" type="curve" smooth="yes"/>
      <point x="58" y="136"/>
      <point x="54" y="52"/>
      <point x="54" y="48" type="curve" smooth="yes"/>
      <point x="54" y="39"/>
      <point x="56" y="34"/>
    </contour>
  </outline>
</glyph>
<glyph name="uni015F" format="1">
  <advance width="409"/>
  <unicode hex="015F"/>
  <outline>
    <contour>
      <point x="48" y="44" type="curve" name="hr01"/>
      <point x="68" y="12"/>
      <point x="124" y="-10"/>
      <point x="171" y="-15" type="curve" name="hr02"/>
      <point x="158" y="-100" type="line"/>
      <point x="164" y="-99"/>
      <point x="171" y="-99"/>
      <point x="177" y="-99" type="curve" smooth="yes"/>
      <point x="218" y="-99"/>
      <point x="256" y="-110"/>
      <point x="256" y="-146" type="curve" smooth="yes"/>
      <point x="256" y="-201"/>
      <point x="211" y="-211"/>
      <point x="168" y="-211" type="curve" smooth="yes"/>
      <point x="157" y="-211"/>
      <point x="140" y="-205"/>
      <point x="129" y="-205" type="curve" smooth="yes"/>
      <point x="124" y="-205"/>
      <point x="114" y="-223"/>
      <point x="114" y="-236" type="curve" smooth="yes"/>
      <point x="114" y="-257"/>
      <point x="180" y="-264"/>
      <point x="199" y="-264" type="curve" smooth="yes"/>
      <point x="279" y="-264"/>
      <point x="351" y="-221"/>
      <point x="351" y="-141" type="curve" smooth="yes"/>
      <point x="351" y="-84"/>
      <point x="289" y="-64"/>
      <point x="243" y="-64" type="curve" name="hr03"/>
      <point x="243" y="-10" type="line"/>
      <point x="313" y="4"/>
      <point x="376" y="50"/>
      <point x="376" y="123" type="curve" smooth="yes"/>
      <point x="376" y="278"/>
      <point x="130" y="261"/>
      <point x="130" y="366" type="curve" name="hr04" smooth="yes"/>
      <point x="130" y="407"/>
      <point x="158" y="422"/>
      <point x="187" y="422" type="curve" smooth="yes"/>
      <point x="262" y="422"/>
      <point x="283" y="408"/>
      <point x="295" y="378" type="curve" name="hr05"/>
      <point x="295" y="378"/>
      <point x="309" y="328"/>
      <point x="325" y="328" type="curve" smooth="yes"/>
      <point x="351" y="328"/>
      <point x="349" y="390"/>
      <point x="349" y="418" type="curve" smooth="yes"/>
      <point x="349" y="444"/>
      <point x="313" y="477"/>
      <point x="233" y="477" type="curve" smooth="yes"/>
      <point x="150" y="477"/>
      <point x="55" y="422"/>
      <point x="55" y="332" type="curve" smooth="yes"/>
      <point x="55" y="180"/>
      <point x="295" y="207"/>
      <point x="295" y="94" type="curve" name="hr06" smooth="yes"/>
      <point x="295" y="56"/>
      <point x="259" y="33"/>
      <point x="224" y="33" type="curve" smooth="yes"/>
      <point x="170" y="33"/>
      <point x="123" y="62"/>
      <point x="108" y="88" type="curve" name="hr07" smooth="yes"/>
      <point x="99" y="103"/>
      <point x="91" y="150"/>
      <point x="75" y="150" type="curve" smooth="yes"/>
      <point x="43" y="150"/>
      <point x="51" y="79"/>
    </contour>
  </outline>
</glyph>
<glyph name="uni0162" format="1">
  <advance width="621"/>
  <unicode hex="0162"/>
  <outline>
    <contour>
      <point x="170" y="29" type="curve" name="hr01" smooth="yes"/>
      <point x="170" y="21"/>
      <point x="173" y="0"/>
      <point x="189" y="0" type="curve" smooth="yes"/>
      <point x="279" y="0" type="line" name="hr02"/>
      <point x="263" y="-100" type="line"/>
      <point x="269" y="-99"/>
      <point x="276" y="-99"/>
      <point x="282" y="-99" type="curve" smooth="yes"/>
      <point x="323" y="-99"/>
      <point x="361" y="-110"/>
      <point x="361" y="-146" type="curve" smooth="yes"/>
      <point x="361" y="-201"/>
      <point x="316" y="-211"/>
      <point x="273" y="-211" type="curve" smooth="yes"/>
      <point x="262" y="-211"/>
      <point x="245" y="-205"/>
      <point x="234" y="-205" type="curve" smooth="yes"/>
      <point x="229" y="-205"/>
      <point x="219" y="-223"/>
      <point x="219" y="-236" type="curve" smooth="yes"/>
      <point x="219" y="-257"/>
      <point x="285" y="-264"/>
      <point x="304" y="-264" type="curve" smooth="yes"/>
      <point x="384" y="-264"/>
      <point x="456" y="-221"/>
      <point x="456" y="-141" type="curve" smooth="yes"/>
      <point x="456" y="-84"/>
      <point x="394" y="-64"/>
      <point x="348" y="-64" type="curve" name="hr03"/>
      <point x="348" y="0" type="line"/>
      <point x="421" y="0" type="line" smooth="yes"/>
      <point x="445" y="0"/>
      <point x="455" y="21"/>
      <point x="455" y="27" type="curve" smooth="yes"/>
      <point x="455" y="63"/>
      <point x="360" y="39"/>
      <point x="360" y="79" type="curve" smooth="yes"/>
      <point x="360" y="610" type="line"/>
      <point x="399" y="610" type="line" smooth="yes"/>
      <point x="444" y="610"/>
      <point x="479" y="609"/>
      <point x="497" y="597" type="curve"/>
      <point x="517" y="572"/>
      <point x="530" y="428"/>
      <point x="537" y="424" type="curve" smooth="yes"/>
      <point x="541" y="422"/>
      <point x="545" y="421"/>
      <point x="549" y="421" type="curve" smooth="yes"/>
      <point x="591" y="421"/>
      <point x="583" y="493"/>
      <point x="583" y="570" type="curve" smooth="yes"/>
      <point x="583" y="614"/>
      <point x="580" y="658"/>
      <point x="572" y="658" type="curve" smooth="yes"/>
      <point x="40" y="658" type="line" smooth="yes"/>
      <point x="37" y="658"/>
      <point x="36" y="647"/>
      <point x="36" y="630" type="curve" smooth="yes"/>
      <point x="36" y="577"/>
      <point x="48" y="464"/>
      <point x="54" y="441" type="curve" name="hr04" smooth="yes"/>
      <point x="56" y="432"/>
      <point x="76" y="420"/>
      <point x="90" y="420" type="curve" smooth="yes"/>
      <point x="106" y="420"/>
      <point x="107" y="433"/>
      <point x="107" y="457" type="curve" smooth="yes"/>
      <point x="107" y="476"/>
      <point x="105" y="500"/>
      <point x="105" y="523" type="curve" smooth="yes"/>
      <point x="105" y="615"/>
      <point x="138" y="610"/>
      <point x="228" y="610" type="curve" smooth="yes"/>
      <point x="270" y="610" type="line"/>
      <point x="270" y="60" type="line"/>
      <point x="248" y="49"/>
      <point x="170" y="52"/>
    </contour>
  </outline>
</glyph>
<glyph name="tcaron" format="1">
  <advance width="321"/>
  <unicode hex="0165"/>
  <outline>
    <contour>
      <point x="237" y="536" type="line" name="hr00" smooth="yes"/>
      <point x="237" y="533"/>
      <point x="246" y="530"/>
      <point x="256" y="530" type="curve" smooth="yes"/>
      <point x="268" y="530"/>
      <point x="282" y="534"/>
      <point x="287" y="545" type="curve"/>
      <point x="296" y="571"/>
      <point x="310" y="654"/>
      <point x="310" y="713" type="curve" smooth="yes"/>
      <point x="310" y="748"/>
      <point x="307" y="774"/>
      <point x="239" y="774" type="curve" smooth="yes"/>
      <point x="224" y="774"/>
      <point x="216" y="770"/>
      <point x="216" y="760" type="curve"/>
    </contour>
    <component base="t"/>
  </outline>
</glyph>
<glyph name="uogonek" format="1">
  <advance width="502"/>
  <unicode hex="0173"/>
  <outline>
    <contour>
      <point x="89" y="29" type="curve" name="hr01" smooth="yes"/>
      <point x="112" y="-5"/>
      <point x="160" y="-16"/>
      <point x="200" y="-16" type="curve" smooth="yes"/>
      <point x="261" y="-16"/>
      <point x="302" y="10"/>
      <point x="342" y="44" type="curve"/>
      <point x="342" y="19" type="line" smooth="yes"/>
      <point x="342" y="-3"/>
      <point x="358" y="-13"/>
      <point x="378" y="-15" type="curve"/>
      <point x="331" y="-37"/>
      <point x="284" y="-74"/>
      <point x="284" y="-126" type="curve" name="hr02" smooth="yes"/>
      <point x="284" y="-185"/>
      <point x="331" y="-209"/>
      <point x="391" y="-209" type="curve" smooth="yes"/>
      <point x="491" y="-209"/>
      <point x="502" y="-146"/>
      <point x="502" y="-136" type="curve" smooth="yes"/>
      <point x="502" y="-131"/>
      <point x="497" y="-118"/>
      <point x="488" y="-118" type="curve" smooth="yes"/>
      <point x="486" y="-118"/>
      <point x="485" y="-118"/>
      <point x="483" y="-119" type="curve" smooth="yes"/>
      <point x="454" y="-136"/>
      <point x="428" y="-137"/>
      <point x="413" y="-137" type="curve" smooth="yes"/>
      <point x="387" y="-137"/>
      <point x="376" y="-118"/>
      <point x="376" y="-95" type="curve" smooth="yes"/>
      <point x="376" y="-55"/>
      <point x="419" y="-22"/>
      <point x="468" y="7" type="curve"/>
      <point x="458" y="7" type="line"/>
      <point x="472" y="18"/>
      <point x="480" y="30"/>
      <point x="480" y="35" type="curve" name="hr03" smooth="yes"/>
      <point x="480" y="44"/>
      <point x="473" y="50"/>
      <point x="459" y="50" type="curve" smooth="yes"/>
      <point x="437" y="50"/>
      <point x="438" y="43"/>
      <point x="426" y="43" type="curve"/>
      <point x="426" y="451" type="line"/>
      <point x="423" y="462"/>
      <point x="414" y="463"/>
      <point x="404" y="463" type="curve" smooth="yes"/>
      <point x="323" y="463"/>
      <point x="279" y="453"/>
      <point x="279" y="433" type="curve" smooth="yes"/>
      <point x="279" y="418"/>
      <point x="312" y="408"/>
      <point x="342" y="404" type="curve"/>
      <point x="342" y="81" type="line"/>
      <point x="310" y="56"/>
      <point x="269" y="39"/>
      <point x="232" y="39" type="curve" smooth="yes"/>
      <point x="181" y="39"/>
      <point x="149" y="48"/>
      <point x="149" y="180" type="curve" smooth="yes"/>
      <point x="149" y="454" type="line"/>
      <point x="147" y="463"/>
      <point x="139" y="464"/>
      <point x="125" y="464" type="curve" smooth="yes"/>
      <point x="55" y="464"/>
      <point x="16" y="454"/>
      <point x="16" y="434" type="curve" smooth="yes"/>
      <point x="16" y="425"/>
      <point x="36" y="409"/>
      <point x="61" y="405" type="curve"/>
      <point x="63" y="132" type="line" smooth="yes"/>
      <point x="63" y="99"/>
      <point x="65" y="65"/>
    </contour>
  </outline>
</glyph>
<glyph name="uni018F" format="1">
  <advance width="571"/>
  <unicode hex="018F"/>
  <outline>
    <contour>
      <point x="269" y="-16" type="curve" name="hr00" smooth="yes"/>
      <point x="439" y="-16"/>
      <point x="540" y="156"/>
      <point x="540" y="368" type="curve" smooth="yes"/>
      <point x="540" y="523"/>
      <point x="465" y="671"/>
      <point x="288" y="671" type="curve" smooth="yes"/>
      <point x="171" y="671"/>
      <point x="61" y="610"/>
      <point x="61" y="559" type="curve" smooth="yes"/>
      <point x="61" y="552"/>
      <point x="66" y="544"/>
      <point x="81" y="544" type="curve" smooth="yes"/>
      <point x="121" y="544"/>
      <point x="131" y="604"/>
      <point x="257" y="604" type="curve" smooth="yes"/>
      <point x="387" y="604"/>
      <point x="446" y="493"/>
      <point x="451" y="335" type="curve"/>
      <point x="85" y="335" type="line" smooth="yes"/>
      <point x="66" y="335"/>
      <point x="40" y="336"/>
      <point x="40" y="314" type="curve"/>
      <point x="44" y="172"/>
      <point x="80" y="-16"/>
    </contour>
    <contour>
      <point x="127" y="272" type="curve"/>
      <point x="451" y="284" type="line"/>
      <point x="445" y="151"/>
      <point x="399" y="48"/>
      <point x="302" y="48" type="curve" smooth="yes"/>
      <point x="162" y="48"/>
      <point x="131" y="150"/>
    </contour>
  </outline>
</glyph>
<glyph name="circumflex" format="1">
  <advance width="388"/>
  <unicode hex="02C6"/>
  <outline>
    <contour>
      <point x="63" y="561" type="curve" name="hr00" smooth="yes"/>
      <point x="77" y="561"/>
      <point x="151" y="643"/>
      <point x="194" y="704" type="curve"/>
      <point x="233" y="642"/>
      <point x="309" y="561"/>
      <point x="325" y="561" type="curve" smooth="yes"/>
      <point x="341" y="561"/>
      <point x="359" y="578"/>
      <point x="359" y="583" type="curve"/>
      <point x="245" y="759" type="line" smooth="yes"/>
      <point x="241" y="764"/>
      <point x="217" y="766"/>
      <point x="193" y="766" type="curve" smooth="yes"/>
      <point x="168" y="766"/>
      <point x="142" y="764"/>
      <point x="140" y="759" type="curve"/>
      <point x="27" y="583" type="line"/>
      <point x="27" y="578"/>
      <point x="44" y="561"/>
    </contour>
  </outline>
</glyph>
<glyph name="caron" format="1">
  <advance width="388"/>
  <unicode hex="02C7"/>
  <outline>
    <contour>
      <point x="140" y="588" type="line" name="hr00"/>
      <point x="142" y="583"/>
      <point x="168" y="581"/>
      <point x="193" y="581" type="curve" smooth="yes"/>
      <point x="217" y="581"/>
      <point x="241" y="583"/>
      <point x="245" y="588" type="curve" smooth="yes"/>
      <point x="359" y="764" type="line"/>
      <point x="359" y="769"/>
      <point x="341" y="786"/>
      <point x="325" y="786" type="curve" smooth="yes"/>
      <point x="309" y="786"/>
      <point x="233" y="704"/>
      <point x="194" y="642" type="curve"/>
      <point x="151" y="703"/>
      <point x="77" y="786"/>
      <point x="63" y="786" type="curve" smooth="yes"/>
      <point x="44" y="786"/>
      <point x="27" y="769"/>
      <point x="27" y="764" type="curve"/>
      <point x="27" y="763" type="line"/>
    </contour>
  </outline>
</glyph>
<glyph name="breve" format="1">
  <advance width="389"/>
  <unicode hex="02D8"/>
  <outline>
    <contour>
      <point x="191" y="590" type="curve" name="hr00" smooth="yes"/>
      <point x="270" y="590"/>
      <point x="324" y="653"/>
      <point x="338" y="707" type="curve"/>
      <point x="338" y="708"/>
      <point x="338" y="709"/>
      <point x="338" y="710" type="curve" smooth="yes"/>
      <point x="338" y="721"/>
      <point x="324" y="736"/>
      <point x="312" y="736" type="curve" smooth="yes"/>
      <point x="301" y="736"/>
      <point x="269" y="662"/>
      <point x="195" y="662" type="curve" smooth="yes"/>
      <point x="116" y="662"/>
      <point x="90" y="736"/>
      <point x="77" y="736" type="curve" smooth="yes"/>
      <point x="65" y="736"/>
      <point x="48" y="718"/>
      <point x="48" y="707" type="curve" smooth="yes"/>
      <point x="48" y="706"/>
      <point x="48" y="705"/>
      <point x="48" y="705" type="curve"/>
      <point x="60" y="653"/>
      <point x="106" y="590"/>
    </contour>
  </outline>
</glyph>
<glyph name="dotaccent" format="1">
  <advance width="188"/>
  <unicode hex="02D9"/>
  <outline>
    <contour>
      <point x="102" y="554" type="curve" name="hr00" smooth="yes"/>
      <point x="129" y="554"/>
      <point x="161" y="589"/>
      <point x="161" y="612" type="curve" smooth="yes"/>
      <point x="161" y="630"/>
      <point x="142" y="658"/>
      <point x="83" y="658" type="curve" smooth="yes"/>
      <point x="57" y="658"/>
      <point x="27" y="618"/>
      <point x="27" y="596" type="curve" smooth="yes"/>
      <point x="27" y="587"/>
      <point x="42" y="554"/>
    </contour>
  </outline>
</glyph>
<glyph name="ring" format="1">
  <advance width="346"/>
  <unicode hex="02DA"/>
  <outline>
    <contour>
      <point x="164" y="558" type="curve" name="hr00" smooth="yes"/>
      <point x="260" y="558"/>
      <point x="319" y="616"/>
      <point x="319" y="694" type="curve" smooth="yes"/>
      <point x="319" y="785"/>
      <point x="243" y="812"/>
      <point x="186" y="812" type="curve" smooth="yes"/>
      <point x="90" y="812"/>
      <point x="27" y="756"/>
      <point x="27" y="680" type="curve" smooth="yes"/>
      <point x="27" y="587"/>
      <point x="104" y="558"/>
    </contour>
    <contour>
      <point x="169" y="609" type="curve" smooth="yes"/>
      <point x="139" y="609"/>
      <point x="96" y="623"/>
      <point x="96" y="685" type="curve" smooth="yes"/>
      <point x="96" y="729"/>
      <point x="132" y="763"/>
      <point x="179" y="763" type="curve" smooth="yes"/>
      <point x="206" y="763"/>
      <point x="249" y="747"/>
      <point x="249" y="687" type="curve" smooth="yes"/>
      <point x="249" y="642"/>
      <point x="217" y="613"/>
      <point x="175" y="609" type="curve" smooth="yes"/>
      <point x="173" y="609"/>
      <point x="171" y="609"/>
    </contour>
  </outline>
</glyph>
<glyph name="ogonek" format="1">
  <advance width="274"/>
  <unicode hex="02DB"/>
  <outline>
    <contour>
      <point x="27" y="-113" type="curve" name="hr00" smooth="yes"/>
      <point x="27" y="-172"/>
      <point x="76" y="-209"/>
      <point x="133" y="-209" type="curve" smooth="yes"/>
      <point x="233" y="-209"/>
      <point x="244" y="-146"/>
      <point x="244" y="-136" type="curve" smooth="yes"/>
      <point x="244" y="-131"/>
      <point x="239" y="-118"/>
      <point x="230" y="-118" type="curve" smooth="yes"/>
      <point x="228" y="-118"/>
      <point x="227" y="-118"/>
      <point x="225" y="-119" type="curve" smooth="yes"/>
      <point x="196" y="-136"/>
      <point x="173" y="-137"/>
      <point x="156" y="-137" type="curve" smooth="yes"/>
      <point x="129" y="-137"/>
      <point x="118" y="-110"/>
      <point x="118" y="-95" type="curve" smooth="yes"/>
      <point x="118" y="-23"/>
      <point x="169" y="4"/>
      <point x="215" y="33" type="curve"/>
      <point x="188" y="33" type="line"/>
      <point x="135" y="19"/>
      <point x="27" y="-19"/>
    </contour>
  </outline>
</glyph>
<glyph name="tilde" format="1">
  <advance width="472"/>
  <unicode hex="02DC"/>
  <outline>
    <contour>
      <point x="97" y="598" type="curve" name="hr01" smooth="yes"/>
      <point x="101" y="598"/>
      <point x="103" y="599"/>
      <point x="104" y="600" type="curve" smooth="yes"/>
      <point x="122" y="621"/>
      <point x="131" y="656"/>
      <point x="163" y="656" type="curve" smooth="yes"/>
      <point x="216" y="656"/>
      <point x="210" y="578"/>
      <point x="293" y="578" type="curve" smooth="yes"/>
      <point x="363" y="578"/>
      <point x="389" y="648"/>
      <point x="409" y="687" type="curve" name="hr02" smooth="yes"/>
      <point x="410" y="689"/>
      <point x="411" y="691"/>
      <point x="411" y="693" type="curve" smooth="yes"/>
      <point x="411" y="706"/>
      <point x="386" y="712"/>
      <point x="374" y="712" type="curve" smooth="yes"/>
      <point x="371" y="712"/>
      <point x="368" y="712"/>
      <point x="368" y="711" type="curve" smooth="yes"/>
      <point x="347" y="690"/>
      <point x="329" y="644"/>
      <point x="299" y="644" type="curve" smooth="yes"/>
      <point x="242" y="644"/>
      <point x="243" y="723"/>
      <point x="179" y="723" type="curve" name="hr03" smooth="yes"/>
      <point x="108" y="723"/>
      <point x="83" y="663"/>
      <point x="63" y="624" type="curve" smooth="yes"/>
      <point x="61" y="621"/>
      <point x="60" y="619"/>
      <point x="60" y="616" type="curve" smooth="yes"/>
      <point x="60" y="604"/>
      <point x="85" y="598"/>
    </contour>
  </outline>
</glyph>
<glyph name="pi" format="1">
  <advance width="652"/>
  <unicode hex="03C0"/>
  <outline>
    <contour>
      <point x="132" y="5" type="curve" name="hr00" smooth="yes"/>
      <point x="132" y="-8"/>
      <point x="161" y="-12"/>
      <point x="185" y="-12" type="curve" smooth="yes"/>
      <point x="271" y="-12"/>
      <point x="270" y="98"/>
      <point x="278" y="165" type="curve" smooth="yes"/>
      <point x="287" y="247"/>
      <point x="291" y="328"/>
      <point x="296" y="410" type="curve"/>
      <point x="338" y="409"/>
      <point x="384" y="406"/>
      <point x="425" y="404" type="curve"/>
      <point x="435" y="271"/>
      <point x="435" y="112"/>
      <point x="436" y="-15" type="curve"/>
      <point x="437" y="-18"/>
      <point x="441" y="-19"/>
      <point x="446" y="-19" type="curve" smooth="yes"/>
      <point x="470" y="-19"/>
      <point x="526" y="5"/>
      <point x="527" y="19" type="curve"/>
      <point x="517" y="145"/>
      <point x="502" y="275"/>
      <point x="490" y="402" type="curve"/>
      <point x="499" y="402" type="line" smooth="yes"/>
      <point x="592" y="402"/>
      <point x="640" y="460"/>
      <point x="640" y="519" type="curve" smooth="yes"/>
      <point x="640" y="530"/>
      <point x="639" y="562"/>
      <point x="625" y="562" type="curve" smooth="yes"/>
      <point x="604" y="562"/>
      <point x="565" y="534"/>
      <point x="556" y="520" type="curve"/>
      <point x="559" y="513"/>
      <point x="561" y="505"/>
      <point x="561" y="497" type="curve" smooth="yes"/>
      <point x="561" y="491"/>
      <point x="560" y="484"/>
      <point x="557" y="479" type="curve"/>
      <point x="200" y="479" type="line" smooth="yes"/>
      <point x="97" y="479"/>
      <point x="61" y="399"/>
      <point x="61" y="340" type="curve"/>
      <point x="64" y="334"/>
      <point x="74" y="332"/>
      <point x="87" y="332" type="curve" smooth="yes"/>
      <point x="106" y="332"/>
      <point x="129" y="338"/>
      <point x="133" y="347" type="curve"/>
      <point x="133" y="347"/>
      <point x="133" y="346"/>
      <point x="133" y="346" type="curve"/>
      <point x="139" y="346"/>
      <point x="143" y="391"/>
      <point x="148" y="398" type="curve"/>
      <point x="159" y="407"/>
      <point x="192" y="410"/>
      <point x="234" y="411" type="curve"/>
      <point x="229" y="322"/>
      <point x="217" y="208"/>
      <point x="199" y="128" type="curve" smooth="yes"/>
      <point x="189" y="81"/>
      <point x="167" y="52"/>
      <point x="140" y="19" type="curve"/>
      <point x="134" y="13"/>
      <point x="132" y="9"/>
    </contour>
  </outline>
</glyph>
<glyph name="dv_VocalicR" format="1">
  <advance width="900"/>
  <unicode hex="090B"/>
  <outline>
    <contour>
      <point x="139" y="85" type="curve" name="hr01" smooth="yes"/>
      <point x="139" y="85"/>
      <point x="140" y="85"/>
      <point x="141" y="85" type="curve"/>
      <point x="224" y="137"/>
      <point x="311" y="184"/>
      <point x="396" y="235" type="curve"/>
      <point x="396" y="33" type="line"/>
      <point x="398" y="19"/>
      <point x="427" y="-36"/>
      <point x="446" y="-36" type="curve" smooth="yes"/>
      <point x="450" y="-36"/>
      <point x="453" y="-34"/>
      <point x="456" y="-29" type="curve"/>
      <point x="456" y="264" type="line"/>
      <point x="464" y="256"/>
      <point x="485" y="257"/>
      <point x="498" y="257" type="curve" smooth="yes"/>
      <point x="582" y="257"/>
      <point x="669" y="293"/>
      <point x="723" y="358" type="curve"/>
      <point x="751" y="319"/>
      <point x="772" y="273"/>
      <point x="772" y="227" type="curve" smooth="yes"/>
      <point x="772" y="148"/>
      <point x="717" y="95"/>
      <point x="645" y="95" type="curve" smooth="yes"/>
      <point x="620" y="95"/>
      <point x="594" y="101"/>
      <point x="567" y="115" type="curve"/>
      <point x="565" y="115"/>
      <point x="563" y="115"/>
      <point x="562" y="115" type="curve" smooth="yes"/>
      <point x="555" y="115"/>
      <point x="552" y="112"/>
      <point x="552" y="107" type="curve" smooth="yes"/>
      <point x="552" y="89"/>
      <point x="589" y="47"/>
      <point x="597" y="41" type="curve"/>
      <point x="628" y="25"/>
      <point x="660" y="17"/>
      <point x="690" y="17" type="curve" smooth="yes"/>
      <point x="766" y="17"/>
      <point x="831" y="70"/>
      <point x="831" y="172" type="curve" smooth="yes"/>
      <point x="831" y="248"/>
      <point x="792" y="323"/>
      <point x="743" y="385" type="curve"/>
      <point x="752" y="398"/>
      <point x="761" y="413"/>
      <point x="761" y="429" type="curve" name="hr02" smooth="yes"/>
      <point x="761" y="492"/>
      <point x="690" y="538"/>
      <point x="658" y="538" type="curve" smooth="yes"/>
      <point x="638" y="538"/>
      <point x="631" y="526"/>
      <point x="631" y="509" type="curve" smooth="yes"/>
      <point x="631" y="484"/>
      <point x="646" y="449"/>
      <point x="663" y="425" type="curve"/>
      <point x="613" y="369"/>
      <point x="533" y="337"/>
      <point x="456" y="335" type="curve"/>
      <point x="456" y="603" type="line" smooth="yes"/>
      <point x="456" y="605"/>
      <point x="456" y="607"/>
      <point x="455" y="609" type="curve"/>
      <point x="924" y="609" type="line"/>
      <point x="930" y="610"/>
      <point x="933" y="614"/>
      <point x="933" y="620" type="curve" smooth="yes"/>
      <point x="933" y="641"/>
      <point x="898" y="684"/>
      <point x="879" y="687" type="curve"/>
      <point x="-26" y="687" type="line"/>
      <point x="-31" y="684"/>
      <point x="-32" y="680"/>
      <point x="-32" y="675" type="curve" smooth="yes"/>
      <point x="-32" y="652"/>
      <point x="4" y="615"/>
      <point x="19" y="609" type="curve"/>
      <point x="396" y="609" type="line"/>
      <point x="396" y="351" type="line"/>
      <point x="333" y="426"/>
      <point x="241" y="491"/>
      <point x="148" y="491" type="curve" smooth="yes"/>
      <point x="125" y="491"/>
      <point x="32" y="476"/>
      <point x="32" y="444" type="curve" smooth="yes"/>
      <point x="32" y="421"/>
      <point x="65" y="379"/>
      <point x="86" y="379" type="curve" smooth="yes"/>
      <point x="86" y="379"/>
      <point x="87" y="379"/>
      <point x="88" y="379" type="curve" smooth="yes"/>
      <point x="121" y="401"/>
      <point x="157" y="411"/>
      <point x="193" y="411" type="curve" smooth="yes"/>
      <point x="259" y="411"/>
      <point x="324" y="378"/>
      <point x="371" y="328" type="curve"/>
      <point x="278" y="271"/>
      <point x="182" y="220"/>
      <point x="90" y="162" type="curve" smooth="yes"/>
      <point x="86" y="159"/>
      <point x="85" y="155"/>
      <point x="85" y="150" type="curve" smooth="yes"/>
      <point x="85" y="127"/>
      <point x="118" y="85"/>
    </contour>
  </outline>
</glyph>
<glyph name="dv_E" format="1">
  <advance width="691"/>
  <unicode hex="090F"/>
  <outline>
    <contour>
      <point x="212" y="40" type="curve" name="hr00" smooth="yes"/>
      <point x="196" y="72"/>
      <point x="194" y="110"/>
      <point x="194" y="145" type="curve" smooth="yes"/>
      <point x="194" y="300"/>
      <point x="193" y="454"/>
      <point x="193" y="609" type="curve"/>
      <point x="506" y="609" type="line"/>
      <point x="506" y="515"/>
      <point x="506" y="421"/>
      <point x="506" y="327" type="curve" smooth="yes"/>
      <point x="506" y="233"/>
      <point x="472" y="188"/>
      <point x="387" y="156" type="curve"/>
      <point x="383" y="153"/>
      <point x="382" y="149"/>
      <point x="382" y="144" type="curve" smooth="yes"/>
      <point x="382" y="121"/>
      <point x="415" y="79"/>
      <point x="436" y="79" type="curve" smooth="yes"/>
      <point x="436" y="79"/>
      <point x="437" y="79"/>
      <point x="438" y="79" type="curve" smooth="yes"/>
      <point x="530" y="113"/>
      <point x="565" y="165"/>
      <point x="566" y="265" type="curve"/>
      <point x="566" y="603" type="line" smooth="yes"/>
      <point x="566" y="605"/>
      <point x="566" y="607"/>
      <point x="565" y="609" type="curve"/>
      <point x="712" y="609" type="line"/>
      <point x="718" y="610"/>
      <point x="721" y="614"/>
      <point x="721" y="620" type="curve" smooth="yes"/>
      <point x="721" y="641"/>
      <point x="686" y="684"/>
      <point x="667" y="687" type="curve"/>
      <point x="-26" y="687" type="line"/>
      <point x="-31" y="684"/>
      <point x="-32" y="680"/>
      <point x="-32" y="675" type="curve" smooth="yes"/>
      <point x="-32" y="652"/>
      <point x="4" y="615"/>
      <point x="19" y="609" type="curve"/>
      <point x="134" y="609" type="line"/>
      <point x="134" y="207" type="line" smooth="yes"/>
      <point x="134" y="16"/>
      <point x="233" y="-43"/>
      <point x="384" y="-126" type="curve" smooth="yes"/>
      <point x="427" y="-150"/>
      <point x="470" y="-179"/>
      <point x="517" y="-192" type="curve"/>
      <point x="524" y="-191"/>
      <point x="527" y="-187"/>
      <point x="527" y="-181" type="curve" smooth="yes"/>
      <point x="527" y="-161"/>
      <point x="489" y="-121"/>
      <point x="479" y="-115" type="curve"/>
      <point x="435" y="-102"/>
      <point x="394" y="-74"/>
      <point x="354" y="-52" type="curve" smooth="yes"/>
      <point x="320" y="-34"/>
      <point x="227" y="10"/>
    </contour>
  </outline>
</glyph>
<glyph name="dv_Nga" format="1">
  <advance width="600"/>
  <unicode hex="0919"/>
  <outline>
    <contour>
      <point x="75" y="47" type="curve" name="hr01" smooth="yes"/>
      <point x="112" y="9"/>
      <point x="213" y="-28"/>
      <point x="303" y="-28" type="curve" smooth="yes"/>
      <point x="389" y="-28"/>
      <point x="481" y="9"/>
      <point x="481" y="117" type="curve" name="hr02" smooth="yes"/>
      <point x="481" y="161"/>
      <point x="461" y="204"/>
      <point x="434" y="238" type="curve" smooth="yes"/>
      <point x="371" y="317"/>
      <point x="284" y="311"/>
      <point x="191" y="311" type="curve" smooth="yes"/>
      <point x="171" y="311"/>
      <point x="135" y="318"/>
      <point x="123" y="331" type="curve"/>
      <point x="123" y="332" type="line"/>
      <point x="122" y="336"/>
      <point x="122" y="340"/>
      <point x="122" y="344" type="curve" smooth="yes"/>
      <point x="122" y="410"/>
      <point x="172" y="437"/>
      <point x="223" y="437" type="curve" smooth="yes"/>
      <point x="413" y="437" type="line" name="hr03"/>
      <point x="416" y="438"/>
      <point x="420" y="440"/>
      <point x="422" y="443" type="curve"/>
      <point x="422" y="609" type="line"/>
      <point x="662" y="609" type="line"/>
      <point x="668" y="610"/>
      <point x="671" y="614"/>
      <point x="671" y="620" type="curve" smooth="yes"/>
      <point x="671" y="641"/>
      <point x="636" y="684"/>
      <point x="617" y="687" type="curve"/>
      <point x="-23" y="687" type="line"/>
      <point x="-28" y="684"/>
      <point x="-29" y="680"/>
      <point x="-29" y="675" type="curve" smooth="yes"/>
      <point x="-29" y="652"/>
      <point x="7" y="615"/>
      <point x="22" y="609" type="curve"/>
      <point x="362" y="609" type="line"/>
      <point x="362" y="515" type="line"/>
      <point x="178" y="515" type="line" smooth="yes"/>
      <point x="100" y="515"/>
      <point x="64" y="464"/>
      <point x="64" y="408" type="curve" smooth="yes"/>
      <point x="64" y="373"/>
      <point x="78" y="335"/>
      <point x="103" y="303" type="curve" smooth="yes"/>
      <point x="163" y="227"/>
      <point x="229" y="233"/>
      <point x="322" y="233" type="curve" name="hr04" smooth="yes"/>
      <point x="353" y="233"/>
      <point x="393" y="230"/>
      <point x="417" y="206" type="curve"/>
      <point x="420" y="198"/>
      <point x="421" y="181"/>
      <point x="421" y="173" type="curve" smooth="yes"/>
      <point x="419" y="85"/>
      <point x="330" y="49"/>
      <point x="248" y="49" type="curve" smooth="yes"/>
      <point x="188" y="49"/>
      <point x="129" y="67"/>
      <point x="81" y="97" type="curve" smooth="yes"/>
      <point x="67" y="105"/>
      <point x="56" y="114"/>
      <point x="48" y="114" type="curve" smooth="yes"/>
      <point x="44" y="114"/>
      <point x="42" y="111"/>
      <point x="42" y="106" type="curve" smooth="yes"/>
      <point x="42" y="91"/>
      <point x="59" y="64"/>
    </contour>
    <component base="dv_Nukta" xOffset="469" yOffset="486"/>
  </outline>
</glyph>
